<svg xmlns="http://www.w3.org/2000/svg" viewBox="0 0 350 350">
  <g id="Layer_1" data-name="Layer 1">
    <g>
      <path d="M159.1428,246.2351c-10.4636-3.15-21.1411-5.72-31.3369-9.5958-12.9953-4.94-13.4789-6.6214-12.7046-23.6577.55-12.1037,5.2585-18.65,15.0989-22.2457,6.9352-2.5338,13.5223-6.0474,20.4461-8.6194,2.4547-.9118,5.4452-.3337,8.1912-.4357-1.4665,2.5409-2.3308,6.2183-4.5115,7.4107a166.75,166.75,0,0,1-20.9126,9.36c-7.8033,2.96-9.4521,5.6863-10.2639,16.9455-.513,7.114,1.1844,11.4917,8.5223,14.2719,28.74,10.889,57.3486,11.4255,86.3349,1.1991,6.667-2.3522,9.5262-6.0984,9.1478-13.3385-.58-11.089-2.5705-14.6754-10.244-17.8267a159.826,159.826,0,0,1-20.0292-9.605c-2.2935-1.3412-3.2984-4.9541-4.8914-7.53,2.902.1552,6.0745-.4022,8.6529.6061,6.434,2.5159,12.4161,6.2774,18.9135,8.5591,9.5765,3.3629,14.2142,9.8212,15.0478,19.8858,1.6363,19.7564.4369,22.1922-18.24,28.3-8.8085,2.8806-18,4.5505-27.0183,6.7691Z" style="fill: #3b3838"/>
      <path d="M207.16,141.5755c-1.0218,5.1432-1.7407,11.4661-3.5714,17.4378-4.4231,14.4288-14.9308,22.0176-28.8289,21.5354-13.3254-.4624-23.3934-8.8637-27.06-23.0068-2.9125-11.235-3.3027-22.6385.0582-33.8309,4.295-14.3028,15.6282-21.3552,31.7287-20.2948,13.3854.8816,23.61,10.1937,26.0292,23.9465C206.27,131.6506,206.5345,136.0276,207.16,141.5755Zm-8.1435-.332c-.7851-5.7124-.9855-10.3682-2.1209-14.775-2.4634-9.5613-9.7121-14.5905-20.4562-14.8224-10.5482-.2278-18.1138,4.75-20.92,14.1891a51.9235,51.9235,0,0,0,.88,32.2183c3.1845,9.2961,9.5657,13.8225,18.8111,14.0513,9.7324.2407,16.4938-3.9467,19.8338-13.4845C197.0937,152.7667,197.8674,146.4526,199.0162,141.2435Z" style="fill: #3b3838"/>
    </g>
  </g>
</svg>
