<svg id="Layer_1" data-name="Layer 1" xmlns="http://www.w3.org/2000/svg" viewBox="0 0 350 350">
  <path d="M98.9048,174.82c0-11.8616.0242-23.7234-.0257-35.5848a3.6445,3.6445,0,0,1,2.2481-3.7388q35.8363-17.8493,71.6121-35.82a4.6081,4.6081,0,0,1,4.6022.04q35.4706,17.81,71.0021,35.4981a4.3067,4.3067,0,0,1,2.7774,4.4207q-.1,35.4188-.0045,70.8381a4.1113,4.1113,0,0,1-2.5928,4.2115Q212.835,232.4491,177.21,250.341a4.4886,4.4886,0,0,1-4.46-.0305Q136.9606,232.34,101.1157,214.48a3.5494,3.5494,0,0,1-2.2339-3.5845C98.9258,198.87,98.9049,186.8451,98.9048,174.82Zm78.7111,69.3145c.5817-.2536.9764-.4046,1.3526-.5926q32.8065-16.3995,65.6262-32.7728a2.1147,2.1147,0,0,0,1.2531-2.3115q-.0312-32.058-.0155-64.1158v-1.7574c-.6485.2862-1.0944.4612-1.5212.6745q-32.72,16.3586-65.4541,32.69a2.1049,2.1049,0,0,0-1.2571,2.3019q.0321,32.0578.016,64.116ZM151.3788,166.111c0,8.1632-.0109,16.03.01,23.8963.0036,1.3541-.2563,2.5093-1.62,3.1065-1.3857.6066-2.4018-.039-3.3476-.9931-2.6931-2.7163-5.43-5.39-8.0908-8.1373a3.2746,3.2746,0,0,0-2.6988-1.1532c-2.2913.0918-4.5889.0307-6.8838.0263-2.787-.0055-3.6034-.8191-3.6046-3.6093-.0035-8.2518-.0265-16.5038.0276-24.7553a2.1037,2.1037,0,0,0-1.4-2.2184c-6.0756-2.9783-12.1114-6.0375-18.1641-9.0627-.4211-.21-.87-.3653-1.3985-.5843-.0238.4682-.0542.7884-.0542,1.1085q-.0034,32.5434-.036,65.0866c-.0026,1.2034.5992,1.56,1.47,1.9949Q138.0917,227.0432,170.58,243.3c.5223.2611,1.0583.4949,1.6416.7664a3.1281,3.1281,0,0,0,.1363-.5757q.01-32.9532-.03-65.9062a2.02,2.02,0,0,0-.9466-1.4366c-2.2018-1.2021-4.4685-2.2858-6.7142-3.4073C160.3311,170.5758,155.994,168.4135,151.3788,166.111Zm3.1677-4.3428c.6491.34,1.1136.5939,1.5863.8307,5.8521,2.9319,11.7186,5.8355,17.5455,8.8167a2.6458,2.6458,0,0,0,2.7035-.0233q32.1961-16.1426,64.42-32.23c.5044-.2522.9943-.5332,1.6866-.9062-.69-.3756-1.1055-.6182-1.5347-.8329-6.491-3.2484-12.9971-6.4672-19.463-9.7649a2.7011,2.7011,0,0,0-2.8505.0307q-20.6448,11.0382-41.3346,21.992C169.7933,153.6718,162.28,157.6609,154.5465,161.7682ZM107.4172,138.249c6.3755,3.1892,12.3984,6.1329,18.3441,9.2251a3.7733,3.7733,0,0,0,4.0182-.0819q30.8831-16.51,61.8282-32.9044c.4833-.257.9444-.5558,1.6086-.9492-5.6627-2.825-11.0582-5.45-16.3795-8.2184a3.46,3.46,0,0,0-3.5883-.028Q142.41,120.791,111.5231,136.1916C110.27,136.8181,109.018,137.4468,107.4172,138.249ZM133.6418,151.23c.364.2369.5721.4023.8046.5193,4.482,2.255,8.953,4.5333,13.4709,6.7141a2.4526,2.4526,0,0,0,1.9071-.1666q31.609-16.7358,63.1783-33.5469a13.0816,13.0816,0,0,0,1.1108-.7589c-4.6846-2.3387-9.1958-4.54-13.65-6.8514a2.6865,2.6865,0,0,0-2.8512.074q-23.6831,12.6411-47.403,25.213C144.7324,145.3368,139.2554,148.2472,133.6418,151.23Zm12.2992,33.1042a6.1532,6.1532,0,0,0,.1815-.8276c.0063-6.3377.0328-12.6756-.0383-19.0124a2.1847,2.1847,0,0,0-1.0579-1.53c-2.9388-1.559-5.9368-3.0063-8.9146-4.4919-1.8375-.9168-3.6744-1.8348-5.5914-2.7921v21.9285c2.26,0,4.3934.0915,6.5153-.029a4.702,4.702,0,0,1,4.03,1.7086C142.5653,180.9483,144.17,182.5126,145.941,184.3343Z" style="fill: #3b3838"/>
</svg>
