<svg xmlns="http://www.w3.org/2000/svg" viewBox="0 0 251.49 216.63">
  <defs>
    <style>
      .cls-1 {
        fill: #3b3838;
      }
    </style>
  </defs>
  <g id="Layer_2" data-name="Layer 2">
    <g id="Layer_1-2" data-name="Layer 1">
      <g>
        <path class="cls-1" d="M105.83,174.3A21.17,21.17,0,1,0,127,195.47,21.17,21.17,0,0,0,105.83,174.3Zm0,32.93a11.76,11.76,0,1,1,11.76-11.76A11.76,11.76,0,0,1,105.83,207.23Z"/>
        <path class="cls-1" d="M193,174.3a21.17,21.17,0,1,0,21.16,21.17A21.17,21.17,0,0,0,193,174.3Zm0,32.93a11.76,11.76,0,1,1,11.75-11.76A11.76,11.76,0,0,1,193,207.23Z"/>
        <path class="cls-1" d="M250.3,39.09a7.22,7.22,0,0,0-4.66-2.33L55.72,34.13l-5.25-16A26.83,26.83,0,0,0,25.38,0H5.83a5.84,5.84,0,0,0,0,11.67H25.38a15.16,15.16,0,0,1,14,10.21L76.43,133.61l-2.91,6.71a28,28,0,0,0,2.62,25.38A27.13,27.13,0,0,0,98,178H211.5a5.83,5.83,0,1,0,0-11.66H98a14.89,14.89,0,0,1-12.25-7,16,16,0,0,1-1.46-14L86.64,140l122.82-12.84a32.09,32.09,0,0,0,27.72-24.5l14-58.64A5,5,0,0,0,250.3,39.09Zm-24.5,61A19.84,19.84,0,0,1,208,115.53L86.64,128.07,59.51,45.8l178.83,2.63Z"/>
      </g>
    </g>
  </g>
</svg>
