<svg xmlns="http://www.w3.org/2000/svg" viewBox="0 0 241.78 284.66">
  <defs>
    <style>
      .cls-1 {
        fill: #3b3838;
      }
    </style>
  </defs>
  <g id="Layer_2" data-name="Layer 2">
    <g id="Layer_1-2" data-name="Layer 1">
      <g>
        <path class="cls-1" d="M161.18,96.48A4.16,4.16,0,0,0,157,92.31H104.81a4.17,4.17,0,1,0,0,8.34H157A4.17,4.17,0,0,0,161.18,96.48Z"/>
        <path class="cls-1" d="M39.15,168.93A11.05,11.05,0,0,0,50.2,180H75a11.06,11.06,0,0,0,11-11V144.29l3.87-3.88A4.16,4.16,0,1,0,84,134.52l-1.55,1.54A11,11,0,0,0,75,133.12H50.2a11.06,11.06,0,0,0-11.05,11v24.76Zm8.34-24.76a2.71,2.71,0,0,1,2.71-2.71H75a2.77,2.77,0,0,1,1.57.51L63.7,154.79l-3-2.95a4.17,4.17,0,0,0-5.9,5.9l5.91,5.9a4.18,4.18,0,0,0,5.9,0l11-11v16.3a2.71,2.71,0,0,1-2.71,2.7H50.2a2.7,2.7,0,0,1-2.71-2.7V144.17Z"/>
        <path class="cls-1" d="M104.81,152.38a4.17,4.17,0,0,0,0,8.34h19.07a4.17,4.17,0,1,0,0-8.34Z"/>
        <path class="cls-1" d="M39.15,229A11.05,11.05,0,0,0,50.2,240H75a11.06,11.06,0,0,0,11-11V204.24a11.06,11.06,0,0,0-11-11H50.2a11.05,11.05,0,0,0-11.05,11Zm8.34-24.76a2.71,2.71,0,0,1,2.71-2.71H75a2.72,2.72,0,0,1,2.71,2.71V229A2.71,2.71,0,0,1,75,231.7H50.2a2.7,2.7,0,0,1-2.71-2.7Z"/>
        <path class="cls-1" d="M241.78,97.54a18.37,18.37,0,0,0-5.24-12.65c-6.65-7-19.6-7-26.39,1.1V35.3A17.19,17.19,0,0,0,193,18.13H153.3V9.94A10,10,0,0,0,143.36,0H66.78a9.94,9.94,0,0,0-9.93,9.94v8.19H17.17A17.19,17.19,0,0,0,0,35.3V267.49a17.19,17.19,0,0,0,17.17,17.17H193a17.19,17.19,0,0,0,17.17-17.17V156.55a4.17,4.17,0,1,0-8.34,0V267.49a8.84,8.84,0,0,1-8.83,8.83H17.17a8.84,8.84,0,0,1-8.83-8.83V35.3a8.84,8.84,0,0,1,8.83-8.83H41.71v8.69c-.25,10.16,9.91,19.43,20.68,17.33l38.46-6.85a24,24,0,0,1,8.36,0l38.56,6.85c9.65,2.15,21.06-6.53,20.67-17.32v-8.7h16.75v84.47l-69.68,69.69a31.46,31.46,0,0,0-9.12,14.57l-5.6,20.31c-.16,1.78,0,5.89,5.13,5.13l20.3-5.6a32,32,0,0,0,14.58-9.11l44.39-44.4v97.12a1,1,0,0,1-1.05,1.05H26A1,1,0,0,1,25,258.65V42a4.17,4.17,0,0,0-8.34,0V258.65A9.4,9.4,0,0,0,26,268H184.14a9.4,9.4,0,0,0,9.39-9.39V153.19l43-43h0a18.64,18.64,0,0,0,5.24-12.65ZM65.19,9.94a1.6,1.6,0,0,1,1.59-1.6h76.58a1.6,1.6,0,0,1,1.6,1.6v8.19H65.19ZM160.1,35.17c.08,5-4.91,10.21-10.88,9.11l-38.55-6.85a32.06,32.06,0,0,0-11.28,0L60.92,44.27c-4.9,1-10.91-3-10.87-9.11V26.47H160.1Zm70.54,69.12-12.32,12.32-13.5-13.5,12.32-12.32a9.69,9.69,0,0,1,13.5,0c3,3,4.23,9.31,0,13.5Zm-92.79,92.8-13.5-13.5L198.93,109l13.5,13.5ZM193.53,26.5a8.84,8.84,0,0,1,8.28,8.8v59l-8.28,8.27Zm-79.1,170.92a20.78,20.78,0,0,1,4.09-7.86l13.35,13.35c-3.13,3.56-16.27,6.3-21.09,7.74Z"/>
        <path class="cls-1" d="M89.87,74.11a4.16,4.16,0,0,0-5.89,0l-1.73,1.72A11,11,0,0,0,75,73.05H50.2a11.06,11.06,0,0,0-11.05,11v24.75A11.06,11.06,0,0,0,50.2,119.9H75a11.07,11.07,0,0,0,11-11.05V84.1c0-.07,0-.14,0-.21L89.87,80a4.17,4.17,0,0,0,0-5.9ZM77.66,108.85A2.71,2.71,0,0,1,75,111.56H50.2a2.71,2.71,0,0,1-2.71-2.71V84.1a2.71,2.71,0,0,1,2.71-2.71H75a2.72,2.72,0,0,1,1.36.38L63.7,94.39l-3-3a4.17,4.17,0,1,0-5.9,5.9l5.91,5.91a4.16,4.16,0,0,0,5.89,0l11-11Z"/>
      </g>
    </g>
  </g>
</svg>
