<svg xmlns="http://www.w3.org/2000/svg" viewBox="0 0 350 350">
  <g id="Layer_1" data-name="Layer 1">
    <g>
      <path d="M200.63,145.836a2.6525,2.6525,0,0,0-2.6516-2.6522H164.7679a2.6523,2.6523,0,0,0,0,5.3046h33.2106A2.6525,2.6525,0,0,0,200.63,145.836Z" style="fill: #3b3838"/>
      <path d="M123.0029,191.9176a7.0361,7.0361,0,0,0,7.0277,7.0275h15.7458a7.0339,7.0339,0,0,0,7.025-7.0275V176.2461l2.465-2.4653a2.6521,2.6521,0,0,0-3.7506-3.7507l-.9843.9849a6.9884,6.9884,0,0,0-4.7551-1.87H130.0306a7.0363,7.0363,0,0,0-7.0277,7.0275v15.7447Zm5.3031-15.7447a1.7265,1.7265,0,0,1,1.7246-1.7229h15.7458a1.7053,1.7053,0,0,1,.9959.3239l-8.1557,8.1553-1.88-1.88a2.6521,2.6521,0,1,0-3.7507,3.7507l3.7565,3.7555a2.6513,2.6513,0,0,0,3.7506,0l7.0049-7.0048v10.3669a1.7238,1.7238,0,0,1-1.7219,1.723H130.0306a1.7241,1.7241,0,0,1-1.7217-1.723V176.1729Z" style="fill: #3b3838"/>
      <path d="M164.7679,181.3917a2.6524,2.6524,0,0,0,0,5.3048h12.1329a2.6524,2.6524,0,1,0,0-5.3048Z" style="fill: #3b3838"/>
      <path d="M123.0029,230.1309a7.0361,7.0361,0,0,0,7.0277,7.0275h15.7458a7.0339,7.0339,0,0,0,7.025-7.0275V214.3865a7.0337,7.0337,0,0,0-7.025-7.0275H130.0306a7.0344,7.0344,0,0,0-7.0277,7.0275Zm5.3031-15.7447a1.7262,1.7262,0,0,1,1.7246-1.7229h15.7458a1.7239,1.7239,0,0,1,1.7219,1.7229v15.7444a1.724,1.724,0,0,1-1.7219,1.723H130.0306a1.7266,1.7266,0,0,1-1.7246-1.723Z" style="fill: #3b3838"/>
      <path d="M251.8966,146.5132a11.7212,11.7212,0,0,0-3.3374-8.048c-4.23-4.4841-12.4686-4.44-16.7875.6979V106.92A10.9323,10.9323,0,0,0,220.8526,96H195.6139V90.7884a6.3273,6.3273,0,0,0-6.319-6.3206H140.5824a6.33,6.33,0,0,0-6.3219,6.3206V96H109.0247a10.9329,10.9329,0,0,0-10.9219,10.92V254.6117a10.933,10.933,0,0,0,10.9219,10.92H220.8526a10.9324,10.9324,0,0,0,10.9191-10.92V184.045a2.6516,2.6516,0,1,0-5.3031,0v70.5667a5.6227,5.6227,0,0,1-5.616,5.616H109.0247a5.6226,5.6226,0,0,1-5.6159-5.616V106.92a5.6225,5.6225,0,0,1,5.6159-5.6158h15.6081v5.53c-.155,6.4592,6.3046,12.3543,13.1517,11.0179l24.47-4.3535a15.1383,15.1383,0,0,1,5.3146-.0006l24.5242,4.357c6.141,1.3677,13.4012-4.1538,13.1517-11.0183v-5.5324h10.6579v53.7312l-44.3277,44.3286a20.0347,20.0347,0,0,0-5.8,9.2673l-3.5641,12.92c-.0976,1.1286-.0173,3.7412,3.2628,3.2619l12.9163-3.5615a20.3533,20.3533,0,0,0,9.2719-5.7942L215.9,187.2157v61.7732a.6683.6683,0,0,1-.6687.6683H114.6464a.67.67,0,0,1-.6687-.6683V111.1621a2.6516,2.6516,0,1,0-5.3031,0V248.9889a5.978,5.978,0,0,0,5.9718,5.9729H215.2338a5.98,5.98,0,0,0,5.9718-5.9729V181.9108l27.3565-27.3551h0a11.8743,11.8743,0,0,0,3.3345-8.0425Zm-112.33-55.7248a1.0175,1.0175,0,0,1,1.0159-1.016h48.7125a1.0175,1.0175,0,0,1,1.0159,1.016V96H139.5665Zm60.372,16.0482a6.0042,6.0042,0,0,1-6.9159,5.7956l-24.5242-4.3573a20.447,20.447,0,0,0-7.1741.0006l-24.47,4.3541a6.0035,6.0035,0,0,1-6.9159-5.7951v-5.5292h70Zm44.87,43.9668-7.8342,7.8364-8.5889-8.5874,7.837-7.8368a6.0719,6.0719,0,0,1,8.5861,8.5878Zm-59.0233,59.0278-8.586-8.5875,47.4355-47.44,8.589,8.5874Zm35.42-108.5085a5.6182,5.6182,0,0,1,5.263,5.5981v37.5469l-5.263,5.2635ZM170.8889,210.0418a13.3156,13.3156,0,0,1,2.6056-5l8.4885,8.49c-1.9887,2.2688-10.3509,4.0107-13.4156,4.9264Z" style="fill: #3b3838"/>
      <path d="M155.2664,131.6079a2.6513,2.6513,0,0,0-3.7506,0l-1.0933,1.0953a7.0015,7.0015,0,0,0-4.6461-1.7691H130.0306a7.0344,7.0344,0,0,0-7.0277,7.0275v15.745a7.0365,7.0365,0,0,0,7.0277,7.0275h15.7458a7.0341,7.0341,0,0,0,7.025-7.0275v-15.745c0-.0442-.0057-.0872-.0057-.1311l2.4707-2.472a2.6515,2.6515,0,0,0,0-3.7506Zm-7.7681,22.0987a1.7241,1.7241,0,0,1-1.7219,1.7229H130.0306a1.7266,1.7266,0,0,1-1.7246-1.7229v-15.745a1.7264,1.7264,0,0,1,1.7246-1.7229h15.7458a1.7041,1.7041,0,0,1,.8667.243l-8.0265,8.025-1.88-1.88a2.6521,2.6521,0,0,0-3.7507,3.7507l3.7565,3.7558a2.652,2.652,0,0,0,3.7506,0l7.0049-7.0049Z" style="fill: #3b3838"/>
    </g>
  </g>
</svg>
