<svg xmlns="http://www.w3.org/2000/svg" viewBox="0 0 350 350">
  <g id="Layer_1" data-name="Layer 1">
    <g>
      <path d="M264.0582,136.6562a15.4921,15.4921,0,0,0-8.8848,2.7756v-6.2612a17.4487,17.4487,0,0,0-17.4289-17.4292H112.2558a17.4487,17.4487,0,0,0-17.429,17.4292v6.2612a15.5377,15.5377,0,0,0-24.4006,12.74v.0775a15.4951,15.4951,0,0,0,.7063,4.6278l13.8239,44.2363a17.3481,17.3481,0,0,0,16.2143,12.2218L98.36,230.2a3.4864,3.4864,0,0,0,3.4383,4.0588H108.77a3.4873,3.4873,0,0,0,2.9-1.5522l12.9082-19.3626h100.843L238.33,232.7064a3.4862,3.4862,0,0,0,2.9,1.5522h6.9716A3.4859,3.4859,0,0,0,251.64,230.2l-2.8107-16.8646a17.3489,17.3489,0,0,0,16.2146-12.2218l13.8237-44.2363a15.4918,15.4918,0,0,0,.7062-4.6278v-.0775a15.5332,15.5332,0,0,0-15.5156-15.5156ZM112.2558,122.713H237.7445a10.47,10.47,0,0,1,10.4573,10.4576v17.7759l-6.0144,19.5466a13.9339,13.9339,0,0,0-11.4144-5.9505H185.4574A13.9093,13.9093,0,0,0,175,169.2779a13.911,13.911,0,0,0-10.4576-4.7353H119.2274a13.9339,13.9339,0,0,0-11.4148,5.9505l-6.0143-19.5466V133.1706a10.47,10.47,0,0,1,10.4575-10.4576Zm59.2584,59.2584H112.2558v-3.4856a6.98,6.98,0,0,1,6.9716-6.9716h45.3152a6.98,6.98,0,0,1,6.9716,6.9716Zm66.23,0H178.4858v-3.4856a6.98,6.98,0,0,1,6.9716-6.9716H230.773a6.98,6.98,0,0,1,6.9715,6.9716Zm-130.84,45.3156h-.9914l2.3238-13.9432H116.2Zm136.191,0L233.8,213.3438h7.963l2.3235,13.9432Zm29.5065-75.0377a8.5289,8.5289,0,0,1-.3888,2.5483L258.39,199.0339a10.4124,10.4124,0,0,1-9.9812,7.3383H101.5918a10.4124,10.4124,0,0,1-9.9813-7.3383L77.7867,154.7976a8.5354,8.5354,0,0,1-.3889-2.5483v-.0775a8.5441,8.5441,0,0,1,16.71-2.5129l11.33,36.8234a3.4845,3.4845,0,0,0,3.3313,2.4607H241.23a3.4848,3.4848,0,0,0,3.3317-2.4607l11.33-36.8234a8.5441,8.5441,0,0,1,16.71,2.5129Z" style="fill: #3b3838"/>
      <path d="M129.6827,140.1428h-6.9716v6.9716h6.9716Z" style="fill: #3b3838"/>
      <path d="M154.0838,140.1428h-6.9716v6.9716h6.9716Z" style="fill: #3b3838"/>
      <path d="M178.4852,140.1428h-6.9716v6.9716h6.9716Z" style="fill: #3b3838"/>
      <path d="M202.8862,140.1428h-6.9716v6.9716h6.9716Z" style="fill: #3b3838"/>
      <path d="M227.2876,140.1428H220.316v6.9716h6.9716Z" style="fill: #3b3838"/>
    </g>
  </g>
</svg>
