<svg xmlns="http://www.w3.org/2000/svg" viewBox="0 0 298.48 169.14">
  <defs>
    <style>
      .cls-1 {
        fill: #3b3838;
      }
    </style>
  </defs>
  <g id="Layer_2" data-name="Layer 2">
    <g id="Layer_1-2" data-name="Layer 1">
      <g>
        <path class="cls-1" d="M276.33,29.85a22.11,22.11,0,0,0-12.68,4V24.87A24.89,24.89,0,0,0,238.78,0H59.7A24.91,24.91,0,0,0,34.82,24.87v8.94A22.18,22.18,0,0,0,0,52v.11a22,22,0,0,0,1,6.6l19.73,63.13a24.77,24.77,0,0,0,23.14,17.45l-4,24.06a5,5,0,0,0,.12,2.14,4.9,4.9,0,0,0,1,1.9,4.8,4.8,0,0,0,1.7,1.29,4.91,4.91,0,0,0,2.09.47h9.95a5,5,0,0,0,4.14-2.22l18.42-27.63H221.19l18.43,27.63a5,5,0,0,0,4.14,2.22h9.94a4.92,4.92,0,0,0,2.1-.47,5,5,0,0,0,1.7-1.29,4.9,4.9,0,0,0,1-1.9,5,5,0,0,0,.11-2.14l-4-24.06a24.77,24.77,0,0,0,23.14-17.45L297.47,58.7a22,22,0,0,0,1-6.6V52a22.18,22.18,0,0,0-22.15-22.14ZM59.7,10H238.78A14.94,14.94,0,0,1,253.7,24.87V50.24l-8.58,27.9a19.9,19.9,0,0,0-16.29-8.5H164.16a19.86,19.86,0,0,0-14.92,6.76,19.86,19.86,0,0,0-14.93-6.76H69.64a19.94,19.94,0,0,0-16.29,8.5l-8.58-27.9V24.87A15,15,0,0,1,59.7,10Zm84.56,84.57H59.7v-5a10,10,0,0,1,9.94-10h64.67a10,10,0,0,1,9.95,10Zm94.52,0H154.21v-5a10,10,0,0,1,9.95-10h64.67a10,10,0,0,1,9.95,10ZM52.06,159.19H50.64L54,139.29H65.32Zm194.36,0-13.27-19.9h11.37l3.31,19.9ZM288.53,52.1a12.18,12.18,0,0,1-.56,3.64l-19.73,63.13A14.86,14.86,0,0,1,254,129.34H44.48a14.88,14.88,0,0,1-14.25-10.47L10.5,55.74A12.5,12.5,0,0,1,10,52.1V52A12.2,12.2,0,0,1,33.8,48.4L50,101a5,5,0,0,0,4.75,3.52h189a5,5,0,0,0,4.75-3.52L264.68,48.4A12.2,12.2,0,0,1,288.53,52Z"/>
        <path class="cls-1" d="M84.57,34.82H74.62v10h9.95Z"/>
        <path class="cls-1" d="M119.39,34.82h-10v10h10Z"/>
        <path class="cls-1" d="M154.21,34.82h-10v10h10Z"/>
        <path class="cls-1" d="M189,34.82h-9.95v10H189Z"/>
        <path class="cls-1" d="M223.86,34.82h-10v10h10Z"/>
      </g>
    </g>
  </g>
</svg>
