<svg width="136" height="31" viewBox="0 0 136 31" fill="none" xmlns="http://www.w3.org/2000/svg">
<path d="M99.0209 0.0386508C98.9842 0.0472096 98.9505 0.0644742 98.9231 0.0887533C98.8957 0.113032 98.8756 0.143494 98.8647 0.177155C98.8071 1.26432 98.814 2.35361 98.8855 3.44006C98.9411 3.53991 99.0348 3.54313 101.804 3.54313H104.666V9.98519V16.4273H109.351V9.98519V3.54313H112.095C113.601 3.54313 114.871 3.54313 114.93 3.51092C114.989 3.47871 115.021 3.28867 115.017 1.73935V0H107.054C102.675 0 99.0348 0.0193257 98.9654 0.0322098L99.0209 0.0386508ZM0.315949 0.180377C0.298599 0.225471 0.28125 3.91033 0.28125 8.36502V16.4691H5.02461V0.106292H2.68936C0.607419 0.106292 0.347178 0.106293 0.315949 0.193261V0.180377ZM9.94147 8.29415V16.482H14.1054V11.1931C14.1054 6.52903 14.1054 5.90415 14.1921 5.90415C14.2788 5.90415 14.2788 5.95568 14.2788 6.04265C14.2788 6.12962 14.3031 6.16505 14.3344 6.14572C14.3656 6.1264 14.3934 6.14572 14.3934 6.21981C14.3982 6.28578 14.4249 6.34876 14.4697 6.40019C14.4924 6.42115 14.51 6.44636 14.5213 6.47413C14.5327 6.50189 14.5376 6.53159 14.5356 6.56124C14.5311 6.58462 14.5351 6.60876 14.547 6.62978C14.559 6.6508 14.5782 6.66749 14.6016 6.67719C14.6248 6.68644 14.6446 6.70168 14.6588 6.72109C14.6729 6.7405 14.6807 6.76328 14.6814 6.78671C14.8973 7.28202 15.1646 7.75668 15.4794 8.20396C15.4986 8.22149 15.5135 8.24264 15.5231 8.26599C15.5327 8.28933 15.5367 8.31432 15.535 8.33925C15.5295 8.35925 15.5292 8.38015 15.534 8.40029C15.5388 8.42042 15.5486 8.43923 15.5627 8.4552L15.7536 8.67101C15.823 8.73904 15.8731 8.82207 15.8993 8.91259C15.9099 8.97836 15.9386 9.04049 15.9826 9.09297C16.0311 9.15095 16.052 9.21537 16.0346 9.24113C16.0173 9.2669 16.0346 9.28623 16.0971 9.28623C16.1232 9.28868 16.1472 9.30049 16.164 9.31914C16.1809 9.33779 16.1892 9.36181 16.1873 9.38608C16.2027 9.46729 16.2437 9.54241 16.3053 9.60189C16.3703 9.66292 16.4149 9.74011 16.4337 9.82414C16.4337 9.88534 16.4753 9.93043 16.5169 9.93043C16.5363 9.93043 16.5548 9.93756 16.5685 9.95025C16.5821 9.96293 16.5898 9.98014 16.5898 9.99808C16.6465 10.2161 16.7665 10.4155 16.9368 10.5746C16.9784 10.5746 17.0097 10.623 17.0097 10.6842C17.0097 10.7454 17.0374 10.7905 17.0687 10.7905C17.0999 10.7905 17.1242 10.8517 17.1242 10.9257C17.1242 10.9998 17.1519 11.0578 17.1832 11.0578C17.1991 11.0586 17.2141 11.0651 17.2251 11.0759C17.2361 11.0867 17.2422 11.1009 17.2421 11.1158C17.2732 11.2018 17.3215 11.2815 17.3844 11.3509C17.4505 11.4212 17.5001 11.5035 17.5301 11.5925C17.5416 11.6482 17.572 11.699 17.6169 11.7374C17.6655 11.7825 17.6898 11.8405 17.6724 11.8695C17.6551 11.8985 17.6724 11.9178 17.7279 11.9178C17.7835 11.9178 17.8181 11.9661 17.8181 12.0595C17.8181 12.1529 17.8181 12.1884 17.8563 12.1691C17.8945 12.1497 18.0506 12.3752 18.0506 12.4912C18.0502 12.5007 18.0518 12.5103 18.0554 12.5193C18.059 12.5282 18.0646 12.5364 18.0717 12.5434C18.0789 12.5503 18.0874 12.5558 18.0969 12.5596C18.1064 12.5633 18.1166 12.5652 18.127 12.5652C18.1998 12.5652 18.3768 12.9228 18.349 13.013C18.349 13.0355 18.349 13.0419 18.3976 13.013C18.4462 12.984 18.4601 13.013 18.4636 13.0355C18.467 13.0581 18.4636 13.1096 18.4636 13.1321C18.4965 13.2041 18.5384 13.2722 18.5885 13.3351C18.674 13.4552 18.7516 13.5799 18.821 13.7087C18.8614 13.7932 18.9102 13.8741 18.9667 13.9503C19.0122 14.0141 19.0506 14.0821 19.0812 14.1532C19.1263 14.2498 19.1957 14.3271 19.2373 14.3271C19.279 14.3271 19.3102 14.3883 19.3102 14.4656C19.3102 14.543 19.3345 14.588 19.3657 14.5687C19.397 14.5494 19.4247 14.5687 19.4247 14.6138C19.4599 14.7713 19.5458 14.9151 19.6711 15.0261C19.6954 15.0261 19.7127 15.0615 19.7127 15.1066C19.7127 15.1517 19.7405 15.1872 19.7717 15.1872C19.8029 15.1872 19.8307 15.2451 19.8307 15.3192C19.8307 15.3933 19.855 15.4545 19.8862 15.4545C19.9174 15.4545 19.9452 15.5028 19.9452 15.564C19.9447 15.5923 19.9524 15.6201 19.9677 15.6445C19.983 15.6689 20.0052 15.689 20.0319 15.7025C20.0557 15.7118 20.0764 15.7268 20.0917 15.7461C20.1069 15.7654 20.1163 15.7882 20.1187 15.812C20.1367 15.8851 20.1764 15.952 20.2332 16.0053C20.2955 16.0617 20.3368 16.135 20.3512 16.2147C20.3497 16.2265 20.3508 16.2385 20.3544 16.25C20.358 16.2614 20.364 16.2721 20.3721 16.2814C20.3802 16.2907 20.3901 16.2984 20.4014 16.3041C20.4127 16.3098 20.4251 16.3133 20.4379 16.3145C20.4609 16.3145 20.483 16.323 20.4993 16.3381C20.5155 16.3532 20.5247 16.3737 20.5247 16.395C20.5247 16.4659 20.8717 16.4756 23.1549 16.4756H25.7851V8.30059V0.128839H23.7031H21.6038V5.33403C21.6038 8.20074 21.6038 10.5585 21.5761 10.5746C21.5483 10.5907 21.4824 10.5553 21.472 10.4329C21.472 10.3749 21.4373 10.3298 21.4026 10.3331C21.3679 10.3363 21.3436 10.3073 21.3436 10.2622C21.3416 10.2381 21.3341 10.2147 21.3216 10.1936C21.309 10.1725 21.2916 10.1541 21.2707 10.1398C21.248 10.1241 21.2295 10.1037 21.2169 10.0802C21.2042 10.0567 21.1977 10.0308 21.1978 10.0045C21.1984 9.95217 21.18 9.90116 21.1458 9.85957C21.1067 9.81274 21.0816 9.7572 21.0729 9.69852C21.0647 9.64552 21.0393 9.59609 21.0001 9.5568C20.9603 9.52084 20.9356 9.47285 20.9307 9.42151C20.9278 9.39819 20.9195 9.37572 20.9063 9.35569C20.8931 9.33566 20.8754 9.31855 20.8543 9.30556C20.8196 9.30556 20.7919 9.24436 20.7919 9.1896C20.7919 9.13484 20.771 9.0833 20.7398 9.07364C20.7086 9.06398 20.6808 9.006 20.6669 8.94802C20.6466 8.87034 20.6061 8.79846 20.549 8.73865C20.4935 8.6839 20.4622 8.61626 20.4796 8.59049C20.4969 8.56472 20.4796 8.54539 20.4553 8.54539C20.431 8.54539 20.3685 8.46809 20.3269 8.3779C20.2745 8.26772 20.2043 8.16561 20.1187 8.07512C20.0658 8.03189 20.0252 7.97726 20.0004 7.91604C19.9756 7.85483 19.9674 7.78889 19.9764 7.72403C19.9764 7.69826 19.9764 7.69182 19.9348 7.72403C19.8932 7.75624 19.8654 7.69504 19.8446 7.62096C19.8238 7.54687 19.7821 7.4889 19.7509 7.4889C19.7197 7.4889 19.6954 7.45024 19.6954 7.40837C19.6954 7.3665 19.6745 7.32784 19.6468 7.32784C19.5406 7.19836 19.4735 7.04492 19.4525 6.88334C19.4525 6.86079 19.4247 6.84469 19.3761 6.84469C19.3276 6.84469 19.2894 6.79637 19.2894 6.73517C19.2772 6.65085 19.2372 6.57209 19.1749 6.5097C19.1129 6.45181 19.0717 6.37756 19.0569 6.29711C19.0583 6.28543 19.0572 6.2736 19.0536 6.26234C19.05 6.25107 19.0439 6.24061 19.0358 6.23158C19.0277 6.22254 19.0177 6.21513 19.0064 6.20979C18.9951 6.20444 18.9828 6.20128 18.9702 6.20048C18.9181 6.20048 18.8834 6.14895 18.8834 6.06198C18.8834 5.97501 18.8591 5.93958 18.8279 5.95891C18.7967 5.97823 18.7689 5.93958 18.7689 5.87838C18.7689 5.81718 18.7446 5.77853 18.7099 5.79785C18.6752 5.81718 18.6544 5.77209 18.6544 5.69156C18.6544 5.61103 18.6197 5.55628 18.5676 5.55628C18.5156 5.55628 18.4809 5.50474 18.4809 5.42099C18.4809 5.33725 18.4601 5.28571 18.4323 5.28571C18.4046 5.28571 18.3421 5.18264 18.2831 5.05379C18.2395 4.93302 18.1672 4.82292 18.0715 4.73169C18.0395 4.70844 18.013 4.67924 17.9939 4.64596C17.9748 4.61268 17.9634 4.57605 17.9604 4.53843C17.9604 4.47401 17.9327 4.41281 17.898 4.40315C17.8757 4.38882 17.857 4.37017 17.8432 4.34848C17.8294 4.32679 17.8209 4.30258 17.8181 4.27753C17.8181 4.21955 17.7696 4.17768 17.7349 4.18412C17.7002 4.19056 17.6689 4.14869 17.6689 4.08749C17.6568 4.00316 17.6168 3.9244 17.5544 3.86201C17.4939 3.80358 17.454 3.72943 17.4399 3.64943C17.441 3.62618 17.4327 3.6034 17.4167 3.58553C17.4007 3.56765 17.378 3.55598 17.3532 3.5528C17.2977 3.5528 17.2664 3.50126 17.2664 3.41751C17.2664 3.33377 17.2456 3.28545 17.2213 3.28545C17.197 3.28545 17.145 3.23391 17.0999 3.17271C17.0548 3.11151 17.0374 3.0632 17.0999 3.09541C17.1623 3.12762 17.1242 3.09541 17.0617 3.04709C16.9993 2.99878 16.975 2.96013 17.0062 2.96013C17.0374 2.96013 17.0062 2.93436 16.9576 2.90537C16.9283 2.88704 16.904 2.86268 16.8866 2.83418C16.8691 2.80568 16.859 2.77382 16.857 2.7411C16.857 2.68312 16.8327 2.64769 16.798 2.66701C16.7633 2.68634 16.7425 2.64124 16.7425 2.56394C16.7425 2.48663 16.7078 2.42544 16.6523 2.42544C16.5967 2.42544 16.5655 2.39645 16.5725 2.35779C16.5725 2.23217 16.5725 2.13876 16.5273 2.17741C16.4822 2.21607 16.4406 2.11622 16.3816 1.99704C16.3226 1.87786 16.2463 1.78123 16.2116 1.78123C16.1769 1.78123 16.1665 1.7458 16.1838 1.7007C16.1912 1.67552 16.1915 1.64902 16.1848 1.62367C16.1781 1.59833 16.1647 1.57496 16.1457 1.55576C16.0757 1.47268 16.0152 1.38308 15.9652 1.28841C15.9028 1.1789 15.8368 1.09837 15.816 1.11125C15.7952 1.12414 15.7778 1.07904 15.7744 1.01784C15.7716 0.965523 15.7523 0.915122 15.7189 0.872899C15.6321 0.81492 15.4725 0.508923 15.5107 0.473492C15.5488 0.43806 15.5107 0.43806 15.4482 0.43806C15.3857 0.43806 15.3545 0.396186 15.3545 0.309219C15.3545 0.115957 15.3545 0.115957 12.5786 0.115957H9.9831V8.29415H9.94147ZM31.0142 0.141724C30.917 0.231913 30.9726 16.4144 31.0662 16.4498C31.1599 16.4852 32.1836 16.482 33.4362 16.482H35.7159V9.93043H42.2532V16.482H44.6093H46.9654V0.135283H44.6093H42.2532V6.44206H35.6743V0.106292H33.3425C32.0586 0.106292 30.9934 0.106292 30.9726 0.141724H31.0142ZM56.119 0.141724C56.0732 0.200281 56.0456 0.269346 56.0392 0.341428C56.0336 0.419181 55.9978 0.49242 55.9385 0.547574C55.9089 0.578511 55.8866 0.614803 55.8728 0.654164C55.8591 0.693524 55.8543 0.735098 55.8587 0.776267C55.8587 0.889003 55.8344 0.953423 55.7997 0.934097C55.765 0.914771 55.7442 0.975972 55.7442 1.09193C55.7442 1.20789 55.7165 1.28197 55.6852 1.28197C55.654 1.28197 55.6262 1.36572 55.6262 1.46879C55.6262 1.57186 55.6019 1.65883 55.5395 1.65883C55.477 1.65883 55.4527 1.71359 55.4527 1.84565C55.4527 1.97771 55.4285 2.03247 55.3972 2.03247C55.366 2.03247 55.3382 2.09367 55.3382 2.16775C55.3382 2.24184 55.3139 2.30303 55.2792 2.30303C55.2445 2.30303 55.2237 2.37068 55.2237 2.45765C55.2253 2.53815 55.1944 2.6163 55.137 2.67668C55.0823 2.72827 55.0512 2.79753 55.0502 2.86994C55.0538 2.92771 55.0326 2.98446 54.9912 3.02777C54.9465 3.08193 54.9254 3.14982 54.9323 3.21781C54.9323 3.30478 54.908 3.37564 54.8767 3.37564C54.8455 3.37564 54.8177 3.46261 54.8177 3.56568C54.8177 3.66875 54.7865 3.76538 54.731 3.78471C54.6755 3.80404 54.6443 3.88778 54.6443 4.00052C54.6443 4.11326 54.62 4.17445 54.5853 4.15513C54.5506 4.1358 54.5298 4.1809 54.5298 4.2582C54.5282 4.33854 54.5081 4.41763 54.4708 4.49011C54.3937 4.62588 54.3342 4.7697 54.2938 4.91851C54.273 4.99052 54.2451 5.0606 54.2105 5.12788C54.1632 5.23023 54.1339 5.33899 54.1238 5.44998C54.1238 5.52407 54.0995 5.56594 54.0648 5.54661C54.0301 5.52729 54.0058 5.54661 54.0023 5.61103C53.985 5.88482 53.9746 5.93314 53.919 5.91381C53.8635 5.89449 53.8531 5.97823 53.8462 6.07164C53.8444 6.15211 53.8205 6.23082 53.7768 6.30033C53.7389 6.35975 53.7197 6.4278 53.7213 6.49682C53.725 6.53117 53.7185 6.56581 53.7026 6.59702C53.6868 6.62823 53.662 6.65484 53.631 6.67397C53.5825 6.6933 53.5582 6.73195 53.579 6.76416C53.5998 6.79637 53.579 6.8769 53.5235 6.94776C53.4747 7.02 53.4439 7.10143 53.4333 7.18612C53.4351 7.21182 53.4307 7.23757 53.4205 7.26153C53.4103 7.28548 53.3945 7.30703 53.3743 7.32462C53.3299 7.391 53.3104 7.46913 53.3187 7.54687C53.3187 7.65639 53.2945 7.72081 53.2598 7.70148C53.2251 7.68216 53.1973 7.70148 53.1938 7.72403C53.1904 7.74658 53.1938 7.83032 53.173 7.8883C53.1522 7.94628 53.1557 8.02037 53.1522 8.05258C53.1487 8.08479 53.1175 8.09445 53.0863 8.07512C53.055 8.0558 53.0273 8.12022 53.0273 8.23295C53.0273 8.34569 53.003 8.42621 52.9718 8.42621C52.9405 8.42621 52.9128 8.50996 52.9128 8.61303C52.9128 8.71611 52.8885 8.79985 52.8607 8.79985C52.833 8.79985 52.7879 8.87716 52.767 8.97379C52.7258 9.13906 52.658 9.2976 52.5658 9.44406C52.5295 9.52029 52.5094 9.60233 52.5068 9.68564C52.5068 9.75972 52.479 9.82092 52.4478 9.82092C52.4166 9.82092 52.3992 9.84347 52.42 9.87246C52.4243 9.87962 52.4269 9.8875 52.4278 9.89563C52.4286 9.90375 52.4278 9.91196 52.4252 9.91976C52.4226 9.92757 52.4184 9.93481 52.4127 9.94107C52.4071 9.94733 52.4001 9.95247 52.3923 9.9562C52.371 9.97911 52.3548 10.0057 52.3447 10.0345C52.3346 10.0632 52.3307 10.0935 52.3333 10.1237C52.3333 10.1978 52.309 10.2429 52.2778 10.2235C52.2465 10.2042 52.2188 10.2654 52.2188 10.3782C52.2188 10.4909 52.1945 10.5811 52.1598 10.6004C52.1251 10.6197 52.1043 10.7035 52.1043 10.7905C52.1043 10.8774 52.0731 10.9483 52.028 10.9483C51.9828 10.9483 51.9481 11.0224 51.9412 11.1222C51.9376 11.2018 51.9125 11.2794 51.8683 11.3477C51.8329 11.3986 51.8136 11.4578 51.8128 11.5184C51.8152 11.5463 51.8115 11.5744 51.8019 11.6009C51.7924 11.6275 51.7772 11.652 51.7573 11.673C51.7373 11.6915 51.7217 11.7136 51.7116 11.7381C51.7014 11.7625 51.6969 11.7886 51.6983 11.8147C51.694 11.8846 51.6633 11.9507 51.6116 12.0016C51.5576 12.0613 51.527 12.1362 51.5248 12.2141C51.5248 12.285 51.504 12.343 51.4797 12.343C51.4554 12.343 51.4277 12.4235 51.4207 12.5169C51.4171 12.5966 51.3921 12.6741 51.3478 12.7424C51.3091 12.8038 51.2898 12.8742 51.2923 12.9453C51.2923 13.042 51.2646 13.0967 51.2056 13.0967C51.1466 13.0967 51.1188 13.1515 51.1188 13.2835C51.1188 13.4156 51.0945 13.4703 51.0633 13.4703C51.0321 13.4703 51.0043 13.5573 51.0043 13.6604C51.0043 13.7635 50.98 13.8472 50.9453 13.8472C50.9106 13.8472 50.8863 13.902 50.8863 13.9696C50.8812 14.0499 50.8511 14.1271 50.7996 14.1919C50.75 14.2609 50.7212 14.3409 50.7163 14.4238C50.7163 14.4946 50.6886 14.5365 50.6573 14.5172C50.6261 14.4979 50.5983 14.5623 50.5983 14.675C50.5983 14.7877 50.5741 14.8683 50.5428 14.8683C50.5116 14.8683 50.4838 14.9359 50.4838 15.0229C50.4877 15.0583 50.4817 15.094 50.4665 15.1267C50.4514 15.1594 50.4275 15.188 50.3971 15.2097C50.3485 15.2097 50.3103 15.3063 50.3103 15.3997C50.3181 15.4688 50.297 15.538 50.2514 15.593C50.2201 15.593 50.1958 15.709 50.1958 15.812C50.1958 15.9151 50.1715 15.9892 50.1438 15.9731C50.116 15.957 50.0189 16.1889 50.0432 16.3467C50.0605 16.4466 50.1403 16.4498 52.42 16.4659C55.0121 16.4659 54.9357 16.4885 54.9357 16.1438C54.9357 16.0278 54.9635 15.9344 54.9947 15.9344C55.0259 15.9344 55.0537 15.8604 55.0537 15.7702C55.0508 15.6832 55.0802 15.5979 55.137 15.5286C55.1606 15.5032 55.1781 15.4733 55.1883 15.4411C55.1985 15.4089 55.2011 15.375 55.196 15.3418C55.1875 15.3151 55.189 15.2865 55.2004 15.2607C55.2117 15.235 55.2322 15.2135 55.2584 15.2C55.307 15.2 55.3417 15.1002 55.3417 14.9907C55.3417 14.8812 55.3625 14.8071 55.3868 14.8071C55.4111 14.8071 55.4389 14.7169 55.4493 14.6074C55.452 14.5076 55.4819 14.4101 55.536 14.3239C55.5816 14.2638 55.6036 14.1911 55.5985 14.1178C55.5985 14.0501 55.6228 13.9793 55.6679 13.9664C55.713 13.9535 55.7477 13.8601 55.7477 13.7538C55.7477 13.6475 55.772 13.5734 55.8032 13.5734C55.8344 13.5734 55.8622 13.4865 55.8622 13.3834C55.8622 13.2803 55.8899 13.1966 55.9212 13.1966C55.9524 13.1966 55.9767 13.1418 55.9802 13.0774C55.9802 12.81 55.8865 12.8197 58.9608 12.8326H61.8478V12.9646C61.8433 12.9972 61.8473 13.0302 61.8594 13.061C61.8715 13.0918 61.8913 13.1195 61.9172 13.1418C61.9457 13.1676 61.9679 13.1988 61.9822 13.2332C61.9966 13.2677 62.0028 13.3046 62.0005 13.3415C62.0005 13.4253 62.0247 13.5122 62.056 13.5283C62.0872 13.5444 62.115 13.6572 62.115 13.7763C62.115 13.8955 62.1462 13.9986 62.2017 14.0211C62.2572 14.0437 62.278 14.092 62.2538 14.1693C62.2439 14.203 62.2441 14.2385 62.2545 14.272C62.2649 14.3055 62.2851 14.3358 62.3127 14.3594C62.3754 14.4298 62.4076 14.5193 62.403 14.6106C62.403 14.7104 62.4307 14.791 62.462 14.791C62.4932 14.791 62.5209 14.8844 62.5209 15.0003C62.5127 15.0969 62.5423 15.1929 62.6042 15.2709C62.6263 15.2877 62.6429 15.3098 62.6521 15.3349C62.6613 15.3599 62.6627 15.3869 62.6563 15.4126C62.6505 15.4494 62.6527 15.4869 62.6628 15.5229C62.673 15.5589 62.6908 15.5926 62.7153 15.622C62.7723 15.7109 62.8045 15.8117 62.8089 15.9151C62.8089 16.0053 62.8367 16.0794 62.8679 16.0794C62.8992 16.0794 62.9234 16.1631 62.9234 16.2662V16.4562H67.9548V16.2887C67.9561 16.2005 67.9256 16.1143 67.8681 16.044C67.8143 15.9841 67.7838 15.9092 67.7813 15.8314C67.7813 15.7541 67.757 15.7122 67.7258 15.7315C67.6946 15.7508 67.6668 15.709 67.6668 15.6413C67.653 15.435 67.5746 15.2368 67.4413 15.0712C67.4066 15.0712 67.3788 14.9681 67.3788 14.8683C67.3788 14.7684 67.3511 14.6847 67.3198 14.6847C67.2886 14.6847 67.2608 14.6138 67.2608 14.5268C67.2676 14.4584 67.2479 14.3899 67.2053 14.3336C67.1842 14.3126 67.168 14.2876 67.1578 14.2605C67.1477 14.2333 67.1437 14.2044 67.1463 14.1758C67.1452 14.1043 67.1141 14.0361 67.0596 13.9857C66.999 13.9144 66.9682 13.8252 66.9728 13.7345C66.9728 13.625 66.9485 13.5638 66.9138 13.5831C66.8791 13.6024 66.8583 13.5509 66.8583 13.4575C66.8552 13.3459 66.8268 13.2361 66.775 13.1354C66.7344 13.0793 66.7138 13.0128 66.7161 12.9453C66.7161 12.926 66.716 12.8777 66.6536 12.8422C66.6003 12.7911 66.5693 12.7234 66.5668 12.6522C66.5699 12.6238 66.5665 12.595 66.557 12.5679C66.5474 12.5407 66.5319 12.5157 66.5113 12.4944C66.4906 12.4724 66.4747 12.4469 66.4646 12.4193C66.4545 12.3917 66.4503 12.3625 66.4523 12.3333C66.4523 12.2625 66.428 12.1884 66.3933 12.1723C66.3509 12.1184 66.3312 12.0519 66.3378 11.9855C66.3411 11.9506 66.3348 11.9155 66.3197 11.8834C66.3045 11.8513 66.2809 11.8233 66.2511 11.8019C66.199 11.8019 66.1643 11.7052 66.1643 11.6118C66.1704 11.5429 66.1495 11.4743 66.1054 11.4186C66.0579 11.3545 66.0369 11.2767 66.0464 11.1995C66.0464 11.0868 66.0256 11.0256 65.9909 11.0449C65.9562 11.0642 65.9319 11.0095 65.9319 10.9193C65.9363 10.8834 65.9307 10.847 65.9155 10.8137C65.9003 10.7804 65.876 10.7513 65.8451 10.7293C65.7896 10.7099 65.7584 10.6294 65.7584 10.5134C65.7584 10.3975 65.7341 10.3105 65.6994 10.2912C65.6786 10.2687 65.663 10.2426 65.6535 10.2143C65.644 10.1861 65.6407 10.1564 65.6439 10.1269C65.6439 10.0561 65.6161 9.99808 65.5849 9.99808C65.5536 9.99808 65.5259 9.93688 65.5259 9.86601C65.5249 9.78883 65.4941 9.71453 65.4391 9.65665C65.3831 9.58435 65.3528 9.49766 65.3524 9.40863C65.3524 9.30878 65.3281 9.25402 65.2969 9.27335C65.2656 9.29267 65.2379 9.24113 65.2379 9.15095C65.242 9.07964 65.2227 9.00885 65.1824 8.94802C65.1118 8.819 65.0727 8.67714 65.0679 8.53251C65.0679 8.50674 65.0401 8.50352 65.0054 8.53251C64.9707 8.5615 64.9499 8.49063 64.9499 8.3779C64.9593 8.30067 64.9384 8.22288 64.8909 8.15887C64.8483 8.11242 64.827 8.05224 64.8319 7.99138C64.8319 7.91407 64.8076 7.8722 64.7764 7.8883C64.7452 7.90441 64.7139 7.86576 64.7139 7.79811C64.7139 7.58553 64.6688 7.47601 64.6064 7.4438C64.5439 7.41159 64.5439 7.36649 64.5439 7.29563C64.5439 7.22477 64.5196 7.16357 64.4849 7.16357C64.4502 7.16357 64.4294 7.09271 64.4294 7.00574C64.4356 6.93781 64.4146 6.87015 64.3704 6.8157C64.3269 6.76465 64.3058 6.70021 64.3114 6.63532C64.3144 6.56075 64.2913 6.48728 64.2455 6.42595C64.1176 6.24234 64.0413 6.03195 64.0234 5.81396C64.0261 5.77982 64.0188 5.74564 64.0023 5.71502C63.9859 5.68441 63.9608 5.65849 63.9297 5.64002C63.9072 5.63332 63.8883 5.61897 63.8767 5.59986C63.8651 5.58074 63.8618 5.55827 63.8673 5.53695C63.8713 5.50671 63.8687 5.47603 63.8598 5.44672C63.8509 5.4174 63.8357 5.39004 63.8152 5.36624C63.7646 5.29191 63.737 5.20611 63.7354 5.11822C63.7414 5.05529 63.723 4.99243 63.6834 4.94106C63.6369 4.88471 63.607 4.81811 63.5966 4.7478C63.5966 4.65439 63.5411 4.59319 63.5168 4.60607C63.4925 4.61896 63.4717 4.55454 63.4682 4.46435C63.4648 4.37416 63.4301 4.28719 63.3954 4.27753C63.3607 4.26786 63.3294 4.17767 63.3294 4.07782C63.3294 3.97797 63.3051 3.891 63.2739 3.88134C63.2427 3.87168 63.2115 3.78471 63.2045 3.68808C63.1976 3.59145 63.1559 3.51414 63.1143 3.51414C63.0727 3.51414 63.0414 3.44972 63.0414 3.35631C63.0483 3.28833 63.0272 3.22044 62.9824 3.16627C62.9366 3.10038 62.9158 3.02214 62.9234 2.94402C62.9234 2.84095 62.9026 2.77008 62.8749 2.78619C62.8471 2.80229 62.8055 2.71855 62.7881 2.59937C62.7708 2.48019 62.7257 2.38678 62.691 2.38678C62.6563 2.38678 62.6354 2.3288 62.6354 2.25472C62.6384 2.22504 62.6346 2.19513 62.6245 2.16685C62.6143 2.13858 62.598 2.11256 62.5765 2.09045C62.5452 2.09045 62.5209 1.9906 62.5209 1.90363C62.5209 1.81666 62.4932 1.74258 62.462 1.73291C62.4307 1.72325 62.396 1.6395 62.3891 1.54609C62.3821 1.45268 62.3509 1.3786 62.3162 1.38504C62.2815 1.39148 62.2503 1.30774 62.2399 1.20466C62.2411 1.1293 62.2182 1.0553 62.174 0.992075C62.1361 0.942496 62.1123 0.884916 62.1046 0.824583C62.0997 0.757179 62.077 0.69192 62.0386 0.634543C62.0025 0.5827 61.9833 0.522326 61.9831 0.460607C61.9831 0.383303 61.938 0.305997 61.8964 0.293112C61.8745 0.282941 61.856 0.267307 61.8432 0.247964C61.8303 0.228621 61.8235 0.206334 61.8235 0.183599C61.8235 0.0934098 56.2543 0.0547558 56.1259 0.141724H56.119ZM71.0743 8.28771V16.4756H76.4838C81.1994 16.4756 81.8899 16.4756 81.8899 16.395C81.8899 16.3145 81.9732 16.3177 82.2612 16.3177C82.3987 16.3284 82.5371 16.3119 82.6672 16.2694C82.7418 16.2238 82.8279 16.1971 82.917 16.1921C83.3647 16.1309 83.5104 16.089 83.5104 16.015C83.5104 15.9409 83.5694 15.9409 83.6561 15.9409C83.7402 15.9401 83.823 15.9226 83.899 15.8893L84.246 15.7476C84.3813 15.6961 84.4785 15.6349 84.4612 15.6091C84.4438 15.5833 84.4612 15.564 84.5201 15.564C84.5791 15.564 84.6104 15.5415 84.6104 15.5125C84.6104 15.4835 84.6659 15.4577 84.7283 15.4577C84.7593 15.4585 84.7898 15.4514 84.8167 15.4372C84.8436 15.423 84.8659 15.4022 84.881 15.3772C84.8984 15.3321 84.9365 15.3096 84.9643 15.3257C84.9921 15.3418 85.0163 15.3257 85.0163 15.3031C85.1945 15.0621 85.4235 14.8572 85.6895 14.7008C85.7103 14.7008 85.7103 14.7008 85.6895 14.6653C85.6687 14.6299 85.7207 14.514 85.8248 14.3916C85.9289 14.2692 85.9879 14.1725 85.9706 14.1564C85.9532 14.1403 85.9706 14.1017 86.0295 14.063C86.0815 14.0199 86.1137 13.96 86.1198 13.8955C86.1198 13.8375 86.1441 13.7925 86.1753 13.7925C86.2065 13.7925 86.2343 13.7119 86.2343 13.6121C86.2281 13.5272 86.2538 13.4429 86.3071 13.3737C86.3692 13.26 86.4002 13.1339 86.3974 13.0065C86.3971 12.8786 86.423 12.7518 86.4737 12.6329C86.5394 12.2693 86.5394 11.8981 86.4737 11.5345C86.4327 11.4157 86.4105 11.292 86.4078 11.1673C86.4083 11.0494 86.3773 10.9332 86.3176 10.8291C86.2661 10.7714 86.24 10.6978 86.2447 10.623C86.2447 10.5392 86.2204 10.4555 86.1857 10.4394C86.167 10.4222 86.1524 10.4016 86.1428 10.3788C86.1332 10.3561 86.1289 10.3317 86.1302 10.3073C86.1291 10.2798 86.1202 10.2531 86.1044 10.2299C86.0885 10.2067 86.0663 10.1878 86.04 10.1752C85.9879 10.1591 85.9636 10.1205 85.981 10.0947C85.9983 10.0689 85.9497 9.98197 85.8699 9.90789C85.8019 9.85154 85.7516 9.77921 85.7242 9.69852C85.7242 9.65665 85.6479 9.56646 85.5507 9.49882C85.4535 9.43118 85.3946 9.35709 85.4119 9.33132C85.4293 9.30556 85.4119 9.28301 85.3494 9.28301C85.287 9.28301 85.2696 9.26046 85.2905 9.23147C85.3113 9.20248 85.2905 9.17671 85.2592 9.17671C85.1333 9.13246 85.0161 9.06935 84.9122 8.98989C84.8072 8.91122 84.6903 8.8472 84.5653 8.79985C84.5572 8.80075 84.5491 8.8001 84.5413 8.79795C84.5336 8.7958 84.5264 8.7922 84.5202 8.78737C84.5141 8.78254 84.509 8.77658 84.5054 8.76986C84.5018 8.76314 84.4997 8.75581 84.4993 8.74832C84.4993 8.71933 84.4473 8.69356 84.3813 8.69356C84.3509 8.69407 84.3209 8.68683 84.2946 8.67264C84.2683 8.65844 84.2467 8.63783 84.2321 8.61303C84.2133 8.58668 84.1874 8.56537 84.157 8.55124C84.1265 8.53711 84.0926 8.53065 84.0586 8.53251C83.9823 8.53251 83.9198 8.50996 83.9198 8.47775C83.9198 8.44554 83.8296 8.42621 83.7186 8.42621C83.6076 8.42621 83.5173 8.40045 83.5173 8.37146C83.5173 8.34247 83.4236 8.3167 83.3126 8.3167C83.2016 8.3167 83.1114 8.29415 83.1114 8.23617C83.1114 8.1782 83.3473 8.11699 83.4202 8.17175C83.4202 8.17175 83.4826 8.14276 83.5382 8.09123C83.5862 8.04096 83.6509 8.00697 83.7221 7.9946C83.7418 7.99643 83.7615 7.99107 83.777 7.97965C83.7926 7.96822 83.8027 7.95164 83.8053 7.9334C83.8053 7.89797 83.8227 7.88508 83.84 7.90441C84.0724 7.84893 84.2883 7.74543 84.4716 7.60163C84.5392 7.54329 84.6165 7.49543 84.7006 7.4599C84.9122 7.36005 85.0198 7.26986 85.0198 7.19578C85.0198 7.1217 85.0406 7.1378 85.0649 7.1378C85.0892 7.1378 85.1586 7.05728 85.2211 6.96387C85.2768 6.87084 85.3444 6.78433 85.4223 6.70618C85.5634 6.55341 85.6591 6.36911 85.6999 6.17149C85.7074 6.10412 85.7337 6.03973 85.7762 5.98467C85.8132 5.92506 85.8313 5.85694 85.8283 5.78819C85.829 5.70816 85.857 5.63038 85.9081 5.56594C86.0226 5.46287 86.0261 3.48837 85.9081 3.40785C85.8479 3.32398 85.8164 3.22517 85.8179 3.1244C85.8179 2.99878 85.7832 2.89571 85.7554 2.89571C85.7277 2.89571 85.6999 2.83773 85.6999 2.7572C85.6887 2.65064 85.6481 2.54857 85.5819 2.46087C85.516 2.3739 85.4778 2.30626 85.5021 2.30626C85.5264 2.30626 85.5021 2.26116 85.4188 2.20641C85.3596 2.16382 85.316 2.10533 85.2939 2.03891C85.2479 1.94134 85.1792 1.85444 85.0927 1.78445C85.0109 1.71792 84.9428 1.63827 84.8914 1.54931C84.8906 1.5421 84.8882 1.53512 84.8844 1.52878C84.8806 1.52244 84.8755 1.51685 84.8693 1.51236C84.8632 1.50786 84.8562 1.50454 84.8486 1.50259C84.8411 1.50064 84.8333 1.5001 84.8255 1.501C84.6765 1.42977 84.5552 1.31717 84.4785 1.1789C84.4785 1.15313 84.4542 1.14669 84.4264 1.1789C84.3987 1.21111 84.3432 1.1789 84.305 1.12736C84.2565 1.08081 84.1908 1.05317 84.1211 1.05005C84.0586 1.05005 84.0239 1.02429 84.0448 0.995297C84.0656 0.966308 84.0066 0.921213 83.8921 0.934097C83.8713 0.934097 83.8227 0.901888 83.7845 0.860014C83.7377 0.812751 83.6731 0.783935 83.6041 0.779489C83.5451 0.779489 83.4965 0.75694 83.4965 0.727951C83.4965 0.698962 83.4306 0.673194 83.3508 0.673194C83.271 0.673194 83.205 0.650648 83.205 0.618437C83.205 0.586227 83.1599 0.5669 83.1044 0.5669C83.0111 0.554235 82.9208 0.527009 82.8372 0.486374C82.7139 0.434834 82.5804 0.407423 82.4451 0.405848C82.3202 0.405848 82.23 0.383301 82.2473 0.360754C82.2647 0.338207 82.1016 0.309217 81.9004 0.302775C81.6991 0.296333 81.4874 0.267346 81.4493 0.21903C81.4111 0.170715 80.5644 0.141725 76.2444 0.138504H71.0847V8.29415L71.0743 8.28771ZM90.4988 0.141724C90.478 0.16105 90.4606 3.84591 90.4606 8.32958V16.482H95.2005V8.30704V0.135283H92.8826C91.6092 0.135283 90.5474 0.135283 90.5266 0.15783L90.4988 0.141724ZM118.824 8.30704V16.4981H123.348V10.5746H125.923L126.024 10.7389C126.069 10.8056 126.103 10.8784 126.124 10.9547C126.148 11.0182 126.187 11.0756 126.239 11.1222C126.301 11.1797 126.343 11.2541 126.357 11.3348C126.357 11.3863 126.378 11.4314 126.409 11.4314C126.44 11.4314 126.475 11.4926 126.496 11.5667C126.516 11.6408 126.558 11.6988 126.589 11.6988C126.621 11.6988 126.645 11.7374 126.645 11.7825C126.668 11.8687 126.718 11.9468 126.787 12.008C126.863 12.0853 126.915 12.1691 126.898 12.1948C126.881 12.2206 126.898 12.2528 126.961 12.2689C126.989 12.2869 127.013 12.3115 127.029 12.3402C127.044 12.3689 127.052 12.4009 127.051 12.4332C127.051 12.5073 127.075 12.5491 127.106 12.533C127.138 12.5169 127.165 12.533 127.165 12.5813C127.165 12.6297 127.193 12.6651 127.224 12.6651C127.256 12.6651 127.28 12.7102 127.28 12.7617C127.295 12.8364 127.338 12.9037 127.401 12.9518C127.471 13.0065 127.509 13.0838 127.488 13.1289C127.467 13.174 127.488 13.1966 127.488 13.1805C127.488 13.1643 127.568 13.2352 127.606 13.3351C127.631 13.4192 127.686 13.493 127.762 13.5444C127.788 13.5586 127.809 13.5789 127.824 13.6033C127.838 13.6276 127.846 13.6551 127.845 13.6829C127.845 13.7441 127.873 13.7925 127.904 13.7925C127.936 13.7925 127.96 13.844 127.96 13.902C127.96 13.9306 127.968 13.9587 127.983 13.9835C127.998 14.0084 128.02 14.0291 128.047 14.0437C128.07 14.0521 128.091 14.0665 128.106 14.0853C128.122 14.1041 128.131 14.1265 128.133 14.15C128.133 14.1951 128.161 14.2144 128.192 14.1951C128.224 14.1758 128.251 14.2144 128.251 14.2788C128.256 14.3504 128.287 14.4184 128.338 14.4721C128.387 14.5172 128.411 14.5752 128.394 14.6041C128.376 14.6331 128.394 14.6525 128.449 14.6525C128.473 14.6533 128.496 14.6628 128.513 14.6791C128.53 14.6953 128.539 14.7169 128.539 14.7394C128.56 14.8272 128.602 14.9097 128.661 14.981C128.721 15.0573 128.768 15.1421 128.8 15.2323C128.8 15.2806 128.845 15.316 128.879 15.3096C128.914 15.3031 128.945 15.3579 128.945 15.432C128.945 15.506 128.966 15.564 128.994 15.564C129.022 15.564 129.091 15.651 129.143 15.7541C129.195 15.8571 129.265 15.9409 129.292 15.9409C129.32 15.9409 129.348 16.0021 129.348 16.0794C129.348 16.1567 129.369 16.205 129.393 16.1889C129.417 16.1728 129.473 16.234 129.514 16.321L129.591 16.4788H134.9V16.3435C134.9 16.2598 134.868 16.2082 134.813 16.2082C134.788 16.2058 134.765 16.1943 134.748 16.1763C134.732 16.1582 134.724 16.135 134.726 16.1116C134.711 16.0287 134.669 15.9523 134.605 15.8926C134.542 15.8339 134.496 15.7621 134.469 15.6832C134.469 15.6317 134.424 15.5994 134.386 15.6059C134.348 15.6123 134.324 15.5801 134.324 15.5318C134.263 15.3504 134.149 15.1885 133.994 15.0648C133.97 15.0471 133.951 15.0246 133.937 14.9989C133.924 14.9732 133.917 14.9451 133.918 14.9166C133.918 14.8554 133.893 14.8232 133.859 14.8393C133.824 14.8554 133.803 14.8167 133.803 14.7491C133.8 14.7088 133.787 14.6696 133.766 14.6341C133.745 14.5986 133.716 14.5675 133.682 14.5429C133.591 14.4681 133.518 14.3772 133.467 14.2756C133.426 14.1917 133.379 14.1109 133.324 14.034L133.137 13.8214C133.078 13.762 133.029 13.6946 132.991 13.6217C132.927 13.5004 132.85 13.385 132.762 13.2771C132.669 13.1671 132.591 13.0471 132.53 12.9196C132.507 12.8606 132.466 12.8091 132.412 12.7714C132.345 12.7193 132.3 12.6477 132.283 12.5685C132.283 12.5073 132.252 12.4718 132.228 12.4847C132.204 12.4976 132.183 12.4847 132.183 12.4267C132.183 12.4051 132.174 12.3842 132.158 12.3686C132.141 12.353 132.119 12.3438 132.096 12.343C132.04 12.343 132.009 12.2947 132.009 12.2109C132.009 12.1272 131.988 12.0756 131.964 12.0756C131.94 12.0756 131.718 11.7729 131.759 11.7342C131.801 11.6956 131.759 11.6988 131.7 11.6988C131.676 11.6997 131.652 11.6918 131.634 11.6768C131.616 11.6617 131.605 11.6408 131.603 11.6183C131.603 11.5764 131.579 11.5377 131.548 11.5377C131.517 11.5377 131.489 11.4894 131.489 11.4282C131.489 11.367 131.464 11.3316 131.43 11.3509C131.395 11.3702 131.374 11.3509 131.374 11.2994C131.374 11.2478 131.347 11.2156 131.315 11.2156C131.284 11.2156 131.242 11.1576 131.225 11.0836C131.208 11.0095 131.163 10.9483 131.135 10.9483C131.107 10.9483 131.083 10.9161 131.083 10.8742C131.075 10.82 131.045 10.7706 131 10.7357C130.951 10.697 130.927 10.6455 130.944 10.6197C130.961 10.594 130.944 10.5714 130.885 10.5714C130.872 10.5706 130.86 10.5675 130.848 10.5621C130.837 10.5568 130.827 10.5495 130.818 10.5405C130.81 10.5315 130.803 10.5211 130.799 10.5098C130.795 10.4985 130.794 10.4866 130.795 10.4748C130.782 10.3991 130.746 10.3286 130.691 10.2719C130.555 10.1398 130.59 10.0367 130.767 10.0367C130.798 10.0386 130.83 10.0348 130.86 10.0254C130.889 10.016 130.917 10.0012 130.941 9.98197C130.955 9.96481 130.973 9.95095 130.994 9.94145C131.015 9.93196 131.039 9.92709 131.062 9.92721C131.142 9.92721 131.201 9.89178 131.409 9.72751C131.448 9.6925 131.498 9.66898 131.551 9.65987C131.559 9.66031 131.567 9.65922 131.575 9.65666C131.582 9.65411 131.589 9.65015 131.595 9.64502C131.601 9.63989 131.606 9.6337 131.609 9.62684C131.612 9.61998 131.614 9.61258 131.614 9.60511C131.614 9.57612 131.68 9.55357 131.759 9.55357C131.839 9.55357 131.905 9.52136 131.905 9.46983C131.905 9.41829 131.929 9.39897 131.961 9.41829C131.992 9.43762 132.02 9.41829 132.02 9.36675C132.02 9.34509 132.029 9.32426 132.045 9.30865C132.061 9.29303 132.083 9.28384 132.106 9.28301C132.155 9.28301 132.193 9.28301 132.193 9.24436C132.193 9.2057 132.27 9.15739 132.36 9.09941C132.47 9.02503 132.561 8.92942 132.627 8.81918C132.682 8.72255 132.752 8.65491 132.78 8.67101C132.807 8.68712 132.828 8.67101 132.828 8.61626C132.828 8.59404 132.838 8.57274 132.855 8.55704C132.872 8.54133 132.894 8.53251 132.918 8.53251C132.97 8.53251 132.995 8.51318 132.981 8.48741C132.967 8.46165 133.016 8.35535 133.092 8.24906C133.159 8.16685 133.208 8.07253 133.234 7.97205C133.234 7.95039 133.243 7.92956 133.259 7.91394C133.276 7.89832 133.298 7.88914 133.321 7.8883C133.373 7.8883 133.408 7.83676 133.408 7.75624C133.403 7.69642 133.425 7.63743 133.467 7.59197C133.498 7.59197 133.522 7.47601 133.522 7.37294C133.522 7.26987 133.546 7.199 133.581 7.21833C133.616 7.23765 133.644 7.21833 133.647 7.21833C133.651 7.21833 133.647 7.08949 133.675 6.98641C133.703 6.88334 133.723 6.78993 133.755 6.78027C133.841 6.75128 133.831 4.11003 133.755 3.96187C133.711 3.87923 133.685 3.78954 133.678 3.69774C133.679 3.62155 133.653 3.54719 133.605 3.48515C133.559 3.43226 133.534 3.36644 133.533 3.29833C133.533 3.23069 133.508 3.17271 133.477 3.17271C133.446 3.17271 133.418 3.10185 133.418 3.01166C133.418 2.92147 133.394 2.85061 133.366 2.85061C133.338 2.85061 133.297 2.78297 133.276 2.70244C133.252 2.61381 133.2 2.53396 133.127 2.47375C133.071 2.44121 133.03 2.39074 133.012 2.33203C132.985 2.25484 132.936 2.18588 132.87 2.13232C132.811 2.08502 132.761 2.02829 132.724 1.96483C132.724 1.91007 132.564 1.77801 132.499 1.77801C132.433 1.77801 132.436 1.73935 132.436 1.69426C132.436 1.64917 132.408 1.62662 132.377 1.64272C132.346 1.65883 132.318 1.64272 132.318 1.61696C132.303 1.56737 132.275 1.52189 132.237 1.48434C132.199 1.44679 132.152 1.41826 132.099 1.40115C132.068 1.40115 132.027 1.36572 132.009 1.3174C131.992 1.26908 131.947 1.24976 131.912 1.26908C131.877 1.28841 131.86 1.26908 131.87 1.23365C131.881 1.19822 131.836 1.15635 131.777 1.14346C131.682 1.11387 131.596 1.06299 131.527 0.995297C131.468 0.933625 131.391 0.888931 131.305 0.866455C131.26 0.866455 131.222 0.84391 131.222 0.818142C131.222 0.792374 131.142 0.756942 131.048 0.737616L130.701 0.669972C130.604 0.669972 130.528 0.605552 130.528 0.5669C130.528 0.528247 130.458 0.499259 130.34 0.50248C130.222 0.505701 130.146 0.479933 130.136 0.444501C130.125 0.40907 130.024 0.383301 129.913 0.383301C129.802 0.383301 129.716 0.357533 129.716 0.328544C129.716 0.299555 129.58 0.273787 129.414 0.273787C129.273 0.279503 129.132 0.252959 129.004 0.196483C128.914 0.132062 128.078 0.119178 123.841 0.115957H118.785V8.29093L118.824 8.30704ZM79.4541 3.43684C79.4541 3.46905 79.5894 3.50448 79.7317 3.52059C79.8739 3.53669 80.0023 3.57212 80.0127 3.60111C80.0257 3.61761 80.0431 3.63072 80.0632 3.63918C80.0832 3.64764 80.1053 3.65117 80.1272 3.64943C80.4238 3.7657 80.6686 3.97253 80.8212 4.23565C80.8226 4.25112 80.829 4.26585 80.8395 4.27791C80.85 4.28998 80.8642 4.29882 80.8802 4.3033C80.9114 4.3033 80.9427 4.38704 80.9496 4.47079C80.9565 4.55454 80.9808 4.61573 81.0086 4.61573C81.0526 4.76453 81.0678 4.91938 81.0537 5.07312C81.0537 5.34047 81.0294 5.53051 80.9947 5.53051C80.96 5.53051 80.9357 5.58849 80.9357 5.66257C80.9357 5.73665 80.9114 5.79785 80.8802 5.79785C80.849 5.79785 80.8212 5.86227 80.8212 5.93958C80.8212 6.01688 80.8212 6.07164 80.79 6.05554C80.7588 6.03943 80.6651 6.11029 80.554 6.21659C80.4725 6.30523 80.3705 6.37569 80.2556 6.42273C80.2312 6.42464 80.2077 6.43211 80.1871 6.44447C80.1665 6.45683 80.1495 6.4737 80.1376 6.4936C80.1376 6.52258 80.0405 6.54835 79.9468 6.54835C79.8531 6.54835 79.7872 6.5709 79.8045 6.59345C79.5191 6.66693 79.2219 6.6931 78.9267 6.67075C78.8573 6.67075 78.7983 6.69652 78.7983 6.72873C78.7983 6.76094 78.3715 6.78671 77.2056 6.77705H75.6164V3.38208H77.5213C78.1627 3.35445 78.8054 3.37276 79.4437 3.43684H79.4541ZM127.464 3.59467C127.596 3.62473 127.726 3.66348 127.852 3.71063C127.909 3.73725 127.97 3.75364 128.033 3.75894C128.059 3.76146 128.084 3.77061 128.104 3.78539C128.125 3.80017 128.141 3.82 128.151 3.84269C128.168 3.88778 128.21 3.91033 128.241 3.89422C128.272 3.87812 128.65 4.15513 128.675 4.2582C128.699 4.36128 128.841 4.61573 128.89 4.61573C128.938 4.61573 128.938 4.71559 128.938 4.83476C128.938 4.95394 128.959 5.04091 128.994 5.01836C129.029 4.99582 129.053 5.14398 129.053 5.42099C129.053 5.698 129.032 5.84617 128.994 5.82362C128.956 5.80107 128.938 5.89449 128.938 6.06198C128.938 6.22947 128.918 6.32288 128.862 6.30356C128.807 6.28423 128.786 6.32288 128.779 6.39052C128.764 6.47218 128.718 6.54634 128.65 6.59989C128.59 6.64684 128.548 6.71161 128.532 6.78349C128.532 6.84147 128.501 6.85757 128.435 6.83503C128.369 6.81248 128.355 6.83503 128.376 6.83503C128.397 6.83503 128.088 7.10237 128.012 7.08627C127.995 7.08627 127.991 7.10559 128.012 7.13458C128.033 7.16357 128.012 7.17323 127.981 7.15713C127.91 7.14879 127.838 7.16484 127.779 7.20222C127.533 7.3214 127.106 7.34717 125.177 7.37294L123.341 7.39548V3.47871L125.264 3.50126C126.003 3.48911 126.742 3.52031 127.478 3.59467H127.464ZM58.9816 4.06816C58.9874 4.13892 58.9874 4.20999 58.9816 4.28075C58.9825 4.30294 58.9905 4.32437 59.0048 4.34221C59.019 4.36004 59.0388 4.37343 59.0614 4.3806C59.117 4.40315 59.1517 4.48045 59.1517 4.59319C59.1439 4.66828 59.1648 4.74351 59.2107 4.80578C59.257 4.88091 59.2764 4.96775 59.2662 5.05379C59.2662 5.18264 59.2905 5.2535 59.3252 5.23417C59.3599 5.21485 59.3841 5.29537 59.3841 5.44032C59.3841 5.58527 59.4119 5.68834 59.4709 5.71089C59.5299 5.73343 59.5576 5.81396 59.5576 5.95891C59.5576 6.10385 59.5785 6.16827 59.6132 6.14572C59.6479 6.12318 59.6721 6.19082 59.6721 6.30356C59.6721 6.55802 59.6722 6.56768 59.7346 6.62566C59.7737 6.68978 59.7963 6.76145 59.8005 6.83503C59.8001 6.86819 59.8077 6.90102 59.8227 6.93112C59.8377 6.96122 59.8598 6.98781 59.8873 7.00896C59.9289 7.00896 59.9602 7.11525 59.9602 7.21511C59.9602 7.31496 59.9844 7.39871 60.0122 7.39871C60.04 7.39871 60.0781 7.48889 60.0955 7.60163C60.1649 8.02359 60.21 8.17819 60.2863 8.22007C60.3156 8.25052 60.3379 8.28626 60.3516 8.32506C60.3653 8.36387 60.3703 8.40488 60.3661 8.44554C60.3575 8.5217 60.3784 8.59821 60.4251 8.66135C60.4563 8.66135 60.4806 8.77731 60.4806 8.88038C60.4806 8.98345 60.5015 9.05754 60.5292 9.04143C60.557 9.02533 60.5813 9.09297 60.5882 9.18638C60.6056 9.42795 60.6541 9.55357 60.7166 9.50848C60.779 9.46339 60.7721 9.55035 60.7721 9.64054V9.80481H57.0732V9.67597C57.0732 9.60511 57.101 9.53747 57.1322 9.52781C57.1634 9.51814 57.2432 9.30878 57.2606 9.07042C57.2606 9.03499 57.2883 9.01566 57.3126 9.03177C57.3369 9.04787 57.3612 8.97379 57.3612 8.87072C57.3517 8.79349 57.3727 8.7157 57.4202 8.65169C57.4663 8.5871 57.4871 8.50978 57.4792 8.43266C57.4792 8.30382 57.5035 8.24906 57.5659 8.24906C57.6284 8.24906 57.6527 8.19108 57.6527 8.06224C57.6527 7.9334 57.6769 7.86253 57.7082 7.84643C57.7538 7.79142 57.775 7.72223 57.7672 7.65317C57.7672 7.5662 57.7949 7.49534 57.8262 7.49534C57.8574 7.49534 57.8817 7.4277 57.8817 7.34073C57.8879 7.22916 57.9173 7.11977 57.9684 7.01863C58.0167 6.93478 58.0462 6.84275 58.0552 6.74806C58.0536 6.72044 58.058 6.69281 58.0681 6.6668C58.0782 6.64079 58.0939 6.61694 58.1142 6.59667C58.1584 6.54349 58.1795 6.47679 58.1732 6.40985C58.1732 6.3261 58.1974 6.23914 58.2287 6.22303C58.2739 6.17031 58.2951 6.10325 58.2877 6.03621C58.2869 5.95681 58.3178 5.87995 58.3744 5.8204C58.4375 5.74039 58.4682 5.64232 58.4612 5.54339C58.4612 5.43066 58.4889 5.33725 58.5201 5.33725C58.5514 5.33725 58.5722 5.31792 58.5687 5.29537C58.541 5.12788 58.5861 4.79933 58.6346 4.8251C58.6832 4.85087 58.6936 4.7639 58.6936 4.61573C58.6936 4.46757 58.7214 4.36127 58.7943 4.32262C58.8671 4.28397 58.8879 4.25498 58.881 4.23887C58.8745 4.17567 58.8745 4.11204 58.881 4.04883C58.881 3.84591 58.992 3.83303 59.0025 4.04883L58.9816 4.06816ZM79.2355 9.96587C79.2355 9.99808 79.4263 10.0206 79.6866 10.0206C79.8628 10.0067 80.0402 10.0275 80.2071 10.0818C80.2648 10.126 80.3343 10.155 80.4083 10.1656C80.4777 10.1656 80.5471 10.2074 80.5575 10.2364C80.5679 10.2654 80.6339 10.288 80.7032 10.288C80.8108 10.3088 80.9061 10.3663 80.9704 10.449C81.0245 10.5217 81.1006 10.5777 81.189 10.6101C81.2099 10.6125 81.229 10.6221 81.2425 10.6371C81.256 10.652 81.2629 10.6711 81.2619 10.6906C81.2619 10.7357 81.2862 10.7711 81.3174 10.7711C81.3486 10.7711 81.3764 10.8323 81.3764 10.9064C81.3764 10.9805 81.4042 11.0385 81.4354 11.0385C81.4955 11.2208 81.5144 11.4127 81.4909 11.6021C81.4909 11.9629 81.4701 12.1658 81.4319 12.1658C81.3938 12.1658 81.3833 12.1884 81.4007 12.2109C81.4047 12.2792 81.3853 12.3469 81.3452 12.4042C81.3061 12.4708 81.278 12.5424 81.2619 12.6168C81.2619 12.678 81.0016 12.8487 80.783 12.9389C80.7275 12.9614 80.6824 13.0033 80.6824 13.0323C80.6824 13.0613 80.6304 13.0903 80.5679 13.0903C80.5055 13.0903 80.4499 13.1096 80.4499 13.1386C80.4499 13.232 79.8774 13.2642 77.7781 13.2835L75.6511 13.3061V9.93043H77.445C78.0424 9.90258 78.6413 9.92089 79.2355 9.98519V9.96587ZM124.601 29.2856C124.601 29.7269 124.601 29.9008 124.618 29.6721C124.636 29.4434 124.618 29.0795 124.618 28.8669C124.618 28.6543 124.601 28.8411 124.601 29.2856Z" fill="#F8C014"/>
<path d="M0.0527344 25.9494V30.1657H3.54346C6.66638 30.1657 7.04112 30.1657 7.07235 30.0788C7.11756 29.5374 7.11756 28.9935 7.07235 28.4521L7.03418 28.2846H2.59618V21.7427H0.0527344V25.9494ZM11.4444 25.9494V30.1657H13.9879V21.7427H11.4444V25.9494ZM18.2107 21.9779C18.2107 22.1099 18.2385 22.2194 18.2697 22.2194C18.301 22.2194 18.3253 22.2903 18.3253 22.3773C18.3184 22.4453 18.3395 22.5131 18.3842 22.5673C18.4042 22.5858 18.4198 22.6079 18.43 22.6324C18.4401 22.6568 18.4446 22.6829 18.4432 22.709C18.4425 22.7369 18.4503 22.7643 18.4656 22.7883C18.481 22.8122 18.5033 22.8316 18.53 22.8443C18.582 22.8636 18.6167 22.9442 18.6167 23.0569C18.6167 23.1696 18.641 23.2405 18.6722 23.2405C18.7035 23.2405 18.7312 23.3243 18.7312 23.4273C18.7312 23.5304 18.759 23.6141 18.7902 23.6141C18.8215 23.6141 18.8457 23.6882 18.8457 23.7784C18.8413 23.8148 18.847 23.8517 18.8622 23.8855C18.8774 23.9193 18.9016 23.9489 18.9325 23.9717C18.988 23.991 19.0192 24.0715 19.0192 24.1843C19.0192 24.297 19.047 24.3679 19.0782 24.3679C19.1095 24.3679 19.1372 24.4258 19.1372 24.4999C19.1372 24.574 19.1615 24.6352 19.1927 24.6352C19.224 24.6352 19.2517 24.6932 19.2517 24.7641C19.2518 24.8424 19.2827 24.9179 19.3385 24.9766C19.396 25.047 19.4265 25.1331 19.4252 25.2214C19.4252 25.3116 19.453 25.3857 19.4842 25.3857C19.5154 25.3857 19.5397 25.4598 19.5397 25.55C19.5397 25.6402 19.5744 25.7239 19.6195 25.74C19.6646 25.7561 19.6959 25.8431 19.6959 25.9365C19.6959 26.0299 19.7271 26.1137 19.7618 26.1266C19.7965 26.1394 19.8312 26.2167 19.8312 26.3005C19.8245 26.367 19.8443 26.4334 19.8867 26.4873C19.907 26.5049 19.9228 26.5264 19.933 26.5504C19.9432 26.5744 19.9475 26.6001 19.9457 26.6258C19.9455 26.654 19.9535 26.6817 19.9687 26.706C19.984 26.7304 20.006 26.7505 20.0324 26.7643C20.0845 26.7836 20.1192 26.8642 20.1192 26.9769C20.1192 27.0896 20.147 27.1573 20.1782 27.1573C20.2094 27.1573 20.2337 27.2281 20.2337 27.3151C20.2276 27.384 20.2486 27.4527 20.2927 27.5084C20.3394 27.5715 20.3603 27.648 20.3517 27.7242C20.3517 27.853 20.376 27.911 20.4384 27.911C20.5009 27.911 20.5252 27.9625 20.5252 28.0688C20.5183 28.1363 20.538 28.2038 20.5807 28.2589C20.601 28.2765 20.6168 28.298 20.627 28.322C20.6372 28.3459 20.6415 28.3717 20.6397 28.3974C20.6397 28.4521 20.664 28.5004 20.6952 28.5004C20.7264 28.5004 20.7577 28.5906 20.7681 28.7034C20.7785 28.8161 20.8097 28.8966 20.8583 28.8902C20.9069 28.8838 20.9277 28.9482 20.9277 29.0931C20.9277 29.2381 20.952 29.2993 20.9867 29.2799C21.0214 29.2606 21.0457 29.3218 21.0457 29.4345C21.0457 29.5473 21.07 29.6375 21.1012 29.6536C21.1227 29.6757 21.139 29.7017 21.1492 29.73C21.1594 29.7583 21.1631 29.7882 21.1602 29.8178C21.1602 30.14 21.2504 30.1657 22.8361 30.1657C24.1096 30.1657 24.2831 30.1657 24.2831 30.082C24.2831 29.9982 24.3108 30.0111 24.3421 30.0304C24.3733 30.0498 24.4254 29.9145 24.4045 29.747C24.4049 29.7247 24.4127 29.703 24.4271 29.6851C24.4414 29.6672 24.4614 29.6539 24.4843 29.6471C24.5364 29.631 24.5711 29.5505 24.5711 29.4603C24.5711 29.3701 24.5988 29.3057 24.6301 29.3057C24.6613 29.3057 24.6891 29.2091 24.6891 29.0899C24.6891 28.9707 24.7134 28.8805 24.7515 28.8902C24.7897 28.8999 24.8244 28.858 24.8348 28.8032C24.8453 28.7448 24.8729 28.6902 24.9146 28.6454C24.9583 28.5845 24.9801 28.5123 24.9771 28.4392C24.9715 28.3744 24.9926 28.3099 25.0361 28.2589C25.0785 28.205 25.0982 28.1385 25.0916 28.0721C25.0916 27.9915 25.1263 27.911 25.1679 27.8949C25.2095 27.8788 25.2477 27.8015 25.2547 27.7177C25.2575 27.6445 25.2814 27.5733 25.3241 27.5116C25.3658 27.4512 25.3864 27.3803 25.383 27.3087C25.383 27.2249 25.4073 27.1573 25.4386 27.1573C25.4698 27.1573 25.4975 27.0993 25.4975 27.0284C25.4958 26.9992 25.5014 26.9699 25.5141 26.9431C25.5268 26.9162 25.5461 26.8925 25.5704 26.8738C25.6121 26.8738 25.6502 26.7804 25.6572 26.6934C25.6641 26.6065 25.6988 26.5324 25.73 26.5227C25.7613 26.5131 25.7856 26.4229 25.7856 26.323C25.7856 26.2232 25.8133 26.1394 25.8445 26.1394C25.8758 26.1394 25.9035 26.0525 25.9035 25.9494C25.9035 25.8463 25.9278 25.7626 25.9903 25.7626C26.0527 25.7626 26.077 25.7046 26.077 25.5758C26.077 25.4469 26.1013 25.3857 26.1325 25.3857C26.1638 25.3857 26.1915 25.302 26.1915 25.1989C26.1915 25.0958 26.2193 25.0121 26.2505 25.0121C26.2817 25.0121 26.306 24.9605 26.306 24.8993C26.3117 24.8289 26.3422 24.7621 26.3928 24.7093C26.4468 24.6496 26.4773 24.5746 26.4795 24.4967C26.4795 24.4258 26.5073 24.3679 26.5385 24.3679C26.5697 24.3679 26.5975 24.2809 26.5975 24.1778C26.5975 24.0748 26.6218 23.991 26.653 23.991C26.6843 23.991 26.712 23.9105 26.712 23.8074C26.712 23.7043 26.7467 23.6141 26.7988 23.5948C26.8508 23.5755 26.8855 23.4982 26.8855 23.4016C26.8855 23.3049 26.9133 23.2405 26.9445 23.2405C26.9757 23.2405 27 23.1535 27 23.0505C27 22.9474 27.0278 22.8636 27.059 22.8636C27.0902 22.8636 27.118 22.8024 27.118 22.7284C27.118 22.6543 27.1492 22.5963 27.1909 22.5963C27.2325 22.5963 27.2707 22.519 27.2811 22.4224C27.2915 22.3257 27.3192 22.2388 27.3505 22.2291C27.3817 22.2194 27.406 22.1035 27.406 21.9746V21.7363H24.8626V21.8716C24.8626 21.9553 24.8279 22.0036 24.7758 22.0036C24.7238 22.0036 24.6891 22.0616 24.6891 22.1937C24.6891 22.3257 24.6613 22.3805 24.6301 22.3805C24.5988 22.3805 24.5711 22.4642 24.5711 22.5673C24.5711 22.6704 24.5468 22.7574 24.5156 22.7574C24.4843 22.7574 24.4566 22.8636 24.4566 22.9989C24.4566 23.1342 24.4358 23.2405 24.3698 23.2405C24.3039 23.2405 24.2831 23.2953 24.2831 23.4273C24.2831 23.5594 24.2588 23.6141 24.2241 23.6141C24.1894 23.6141 24.1686 23.6979 24.1686 23.7977C24.1686 23.8976 24.1373 23.991 24.1026 24.0007C24.0679 24.0103 24.0367 24.0973 24.0298 24.1939C24.029 24.2779 24.0012 24.3598 23.95 24.4291C23.8976 24.5106 23.8722 24.6048 23.8771 24.6996C23.8771 24.8124 23.8528 24.9026 23.8216 24.9026C23.7904 24.9026 23.7626 24.9863 23.7626 25.0862C23.7626 25.186 23.7279 25.2794 23.6897 25.2955C23.6516 25.3116 23.6099 25.3889 23.603 25.4759C23.596 25.5629 23.5613 25.637 23.5301 25.6466C23.4989 25.6563 23.4746 25.7465 23.4746 25.8463C23.4746 25.9462 23.4468 26.0299 23.4156 26.0299C23.3844 26.0299 23.3566 26.1394 23.3566 26.2715C23.3566 26.4519 23.3358 26.5131 23.2699 26.5131C23.2039 26.5131 23.1831 26.5711 23.1831 26.6999C23.1831 26.8287 23.1588 26.8996 23.1276 26.9157C23.0809 26.9884 23.0602 27.073 23.0686 27.1573C23.0686 27.2732 23.0443 27.3828 23.0096 27.3989C22.965 27.4615 22.9453 27.5367 22.9541 27.6114C22.9541 27.721 22.9194 27.8047 22.8674 27.8208C22.8153 27.8369 22.7806 27.8208 22.7806 27.7467C22.7806 27.6726 22.7529 27.6404 22.7216 27.6404C22.6904 27.6404 22.6626 27.5341 22.6626 27.4053C22.6626 27.2765 22.6383 27.1605 22.6106 27.1508C22.5828 27.1412 22.5481 27.0284 22.5412 26.906C22.5342 26.7836 22.4926 26.6677 22.451 26.6516C22.4093 26.6355 22.3746 26.5421 22.3746 26.4325C22.3746 26.323 22.3503 26.2522 22.3156 26.2715C22.2809 26.2908 22.2601 26.22 22.2601 26.0879C22.2601 25.9558 22.2324 25.8689 22.2011 25.8689C22.1699 25.8689 22.1422 25.798 22.1422 25.7078C22.1422 25.6176 22.1075 25.5307 22.0554 25.5146C22.0034 25.4984 21.9687 25.4083 21.9687 25.2472C21.9687 25.0862 21.9444 25.0121 21.9131 25.0121C21.8819 25.0121 21.8541 24.9251 21.8541 24.822C21.8541 24.719 21.8299 24.6352 21.7952 24.6352C21.7605 24.6352 21.7396 24.5611 21.7396 24.4709C21.744 24.4345 21.7384 24.3977 21.7232 24.3639C21.708 24.3301 21.6838 24.3004 21.6529 24.2777C21.5939 24.2584 21.5661 24.1714 21.5661 24.0136C21.5661 23.8557 21.5384 23.7752 21.5072 23.7752C21.4759 23.7752 21.4482 23.6915 21.4482 23.5884C21.4482 23.4853 21.4239 23.4016 21.3927 23.4016C21.3614 23.4016 21.3337 23.3275 21.3337 23.2373C21.3337 23.1471 21.299 23.0633 21.2469 23.044C21.1949 23.0247 21.1602 22.9377 21.1602 22.7799C21.1602 22.6221 21.1359 22.5319 21.1012 22.5158C21.0601 22.4687 21.0402 22.4087 21.0457 22.3483C21.0445 22.2714 21.0256 22.1956 20.9901 22.126C20.9503 22.0492 20.9212 21.9681 20.9034 21.8845L20.8687 21.7363H18.2107V21.9779ZM31.4554 25.9494V30.1657H38.7977V28.2846H34.0578V26.8899H37.7012V25.1184H34.0578V23.6141H38.6242L38.6554 23.495C38.6738 23.186 38.6738 22.8763 38.6554 22.5673V21.7621H35.0398H31.4415V25.9494H31.4554ZM50.467 25.9494V30.1657H53.0104V26.9962H56.6538V25.1184H53.0104V23.6141H57.6323V22.6897V21.7621H54.0618H50.4913V25.9494H50.467ZM62.001 25.9494V30.1657H69.0449V29.2381L69.0275 28.3136L66.7859 28.2975H64.5444V21.7427H62.001V25.9494ZM73.3926 25.9494V30.1657H80.6794V28.2846H75.9257V26.8899H79.5691V25.1184H75.9257V23.6174L78.2262 23.6013H80.5233L80.5406 22.6768V21.7492H73.3822V25.9494H73.3926ZM84.4859 21.8716C84.4859 21.9457 84.5137 22.0036 84.5449 22.0036C84.5762 22.0036 84.6004 22.0455 84.6004 22.0938C84.6237 22.1763 84.6748 22.2496 84.7462 22.3032C84.8162 22.3579 84.867 22.4308 84.8919 22.5126C84.8919 22.5576 84.9162 22.5963 84.9474 22.5963C84.9787 22.5963 85.0064 22.6317 85.0064 22.6768C85.0064 22.6982 85.0156 22.7187 85.0318 22.7338C85.0481 22.7489 85.0702 22.7574 85.0932 22.7574C85.1417 22.7574 85.1799 22.8024 85.1799 22.8636C85.1799 22.9248 85.2077 22.9699 85.2389 22.9699C85.2701 22.9699 85.2944 23.0183 85.2944 23.073C85.3154 23.1617 85.3665 23.2419 85.4402 23.3017C85.511 23.3592 85.5608 23.4357 85.5824 23.5207C85.5824 23.5723 85.6102 23.6141 85.6414 23.6141C85.6726 23.6141 85.7004 23.6528 85.7004 23.6947C85.7004 23.7365 85.7282 23.7752 85.7594 23.7752C85.7906 23.7752 85.8149 23.8074 85.8184 23.8428C85.8454 23.9183 85.8947 23.9853 85.9606 24.0361C86.0343 24.0959 86.0854 24.1761 86.1064 24.2648C86.1064 24.3196 86.1307 24.3679 86.1619 24.3679C86.1931 24.3679 86.2209 24.4033 86.2209 24.4452C86.2471 24.5273 86.2976 24.601 86.3666 24.6578C86.4361 24.7163 86.4856 24.7924 86.5089 24.8768C86.5166 24.9337 86.5426 24.9872 86.5834 25.0302C86.6243 25.0733 86.6781 25.104 86.7379 25.1184C86.7726 25.1184 86.8004 25.1731 86.8004 25.2408C86.8035 25.2796 86.8152 25.3174 86.8349 25.3518C86.8547 25.3862 86.8819 25.4164 86.9149 25.4405C86.9479 25.4645 86.9751 25.4947 86.9948 25.5291C87.0145 25.5635 87.0263 25.6013 87.0294 25.6402C87.0294 25.7078 87.0571 25.7626 87.0918 25.7626C87.1494 25.7744 87.2015 25.8026 87.241 25.8431C87.2896 25.8882 87.3 25.9236 87.2653 25.9236C87.2306 25.9236 87.2029 25.9623 87.2029 26.0106C87.1824 26.0881 87.1318 26.1558 87.0606 26.2006C86.9897 26.2463 86.9382 26.3135 86.9149 26.3907C86.8946 26.4677 86.8498 26.5372 86.7865 26.5904C86.721 26.6443 86.67 26.7115 86.6373 26.7869C86.6329 26.8063 86.6241 26.8247 86.6115 26.8408C86.599 26.8569 86.5829 26.8703 86.5644 26.8803C86.5466 26.8894 86.5319 26.903 86.5221 26.9195C86.5123 26.936 86.5077 26.9548 86.5089 26.9737C86.5089 27.0156 86.4846 27.051 86.4534 27.051C86.4221 27.051 86.3944 27.0993 86.3944 27.1573C86.3944 27.2153 86.3632 27.2668 86.3285 27.2668C86.2938 27.2668 86.1099 27.4278 86.1064 27.5277C86.0807 27.6064 86.0299 27.6761 85.9606 27.7274C85.8902 27.7804 85.8393 27.8525 85.8149 27.9335C85.8149 27.9786 85.7906 28.0173 85.7594 28.0173C85.7282 28.0173 85.7004 28.0527 85.7004 28.0978C85.7004 28.1429 85.6761 28.1783 85.6414 28.1783C85.6067 28.1783 85.5859 28.2267 85.5859 28.2846C85.5859 28.3426 85.5477 28.3942 85.4991 28.3942C85.4761 28.3942 85.4541 28.4026 85.4378 28.4177C85.4215 28.4328 85.4124 28.4533 85.4124 28.4747C85.4124 28.5166 85.3846 28.5552 85.3534 28.5552C85.3222 28.5552 85.2944 28.6035 85.2944 28.6615C85.2944 28.7195 85.2701 28.7678 85.2389 28.7678C85.2077 28.7678 85.1799 28.8064 85.1799 28.8483C85.182 28.867 85.1763 28.8857 85.1641 28.9007C85.1518 28.9156 85.1339 28.9257 85.114 28.9288C85.0342 28.9288 84.8954 29.0931 84.8919 29.1897C84.8797 29.2429 84.8518 29.2918 84.8113 29.331C84.7709 29.3702 84.7195 29.3983 84.6629 29.412C84.6282 29.412 84.6004 29.4635 84.6004 29.5215C84.5827 29.6152 84.5328 29.7011 84.4582 29.7663C84.3789 29.8379 84.3276 29.932 84.3124 30.0337V30.1657H87.1855L87.2619 30.0304C87.3035 29.9564 87.3625 29.8952 87.3868 29.8952C87.4111 29.8952 87.4353 29.8468 87.4353 29.7856C87.4348 29.7574 87.4426 29.7296 87.4579 29.7051C87.4732 29.6807 87.4954 29.6607 87.5221 29.6471C87.5707 29.631 87.595 29.5988 87.5811 29.5763C87.5672 29.5537 87.5811 29.4893 87.6366 29.4345C87.6852 29.3781 87.7153 29.3099 87.7234 29.2381C87.7234 29.1865 87.7511 29.1447 87.7823 29.1447C87.8136 29.1447 87.8413 29.1092 87.8413 29.0673C87.8666 28.9828 87.9157 28.9061 87.9836 28.8451C88.0565 28.7782 88.1071 28.6932 88.1293 28.6003C88.1293 28.5455 88.1571 28.5004 88.1883 28.5004C88.2196 28.5004 88.2438 28.4521 88.2438 28.3942C88.2438 28.3362 88.282 28.2846 88.3306 28.2846C88.3792 28.2846 88.4173 28.2363 88.4173 28.1526C88.4173 28.0688 88.4451 28.0173 88.4763 28.0173C88.5076 28.0173 88.5353 27.9561 88.5353 27.882C88.5353 27.8079 88.5631 27.7499 88.6776 27.7499C88.7921 27.7499 88.8233 27.7757 88.8233 27.882C88.8233 27.9883 88.8511 28.0173 88.8823 28.0173C88.9135 28.0173 88.9378 28.0495 88.9378 28.0914C88.9662 28.1735 89.0163 28.2477 89.0836 28.3072C89.1574 28.376 89.2081 28.4633 89.2293 28.5584C89.2293 28.6132 89.2536 28.6615 89.2848 28.6615C89.316 28.6615 89.3438 28.7066 89.3438 28.7646C89.3441 28.7918 89.3524 28.8184 89.3676 28.8417C89.3829 28.8649 89.4046 28.8839 89.4305 28.8966C89.4573 28.9102 89.4795 28.9302 89.4947 28.9546C89.51 28.9791 89.5178 29.0069 89.5173 29.0351C89.5173 29.0963 89.5451 29.1447 89.5763 29.1447C89.6075 29.1447 89.6318 29.1801 89.6318 29.2252C89.6318 29.2703 89.6596 29.3057 89.6908 29.3057C89.722 29.3057 89.7498 29.354 89.7498 29.412C89.7498 29.47 89.7879 29.5215 89.8365 29.5215C89.8617 29.524 89.8848 29.5354 89.901 29.5535C89.9172 29.5715 89.9252 29.5947 89.9233 29.6181C89.9381 29.6979 89.978 29.7718 90.0378 29.8307C90.1001 29.8931 90.1401 29.9719 90.1523 30.0562C90.1523 30.1625 90.18 30.1657 91.7137 30.1657C93.1642 30.1657 93.2752 30.1657 93.2752 30.0723C93.2752 29.9789 93.1433 29.7889 93.0531 29.7889C93.0184 29.7889 92.9872 29.7341 92.9872 29.6665C92.9841 29.6276 92.9723 29.5898 92.9526 29.5554C92.9329 29.521 92.9057 29.4908 92.8727 29.4668C92.8418 29.4485 92.8154 29.4244 92.7951 29.3961C92.7748 29.3679 92.761 29.336 92.7547 29.3025C92.7343 29.225 92.6836 29.1572 92.6124 29.1124C92.5427 29.0692 92.4903 29.0058 92.4632 28.9321C92.4632 28.8258 92.3279 28.6615 92.2446 28.6615C92.1614 28.6615 92.1787 28.6067 92.1787 28.5391C92.1756 28.4999 92.1635 28.4618 92.1432 28.4273C92.1228 28.3929 92.0947 28.3629 92.0607 28.3394C92.0308 28.3205 92.0052 28.2962 91.9855 28.268C91.9659 28.2398 91.9525 28.2082 91.9462 28.1751C91.9249 28.0971 91.8729 28.0293 91.8005 27.9851C91.7301 27.9432 91.6783 27.8792 91.6548 27.8047C91.6548 27.6984 91.5194 27.5341 91.4327 27.5341C91.398 27.5341 91.3667 27.489 91.3667 27.4375C91.3515 27.3616 91.3116 27.2919 91.2523 27.2378C91.1966 27.1865 91.1529 27.1251 91.1239 27.0574C91.0886 26.988 91.0391 26.9256 90.9781 26.8738C90.9085 26.8156 90.862 26.7373 90.8463 26.6516C90.8394 26.6137 90.823 26.5778 90.7982 26.547C90.7735 26.5162 90.7412 26.4913 90.704 26.4744C90.6242 26.4325 90.5583 26.3617 90.5583 26.3134C90.5423 26.2368 90.5025 26.1663 90.4438 26.1104C90.3223 25.9913 90.2841 25.7883 90.3848 25.7883C90.416 25.7883 90.4438 25.7529 90.4438 25.7078C90.4438 25.6627 90.468 25.6273 90.4993 25.6273C90.5305 25.6273 90.5583 25.5822 90.5583 25.5242C90.5586 25.497 90.5668 25.4704 90.5821 25.4471C90.5974 25.4239 90.6191 25.4049 90.645 25.3922C90.6706 25.3808 90.6923 25.363 90.7076 25.3408C90.723 25.3186 90.7313 25.2929 90.7318 25.2665C90.7372 25.2314 90.7502 25.1977 90.7698 25.1673C90.7895 25.1369 90.8155 25.1104 90.8463 25.0894C90.8802 25.0659 90.9083 25.0359 90.9287 25.0015C90.949 24.967 90.9612 24.9289 90.9642 24.8897C90.9642 24.822 90.992 24.7673 91.0302 24.7673C91.0683 24.7673 91.2488 24.6062 91.2488 24.5064C91.2776 24.4282 91.3292 24.3591 91.398 24.3067C91.4628 24.2589 91.512 24.1953 91.5402 24.1231C91.5619 24.0572 91.6027 23.9981 91.6582 23.9524C91.718 23.8935 91.7579 23.8195 91.7727 23.7398C91.7727 23.685 91.8005 23.6399 91.8352 23.6399C91.8941 23.6256 91.9471 23.5952 91.9873 23.5528C92.0275 23.5103 92.053 23.4576 92.0607 23.4016C92.0854 23.3133 92.1359 23.233 92.2065 23.1696C92.2734 23.1112 92.3235 23.0381 92.3522 22.9571C92.3522 22.9184 92.3765 22.8894 92.4077 22.8894C92.4389 22.8894 92.4667 22.8379 92.4667 22.7767C92.4667 22.6607 92.5916 22.5126 92.6923 22.5126C92.727 22.5126 92.7547 22.4578 92.7547 22.3902C92.7582 22.3511 92.7705 22.3131 92.7909 22.2787C92.8112 22.2443 92.8391 22.2142 92.8727 22.1905C92.9118 22.16 92.9426 22.1213 92.9626 22.0776C92.9825 22.034 92.9909 21.9865 92.9872 21.9392V21.7621H91.686C90.298 21.7621 90.1523 21.7878 90.1523 22.0423C90.1523 22.0938 90.128 22.1389 90.0968 22.1389C90.0655 22.1389 90.0378 22.1743 90.0378 22.2194C90.0378 22.2645 90.0135 22.3 89.9788 22.3C89.9441 22.3 89.9233 22.3483 89.9233 22.4063C89.9233 22.4642 89.8955 22.5126 89.8643 22.5126C89.8331 22.5126 89.7914 22.5738 89.7741 22.6478C89.7567 22.7219 89.7116 22.7831 89.6838 22.7831C89.6561 22.7831 89.6318 22.8411 89.6318 22.9152C89.6318 22.9893 89.6075 23.0505 89.5763 23.0505C89.5451 23.0505 89.5173 23.0956 89.5173 23.1535C89.517 23.1808 89.5087 23.2074 89.4935 23.2306C89.4782 23.2539 89.4565 23.2729 89.4305 23.2856C89.4038 23.2991 89.3816 23.3192 89.3663 23.3436C89.351 23.368 89.3433 23.3959 89.3438 23.4241C89.3438 23.4853 89.3195 23.5336 89.2848 23.5336C89.2501 23.5336 89.2293 23.5884 89.2293 23.6592C89.2265 23.7012 89.2114 23.7416 89.1857 23.7762C89.1601 23.8108 89.1247 23.8383 89.0836 23.8557C89.0424 23.8731 89.0071 23.9006 88.9814 23.9352C88.9557 23.9698 88.9407 24.0103 88.9378 24.0522C88.9378 24.1231 88.9135 24.1778 88.8823 24.1778C88.8511 24.1778 88.8233 24.1295 88.8233 24.0683C88.8239 24.0401 88.8161 24.0122 88.8008 23.9878C88.7855 23.9634 88.7633 23.9433 88.7366 23.9298C88.7109 23.9176 88.6893 23.8992 88.674 23.8765C88.6588 23.8538 88.6504 23.8277 88.6498 23.801C88.6519 23.7762 88.6476 23.7513 88.6374 23.7284C88.6271 23.7054 88.6112 23.6851 88.5908 23.6689C88.5717 23.6506 88.557 23.6289 88.5474 23.6051C88.5378 23.5812 88.5337 23.5558 88.5353 23.5304C88.5353 23.4724 88.5076 23.4273 88.4763 23.4273C88.4451 23.4273 88.4173 23.3887 88.4173 23.3468C88.4173 23.3254 88.4082 23.305 88.3919 23.2899C88.3757 23.2748 88.3536 23.2663 88.3306 23.2663C88.282 23.2663 88.2438 23.218 88.2438 23.1568C88.2438 23.0956 88.2196 23.0505 88.1883 23.0505C88.1571 23.0505 88.1293 22.9893 88.1293 22.9152C88.1293 22.8411 88.105 22.7831 88.0703 22.7831C88.0356 22.7831 88.0148 22.7219 88.0148 22.6478C88.0148 22.5738 87.9801 22.5126 87.9281 22.5126C87.9057 22.5126 87.8841 22.5045 87.8679 22.4901C87.8518 22.4757 87.8422 22.456 87.8413 22.4352C87.7746 22.22 87.6559 22.0218 87.4943 21.8555C87.3972 21.7717 87.2376 21.7621 85.9363 21.7621H84.4859V21.8973V21.8716ZM97.3246 25.9623V30.1496H98.6119H99.8992V21.7427H97.2968V25.9301L97.3246 25.9623ZM104.931 25.9301V30.1464H107.908C109.809 30.1464 110.868 30.1271 110.888 30.0916C110.956 30.0483 111.039 30.0289 111.121 30.0369C111.222 30.0395 111.32 30.0112 111.402 29.9564C111.459 29.9094 111.531 29.8811 111.607 29.8758C111.673 29.8758 111.728 29.8533 111.728 29.8243C111.728 29.7953 111.784 29.7695 111.85 29.7695C111.922 29.7684 111.992 29.7446 112.047 29.7019C112.242 29.5408 112.304 29.5022 112.367 29.5022C112.429 29.5022 112.412 29.4764 112.394 29.4474C112.377 29.4184 112.394 29.3927 112.446 29.3927C112.498 29.3927 112.537 29.3476 112.537 29.2832C112.556 29.1902 112.607 29.1055 112.682 29.0416C112.761 28.9696 112.812 28.8757 112.828 28.7742C112.828 28.7002 112.852 28.6422 112.884 28.6422C112.962 28.1078 112.962 27.566 112.884 27.0317C112.852 27.0317 112.828 26.9705 112.828 26.8964C112.828 26.8223 112.793 26.7643 112.741 26.7643C112.718 26.7643 112.696 26.7558 112.68 26.7407C112.664 26.7256 112.655 26.7051 112.655 26.6838C112.655 26.6387 112.63 26.6033 112.603 26.6033C112.575 26.6033 112.537 26.5549 112.523 26.4937C112.514 26.4629 112.494 26.4357 112.466 26.4164C112.438 26.3972 112.405 26.387 112.37 26.3875C112.304 26.3875 112.249 26.3617 112.249 26.3295C112.249 26.2361 112.092 26.1201 111.964 26.1201C111.898 26.1201 111.843 26.0943 111.843 26.0654C111.843 26.0364 111.78 26.0106 111.7 26.0106C111.621 26.0106 111.558 25.988 111.569 25.8785C111.579 25.769 111.614 25.7432 111.711 25.7432C111.808 25.7432 111.843 25.7207 111.843 25.6885C111.843 25.6563 111.888 25.637 111.94 25.637C112.051 25.637 112.384 25.3148 112.405 25.2086C112.407 25.1876 112.415 25.1674 112.427 25.15C112.44 25.1325 112.457 25.1183 112.478 25.1087C112.509 25.1087 112.537 25.0443 112.537 24.9895C112.536 24.9649 112.541 24.9404 112.551 24.9176C112.561 24.8948 112.576 24.8743 112.596 24.8575C112.644 24.7758 112.664 24.6827 112.655 24.5901C112.655 24.4355 112.682 24.3485 112.741 24.3292C112.8 24.3099 112.828 24.21 112.828 23.9717C112.828 23.7333 112.804 23.6496 112.741 23.6141C112.679 23.5787 112.655 23.5078 112.655 23.35C112.655 23.1922 112.627 23.1117 112.596 23.1117C112.564 23.1117 112.537 23.044 112.537 22.9635C112.537 22.7831 111.843 22.0938 111.666 22.0938C111.607 22.0938 111.555 22.0681 111.555 22.0391C111.555 22.0101 111.478 21.9843 111.388 21.9843C111.3 21.9866 111.215 21.9578 111.149 21.9038C111.085 21.8513 111.002 21.8226 110.916 21.8233C110.845 21.8294 110.773 21.8111 110.715 21.7717C109.752 21.7085 108.786 21.6903 107.821 21.717H104.958V25.9494L104.931 25.9301ZM117.565 25.9494V30.1657H121.069L124.563 30.1367V29.2993C124.563 28.8322 124.563 28.4167 124.563 28.3716C124.563 28.3265 124.275 28.2911 122.336 28.2911H120.111V21.7427H117.565V25.9494ZM126.277 21.7621C126.205 21.8329 126.243 21.9714 126.357 22.0487C126.39 22.0728 126.417 22.103 126.437 22.1374C126.457 22.1718 126.469 22.2096 126.472 22.2484C126.472 22.3225 126.506 22.3708 126.559 22.3708C126.611 22.3708 126.645 22.4191 126.645 22.4771C126.645 22.5351 126.673 22.5866 126.704 22.5866C126.735 22.5866 126.76 22.6446 126.76 22.7187C126.76 22.7928 126.788 22.854 126.819 22.854C126.827 22.8548 126.836 22.8572 126.844 22.861C126.851 22.8649 126.858 22.8701 126.863 22.8764C126.869 22.8827 126.873 22.8899 126.875 22.8977C126.878 22.9054 126.879 22.9136 126.878 22.9216C126.905 23.0027 126.954 23.0759 127.02 23.1342C127.095 23.2037 127.146 23.2923 127.166 23.3887C127.166 23.4499 127.19 23.4982 127.218 23.4982C127.246 23.4982 127.287 23.5594 127.305 23.6335C127.322 23.7076 127.367 23.7559 127.398 23.7398C127.429 23.7237 127.454 23.7688 127.454 23.8428C127.454 23.9169 127.482 23.9813 127.513 23.9813C127.544 23.9813 127.572 24.0329 127.572 24.0941C127.572 24.21 127.697 24.3582 127.797 24.3582C127.832 24.3582 127.86 24.4162 127.86 24.4903C127.86 24.5644 127.888 24.6255 127.919 24.6255C127.95 24.6255 127.974 24.6835 127.974 24.7544C127.973 24.7855 127.98 24.8164 127.995 24.8441C128.01 24.8718 128.033 24.8953 128.061 24.9122C128.085 24.9217 128.106 24.9373 128.122 24.9572C128.137 24.9771 128.146 25.0006 128.148 25.025C128.148 25.0733 128.176 25.1087 128.207 25.1087C128.238 25.1087 128.266 25.1506 128.266 25.2021C128.266 25.3181 128.398 25.4856 128.488 25.4856C128.523 25.4856 128.554 25.5435 128.554 25.6176C128.554 25.6917 128.581 25.7529 128.613 25.7529C128.644 25.7529 128.668 25.8141 128.668 25.8882C128.668 25.9623 128.696 26.0203 128.727 26.0203C128.758 26.0203 128.786 26.0686 128.786 26.1298C128.786 26.191 128.824 26.2361 128.873 26.2361C128.922 26.2361 128.96 26.2844 128.96 26.3585C128.963 26.3973 128.975 26.4351 128.994 26.4695C129.014 26.5039 129.041 26.5341 129.074 26.5582C129.107 26.5822 129.134 26.6124 129.154 26.6468C129.174 26.6812 129.186 26.719 129.189 26.7579C129.189 26.832 129.223 26.8803 129.275 26.8803C129.327 26.8803 129.362 26.9318 129.362 27.0156C129.362 27.0993 129.39 27.1476 129.421 27.1476C129.49 27.6463 129.51 28.1498 129.48 28.6518V30.1561H132.024V28.5713C132.024 27.1992 132.024 26.9866 132.11 26.9866C132.131 26.9845 132.15 26.9765 132.166 26.9638C132.181 26.9512 132.192 26.9344 132.197 26.9157C132.196 26.8901 132.201 26.8645 132.211 26.8406C132.221 26.8168 132.236 26.7952 132.256 26.7772C132.275 26.7596 132.29 26.7384 132.299 26.7151C132.309 26.6917 132.313 26.6668 132.312 26.6419C132.312 26.5839 132.339 26.5356 132.371 26.5356C132.402 26.5356 132.43 26.4776 132.43 26.4036C132.43 26.3295 132.461 26.2683 132.516 26.2683C132.572 26.2683 132.603 26.22 132.603 26.162C132.603 26.104 132.627 26.0525 132.659 26.0525C132.69 26.0525 132.718 26.017 132.718 25.9719C132.718 25.9268 132.742 25.8914 132.77 25.8914C132.797 25.8914 132.836 25.8334 132.856 25.7594C132.877 25.6853 132.919 25.6241 132.95 25.6241C132.981 25.6241 133.006 25.5758 133.006 25.5178C133.006 25.4598 133.033 25.4083 133.065 25.4083C133.096 25.4083 133.124 25.3503 133.124 25.2762C133.124 25.2021 133.155 25.1409 133.21 25.1409C133.235 25.1377 133.258 25.1261 133.274 25.1082C133.29 25.0903 133.298 25.0675 133.297 25.0443C133.311 24.9643 133.351 24.8901 133.412 24.8317C133.474 24.7693 133.514 24.6905 133.526 24.6062C133.526 24.545 133.557 24.5032 133.592 24.5096C133.627 24.516 133.665 24.4742 133.675 24.4162C133.678 24.3911 133.687 24.3669 133.7 24.3452C133.714 24.3235 133.733 24.3049 133.755 24.2906C133.79 24.2906 133.818 24.2133 133.818 24.1424C133.818 24.0715 133.842 24.0136 133.873 24.0136C133.904 24.0136 133.932 23.9717 133.932 23.9201C133.954 23.8337 134.005 23.756 134.078 23.6979C134.151 23.6397 134.201 23.5603 134.22 23.4724C134.22 23.4144 134.248 23.3693 134.279 23.3693C134.31 23.3693 134.338 23.321 134.338 23.2631C134.338 23.2051 134.376 23.1535 134.425 23.1535C134.473 23.1535 134.512 23.1052 134.512 23.0311C134.515 22.9924 134.527 22.9547 134.547 22.9204C134.566 22.886 134.593 22.8558 134.626 22.8314C134.659 22.8074 134.686 22.7772 134.706 22.7428C134.726 22.7084 134.737 22.6706 134.741 22.6317C134.741 22.5641 134.768 22.5093 134.8 22.5093C134.831 22.5093 134.872 22.4514 134.893 22.3773C134.914 22.3032 134.952 22.242 134.98 22.242C135.008 22.242 135.032 22.1937 135.032 22.1357C135.032 22.0777 135.056 22.0262 135.088 22.0262C135.119 22.0262 135.147 21.9682 135.147 21.8941V21.7588H133.818C132.454 21.7588 132.454 21.7588 132.482 21.9618C132.482 21.9972 132.45 22.0262 132.402 22.0262C132.353 22.0262 132.312 22.0777 132.312 22.1615C132.312 22.2452 132.287 22.2967 132.256 22.2967C132.225 22.2967 132.197 22.3418 132.197 22.3966C132.197 22.4246 132.188 22.452 132.172 22.4758C132.156 22.4997 132.134 22.519 132.107 22.5319C132.058 22.5319 132.031 22.5866 132.048 22.6124C132.065 22.6382 132.048 22.6994 131.996 22.7445C131.945 22.7973 131.915 22.864 131.909 22.9345C131.909 22.9957 131.881 23.0472 131.85 23.0472C131.819 23.0472 131.791 23.0923 131.791 23.1503C131.791 23.1775 131.783 23.2042 131.767 23.2274C131.752 23.2506 131.73 23.2696 131.704 23.2824C131.679 23.2941 131.658 23.3119 131.642 23.334C131.627 23.3562 131.618 23.3817 131.618 23.408C131.612 23.4431 131.599 23.4768 131.58 23.5073C131.56 23.5377 131.534 23.5642 131.503 23.5852C131.471 23.6082 131.444 23.6373 131.424 23.6706C131.404 23.7039 131.392 23.7406 131.389 23.7784C131.391 23.8062 131.385 23.8341 131.372 23.8591C131.358 23.884 131.338 23.9051 131.312 23.9201C131.286 23.9433 131.264 23.9712 131.249 24.0022C131.234 24.0332 131.226 24.0666 131.226 24.1005C131.226 24.1875 131.187 24.2648 131.156 24.2745C131.125 24.2841 131.097 24.3485 131.097 24.4194C131.097 24.4903 131.073 24.5515 131.042 24.5515C131.01 24.5515 130.983 24.5966 130.983 24.6513C130.984 24.6788 130.976 24.7059 130.96 24.7293C130.945 24.7527 130.923 24.7715 130.896 24.7834C130.869 24.7974 130.847 24.8181 130.831 24.843C130.816 24.868 130.808 24.8964 130.809 24.9251C130.809 24.9831 130.809 25.0346 130.774 25.0346C130.74 25.0346 130.577 24.8768 130.577 24.793C130.575 24.7682 130.566 24.7442 130.551 24.7237C130.536 24.7033 130.514 24.6871 130.49 24.6771C130.462 24.6602 130.439 24.6367 130.424 24.609C130.409 24.5813 130.401 24.5503 130.403 24.5193C130.403 24.4484 130.379 24.3904 130.348 24.3904C130.316 24.3904 130.289 24.3163 130.289 24.2294C130.289 24.1424 130.264 24.0683 130.23 24.0683C130.195 24.0683 130.174 24.0168 130.174 23.9588C130.174 23.9302 130.166 23.9021 130.151 23.8772C130.136 23.8524 130.114 23.8316 130.087 23.8171C130.059 23.8007 130.036 23.7772 130.02 23.7494C130.005 23.7216 129.998 23.6904 130.001 23.6592C130.001 23.5884 129.973 23.5304 129.942 23.5304C129.91 23.5304 129.883 23.4917 129.883 23.4434C129.861 23.3602 129.811 23.2856 129.74 23.2308C129.664 23.1701 129.613 23.0872 129.595 22.9957C129.595 22.9345 129.57 22.8862 129.536 22.8862C129.501 22.8862 129.48 22.854 129.48 22.8153C129.48 22.7058 129.307 22.403 129.244 22.403C129.182 22.403 129.189 22.3418 129.189 22.2678C129.189 22.1937 129.164 22.1357 129.133 22.1357C129.102 22.1357 129.074 22.0874 129.074 22.0262C129.074 21.965 129.05 21.9199 129.015 21.9199C128.981 21.9199 128.96 21.8845 128.96 21.8394C128.96 21.7943 126.368 21.7105 126.277 21.7943V21.7621ZM109.441 23.5852C109.459 23.6141 109.542 23.6367 109.625 23.6367C109.713 23.6471 109.794 23.682 109.859 23.7367C109.924 23.7914 109.97 23.8633 109.99 23.9427C109.988 23.9593 109.993 23.976 110.004 23.9892C110.015 24.0024 110.031 24.0112 110.049 24.0136C110.08 24.0136 110.104 24.1553 110.104 24.3357C110.104 24.5869 110.087 24.6578 110.017 24.6578C109.948 24.6578 109.931 24.6835 109.931 24.7125C109.931 24.8542 109.646 25.0346 109.417 25.0346C109.325 25.0262 109.231 25.0442 109.15 25.0862C108.854 25.1415 108.552 25.1599 108.251 25.1409H107.387V23.5304H108.397C108.745 23.5108 109.095 23.5292 109.438 23.5852H109.441ZM109.813 26.9672C109.813 26.9962 109.879 27.0188 109.959 27.0188C110.038 27.0188 110.101 27.051 110.101 27.0993C110.101 27.1476 110.129 27.1798 110.16 27.1798C110.191 27.1798 110.219 27.2281 110.219 27.2893C110.219 27.3505 110.243 27.3956 110.274 27.3956C110.306 27.3956 110.333 27.518 110.333 27.663C110.333 27.8079 110.309 27.9335 110.274 27.9335C110.24 27.9335 110.219 27.9819 110.219 28.0431C110.218 28.108 110.192 28.1704 110.145 28.2189C110.099 28.2673 110.035 28.2987 109.965 28.3072C109.942 28.3075 109.918 28.3125 109.897 28.322C109.875 28.3314 109.856 28.3451 109.841 28.3619C109.752 28.4072 109.65 28.4263 109.549 28.4167C109.358 28.4167 109.292 28.436 109.292 28.4972C109.292 28.5584 109.147 28.5778 108.338 28.5778H107.387V26.9125H108.602C109.007 26.8856 109.415 26.904 109.816 26.9672" fill="#888888"/>
</svg>
