<svg width="56" height="49" viewBox="0 0 56 49" fill="none" xmlns="http://www.w3.org/2000/svg">
<path d="M23.457 38.6348C20.866 38.6348 18.7656 40.7352 18.7656 43.3262C18.7656 45.9172 20.8661 48.0176 23.457 48.0176C26.0481 48.0176 28.1485 45.9171 28.1485 43.3262C28.1486 40.7352 26.0481 38.6348 23.457 38.6348ZM23.457 45.9326C22.0176 45.9326 20.8507 44.7657 20.8507 43.3263C20.8507 41.8868 22.0176 40.72 23.457 40.72C24.8965 40.72 26.0634 41.8868 26.0634 43.3263C26.0635 44.7657 24.8965 45.9326 23.457 45.9326Z" fill="#3B3838"/>
<path d="M42.7744 38.6348C40.1834 38.6348 38.083 40.7352 38.083 43.3262C38.083 45.9172 40.1835 48.0176 42.7744 48.0176C45.3654 48.0176 47.4658 45.9171 47.4658 43.3262C47.4658 40.7352 45.3655 38.6348 42.7744 38.6348ZM42.7744 45.9326C41.335 45.9326 40.1681 44.7657 40.1681 43.3263C40.1681 41.8868 41.335 40.72 42.7744 40.72C44.2139 40.72 45.3807 41.8868 45.3807 43.3263C45.3808 44.7657 44.2139 45.9326 42.7744 45.9326Z" fill="#3B3838"/>
<path d="M55.4813 8.66502C55.212 8.37082 54.8435 8.18665 54.4467 8.14766L12.3508 7.56569L11.1868 4.00916C10.3669 1.63166 8.14048 0.0266106 5.62572 0H1.29327C0.578996 0 0 0.578996 0 1.29327C0 2.00755 0.578996 2.58655 1.29327 2.58655H5.62572C7.03187 2.61761 8.27007 3.52052 8.72963 4.84981L16.9419 29.6159L16.2953 31.1032C15.5741 32.9629 15.7907 35.0561 16.8773 36.7289C17.9535 38.3718 19.764 39.3857 21.7271 39.4448H46.8813C47.5955 39.4448 48.1745 38.8658 48.1745 38.1515C48.1745 37.4372 47.5955 36.8582 46.8813 36.8582H21.727C20.6184 36.8305 19.5979 36.2473 19.0111 35.3063C18.4308 34.3768 18.3117 33.2316 18.6878 32.2024L19.2052 31.0384L46.4285 28.1932C49.4188 27.8639 51.8786 25.689 52.5716 22.7614L55.6755 9.7641C55.8153 9.38982 55.7411 8.96887 55.4813 8.66502ZM50.0496 22.1796C49.6298 24.0641 48.0298 25.4542 46.1052 25.6068L19.2052 28.3873L13.1914 10.1522L52.8301 10.7342L50.0496 22.1796Z" fill="#3B3838"/>
</svg>
