<svg xmlns="http://www.w3.org/2000/svg" viewBox="0 0 337.17 301.54">
  <defs>
    <style>
      .cls-1 {
        fill: #3b3838;
      }
    </style>
  </defs>
  <g id="Layer_2" data-name="Layer 2">
    <g id="Layer_1-2" data-name="Layer 1">
      <g>
        <path class="cls-1" d="M319.4,170.28h-27V114.42A17.86,17.86,0,0,0,274.54,96.6H126.74a17.86,17.86,0,0,0-17.82,17.82v55.86h-27a17.64,17.64,0,0,0-17.78,17.44V286.8a15,15,0,0,0,30,0v-33H307v32.9a15.11,15.11,0,0,0,30.22,0v-99A17.64,17.64,0,0,0,319.4,170.28ZM72.34,245.59V233.36h256.6v12.23Zm44.81-131.17a9.61,9.61,0,0,1,9.59-9.6h147.8a9.63,9.63,0,0,1,9.6,9.6v55.86h-9.8V154.47A17.63,17.63,0,0,0,256.57,137H223.32a17.63,17.63,0,0,0-17.77,17.44v15.81h-9.81V154.47A17.64,17.64,0,0,0,178,137H144.71a17.63,17.63,0,0,0-17.77,17.44v15.81h-9.79Zm96.62,55.86V154.47a9.39,9.39,0,0,1,9.55-9.21h33.26a9.39,9.39,0,0,1,9.54,9.21v15.81Zm-78.6,0V154.47a9.37,9.37,0,0,1,9.54-9.21H178a9.39,9.39,0,0,1,9.54,9.21v15.81Zm-53.28,8.23H319.4a9.39,9.39,0,0,1,9.54,9.21v37.42H72.34V187.72a9.39,9.39,0,0,1,9.55-9.21Zm4,108.29a6.78,6.78,0,0,1-13.56,0v-33H85.9Zm236.16,6.52a6.81,6.81,0,0,1-4.81-1.89,6.74,6.74,0,0,1-2.07-4.72v-32.9h13.76v32.9a6.7,6.7,0,0,1-2.07,4.72,6.78,6.78,0,0,1-4.81,1.89Z"/>
        <path class="cls-1" d="M49.09,290.23H39.58V129.94H66.26a4.71,4.71,0,0,0,3.94-2.14,4.75,4.75,0,0,0,.73-2.19,4.61,4.61,0,0,0-.41-2.28L53.9,87a4.83,4.83,0,0,0-1.73-2,4.75,4.75,0,0,0-2.53-.74H21.3a4.75,4.75,0,0,0-2.53.74A4.83,4.83,0,0,0,17,87L.42,123.33A4.78,4.78,0,0,0,0,125.6a4.7,4.7,0,0,0,2.43,3.77,4.62,4.62,0,0,0,2.24.56h9.78v12.23a7.57,7.57,0,0,0-3.53,6.36,7.64,7.64,0,0,0,15.28,0,7.56,7.56,0,0,0-.95-3.63,7.43,7.43,0,0,0-2.58-2.73V129.93h8.68v160.3H21.85a4.12,4.12,0,0,0,0,8.23H49.09a4.12,4.12,0,0,0,0-8.23Zm-30.52-141a.6.6,0,0,1-.43-.22.62.62,0,0,1-.16-.45,1.57,1.57,0,0,1,0-.23,3.48,3.48,0,0,0,.55,0,3.39,3.39,0,0,0,.55,0,.85.85,0,0,1,0,.23A.62.62,0,0,1,19,149a.6.6,0,0,1-.43.22Zm5-56.72h23.8l13.37,29.24H10.2Z"/>
        <path class="cls-1" d="M119.59,0a4.09,4.09,0,0,0-2.9,1.2,4.14,4.14,0,0,0-1.21,2.91v69.7a4.1,4.1,0,0,0,1.21,2.9,4.06,4.06,0,0,0,2.9,1.21h162.1a4.11,4.11,0,0,0,4.11-4.11V4.11A4.1,4.1,0,0,0,281.69,0ZM215,69.7l-.58-.63,19.2-16.17,17.94,16.8Zm-62.5,0,26.55-26.26,24.67,26.25Zm125.08,0h-14l-27-25.31a4.1,4.1,0,0,0-5.46-.14L208.78,63.06,182.15,34.74a4.05,4.05,0,0,0-1.33-1,4.13,4.13,0,0,0-1.59-.35,3.87,3.87,0,0,0-1.61.29,4,4,0,0,0-1.36.9L140.81,69.69h-17.1V8.22H277.58Z"/>
        <path class="cls-1" d="M208.9,46.46c7.71,0,14-6.69,14-14.92s-6.26-14.92-14-14.92-14,6.7-14,14.92S201.2,46.46,208.9,46.46Zm0-21.61c3.17,0,5.75,3,5.75,6.69s-2.58,6.7-5.75,6.7-5.74-3-5.74-6.7S205.74,24.85,208.9,24.85Z"/>
      </g>
    </g>
  </g>
</svg>
