<svg width="101" height="101" viewBox="0 0 101 101" fill="none" xmlns="http://www.w3.org/2000/svg">
<g filter="url(#filter0_d_5402_33193)">
<circle cx="50.5" cy="47.5" r="45.5" fill="#F7C132"/>
</g>
<path d="M58.0254 48.25C57.6377 47.6038 57.1207 47.0222 56.4746 46.5053C55.8284 46.053 54.9883 45.6006 54.0191 45.2775C53.179 45.0191 52.2744 44.7606 51.3051 44.5021V39.1388C51.822 39.268 52.2097 39.3972 52.5328 39.6557C53.0498 40.108 53.5021 40.6896 53.8898 41.5297C54.2129 42.1112 54.4714 42.4989 54.7299 42.6928C54.9883 42.9513 55.376 43.0805 55.8284 43.0805C56.3453 43.0805 56.7977 42.8866 57.1854 42.4989C57.5731 42.1112 57.7023 41.6589 57.7023 41.1419C57.7023 40.5604 57.5731 40.0434 57.25 39.4619C56.9269 38.8803 56.5392 38.2987 55.893 37.7818C55.2468 37.2648 54.4714 36.8125 53.5667 36.4894C52.9205 36.2955 52.1451 36.1663 51.3051 36.1017V34.1631C51.3051 33.5169 50.7881 33 50.1419 33C49.4958 33 48.9788 33.5169 48.9788 34.1631V36.1017C47.8803 36.1663 46.911 36.4248 46.0064 36.7479C44.8432 37.2002 43.8739 37.911 43.2924 38.8157C42.6462 39.7203 42.3231 40.7542 42.3231 41.9174C42.3231 43.1451 42.6462 44.1144 43.2278 44.9544C43.8093 45.7945 44.6494 46.4407 45.6186 46.893C46.5233 47.3453 47.6218 47.6684 48.9788 47.9915V54.518C48.5911 54.4534 48.2034 54.3241 47.9449 54.1949C47.3633 53.8718 46.9756 53.5487 46.6525 53.0964C46.3294 52.644 46.071 52.0625 45.8125 51.4163C45.6186 50.8347 45.3602 50.447 45.0371 50.1239C44.714 49.8654 44.3263 49.6716 43.8739 49.6716C43.2924 49.6716 42.84 49.8654 42.5169 50.2532C42.1292 50.6409 42 51.0286 42 51.5455C42 52.4502 42.3231 53.3549 42.9047 54.2595C43.4862 55.2288 44.2617 55.9396 45.2309 56.5212C46.2648 57.1027 47.5572 57.4904 49.0434 57.6197V61.3676C49.0434 62.0137 49.5604 62.5307 50.2066 62.5307C50.8527 62.5307 51.3697 62.0137 51.3697 61.3676V57.6197C52.6621 57.5551 53.8252 57.232 54.7945 56.7796C56.0222 56.1981 56.9915 55.4226 57.6377 54.3887C58.2839 53.3549 58.607 52.2563 58.607 50.964C58.607 49.9301 58.4131 49.0254 58.0254 48.25ZM48.9788 43.9205C48.9142 43.8559 48.8496 43.8559 48.785 43.8559C48.3972 43.7267 47.9449 43.5328 47.5572 43.339C47.1695 43.1451 46.8464 42.8866 46.5879 42.5635C46.3294 42.2405 46.2648 41.9174 46.2648 41.465C46.2648 40.8188 46.5879 40.2373 47.2987 39.7203C47.7511 39.3972 48.3326 39.2034 48.9788 39.0741V43.9205ZM53.2436 53.6779C52.7267 54.0657 52.0805 54.3241 51.3051 54.4534V48.5731C51.6282 48.6377 51.8866 48.7669 52.1451 48.8316C52.7913 49.09 53.3729 49.4131 53.7606 49.8008C54.2129 50.2532 54.4068 50.7701 54.4068 51.4809C54.4068 52.321 54.0191 53.0964 53.2436 53.6779Z" fill="black"/>
<defs>
<filter id="filter0_d_5402_33193" x="0" y="0" width="101" height="101" filterUnits="userSpaceOnUse" color-interpolation-filters="sRGB">
<feFlood flood-opacity="0" result="BackgroundImageFix"/>
<feColorMatrix in="SourceAlpha" type="matrix" values="0 0 0 0 0 0 0 0 0 0 0 0 0 0 0 0 0 0 127 0" result="hardAlpha"/>
<feOffset dy="3"/>
<feGaussianBlur stdDeviation="2.5"/>
<feColorMatrix type="matrix" values="0 0 0 0 0 0 0 0 0 0 0 0 0 0 0 0 0 0 0.15 0"/>
<feBlend mode="normal" in2="BackgroundImageFix" result="effect1_dropShadow_5402_33193"/>
<feBlend mode="normal" in="SourceGraphic" in2="effect1_dropShadow_5402_33193" result="shape"/>
</filter>
</defs>
</svg>
