<svg xmlns="http://www.w3.org/2000/svg" viewBox="0 0 420.76 420.76">
  <defs>
    <style>
      .cls-1 {
        fill: #f0b322;
      }
    </style>
  </defs>
  <g id="Layer_2" data-name="Layer 2">
    <g id="Layer_1-2" data-name="Layer 1">
      <g>
        <circle class="cls-1" cx="210.38" cy="210.38" r="210.38"/>
        <path d="M245.18,213.85a30.21,30.21,0,0,0-7.17-8.07,44.74,44.74,0,0,0-11.36-5.67q-5.82-1.8-12.55-3.59v-24.8a14.27,14.27,0,0,1,5.68,2.39,25,25,0,0,1,6.28,8.67c1.49,2.69,2.68,4.48,3.88,5.37A7,7,0,0,0,235,190a8.6,8.6,0,0,0,6.27-2.69,8.29,8.29,0,0,0,2.39-6.28,15.09,15.09,0,0,0-2.09-7.76,24.7,24.7,0,0,0-6.27-7.77,37.45,37.45,0,0,0-10.76-6,51,51,0,0,0-10.46-1.79v-9a5.38,5.38,0,1,0-10.75,0v9a48.67,48.67,0,0,0-13.75,3c-5.37,2.09-9.86,5.37-12.55,9.56a24.09,24.09,0,0,0-4.48,14.34,23.67,23.67,0,0,0,4.19,14,27.22,27.22,0,0,0,11.05,9c4.18,2.09,9.27,3.58,15.54,5.07v30.18a18,18,0,0,1-4.78-1.49,17,17,0,0,1-6-5.08,37.5,37.5,0,0,1-3.88-7.77,14.52,14.52,0,0,0-3.59-6,8.62,8.62,0,0,0-5.38-2.09,8.67,8.67,0,0,0-8.66,8.67c0,4.18,1.49,8.36,4.18,12.55A30,30,0,0,0,186,252.09a43.51,43.51,0,0,0,17.63,5.08V274.5a5.38,5.38,0,1,0,10.75,0V257.17a42.61,42.61,0,0,0,15.84-3.88c5.67-2.69,10.16-6.28,13.15-11.06a28.86,28.86,0,0,0,4.48-15.83A27.78,27.78,0,0,0,245.18,213.85Zm-41.83-20a1.1,1.1,0,0,0-.9-.3,45,45,0,0,1-5.68-2.39,13.25,13.25,0,0,1-4.48-3.58,7.38,7.38,0,0,1-1.49-5.08c0-3,1.49-5.68,4.78-8.07a20.2,20.2,0,0,1,7.77-3v22.41ZM223.07,239a20.18,20.18,0,0,1-9,3.58V215.34c1.5.3,2.7.9,3.89,1.2a22.47,22.47,0,0,1,7.47,4.48,10.14,10.14,0,0,1,3,7.77A12.52,12.52,0,0,1,223.07,239Z"/>
      </g>
    </g>
  </g>
</svg>
