<svg id="Layer_1" data-name="Layer 1" xmlns="http://www.w3.org/2000/svg" viewBox="0 0 50 50">
  <g>
    <circle cx="24.8907" cy="25.721" r="17.5468" style="fill: #fDD601"/>
    <path d="M27.7926,26.01a2.544,2.544,0,0,0-.5981-.673,3.7241,3.7241,0,0,0-.947-.473q-.4858-.15-1.0466-.299V22.496a1.18,1.18,0,0,1,.4735.2,2.0864,2.0864,0,0,1,.5233.722,1.476,1.476,0,0,0,.3239.449.5851.5851,0,0,0,.4237.15.7161.7161,0,0,0,.5233-.225.6925.6925,0,0,0,.1994-.523,1.2687,1.2687,0,0,0-.1745-.648,2.0684,2.0684,0,0,0-.5233-.648,3.0965,3.0965,0,0,0-.8971-.498,4.2128,4.2128,0,0,0-.8722-.15v-.747a.4486.4486,0,1,0-.8971,0v.747a4.09,4.09,0,0,0-1.1463.249,2.1527,2.1527,0,0,0-1.0467.798,2.0057,2.0057,0,0,0-.3737,1.196,1.9772,1.9772,0,0,0,.3488,1.171,2.2778,2.2778,0,0,0,.9221.748,6.0685,6.0685,0,0,0,1.2958.423v2.517a1.5026,1.5026,0,0,1-.3987-.124,1.4058,1.4058,0,0,1-.4984-.424,3.1348,3.1348,0,0,1-.324-.648,1.2039,1.2039,0,0,0-.299-.498.7151.7151,0,0,0-.4486-.175.7238.7238,0,0,0-.7226.723,1.9442,1.9442,0,0,0,.3488,1.047,2.5117,2.5117,0,0,0,.8971.872,3.65,3.65,0,0,0,1.47.424v1.445a.4486.4486,0,0,0,.8971,0V29.624a3.56,3.56,0,0,0,1.3208-.324,2.5217,2.5217,0,0,0,1.0964-.922,2.4048,2.4048,0,0,0,.3738-1.321A2.3132,2.3132,0,0,0,27.7926,26.01Zm-3.4888-1.669a.0914.0914,0,0,0-.0748-.025,3.8264,3.8264,0,0,1-.4734-.2,1.1,1.1,0,0,1-.3738-.299.61.61,0,0,1-.1246-.423.8223.8223,0,0,1,.3987-.673,1.6574,1.6574,0,0,1,.6479-.249Zm1.6447,3.762a1.6729,1.6729,0,0,1-.7476.299V26.135c.1246.025.2243.074.324.099a1.8957,1.8957,0,0,1,.6229.374.8462.8462,0,0,1,.2492.648A1.0413,1.0413,0,0,1,25.9485,28.103Z"/>
  </g>
</svg>
