<svg xmlns="http://www.w3.org/2000/svg" viewBox="0 0 420.76 420.76">
  <defs>
    <style>
      .cls-1 {
        fill: #fDD601;
      }
    </style>
  </defs>
  <g id="Layer_2" data-name="Layer 2">
    <g id="Layer_1-2" data-name="Layer 1">
      <circle class="cls-1" cx="210.38" cy="210.38" r="210.38"/>
      <path d="M112.72,198a14.65,14.65,0,1,0,10.33,4.29A14.65,14.65,0,0,0,112.72,198Zm0,19.49a4.85,4.85,0,0,1-2.71-.82,4.75,4.75,0,0,1-1.79-2.19,4.83,4.83,0,0,1-.28-2.81,4.87,4.87,0,1,1,8.22,4.39A4.83,4.83,0,0,1,112.72,217.44Z"/>
      <path d="M297.92,198a14.65,14.65,0,1,0,10.33,4.29A14.65,14.65,0,0,0,297.92,198Zm0,19.49a4.88,4.88,0,1,1,3.44-1.43A4.85,4.85,0,0,1,297.92,217.44Z"/>
      <path d="M332,212.57a34.12,34.12,0,0,0-34.7-34.11c-18.49.31-33.53,15.82-33.53,34.59v16.37c-13.35-3.63-32.83-7.1-58.49-7.1s-45.13,3.47-58.48,7.1V212.57a34.11,34.11,0,1,0-39,33.77v19.84a19.5,19.5,0,0,0,19.49,19.49V300.3a4.88,4.88,0,0,0,4.88,4.87h14.62a4.84,4.84,0,0,0,2.56-.73,4.77,4.77,0,0,0,1.79-2l8.4-16.81h91.46l8.4,16.81a4.77,4.77,0,0,0,1.79,2,4.85,4.85,0,0,0,2.57.73h14.62a4.87,4.87,0,0,0,4.87-4.87V285.67a19.5,19.5,0,0,0,19.49-19.49V246.34A34.18,34.18,0,0,0,332,212.57ZM143.82,295.42h-6.73v-9.75H148.7Zm129.73,0h-6.73l-4.88-9.75h11.61Zm24.37-58.48a4.87,4.87,0,0,0-4.87,4.87v24.37a9.76,9.76,0,0,1-9.75,9.75h-156a9.76,9.76,0,0,1-9.75-9.75V241.81a4.85,4.85,0,0,0-4.87-4.87,24.43,24.43,0,0,1-17.57-7.48,24.37,24.37,0,1,1,41.94-16.89v19.86A82.65,82.65,0,0,0,125,237.56l4.77,8.5c.25-.14,25.76-14,75.6-14s75.35,13.86,75.59,14l4.78-8.5a82,82,0,0,0-12.14-5.13V213.05c0-13.48,10.75-24.63,23.95-24.85a24.42,24.42,0,0,1,9.41,1.72A24.42,24.42,0,0,1,320.34,203a24.38,24.38,0,0,1-22.42,33.94Z"/>
      <path d="M117.59,144.34a9.76,9.76,0,0,1,9.75-9.75h156a9.76,9.76,0,0,1,9.75,9.75v36.85h9.74V144.34a19.51,19.51,0,0,0-19.49-19.5h-156a19.51,19.51,0,0,0-19.49,19.5V181.8h9.74Z"/>
      <path d="M176.08,159a4.88,4.88,0,0,1,4.87-4.88h0a4.89,4.89,0,0,1,4.88,4.88h0a4.88,4.88,0,0,1-4.88,4.87h0a4.87,4.87,0,0,1-4.87-4.87Z"/>
      <path d="M200.45,183.33a4.88,4.88,0,0,1,4.87-4.88h0a4.89,4.89,0,0,1,4.88,4.88h0a4.88,4.88,0,0,1-4.88,4.87h0a4.87,4.87,0,0,1-4.87-4.87Z"/>
      <path d="M151.71,183.33a4.88,4.88,0,0,1,4.87-4.88h0a4.88,4.88,0,0,1,4.88,4.88h0a4.87,4.87,0,0,1-4.88,4.87h0a4.87,4.87,0,0,1-4.87-4.87Z"/>
      <path d="M176.08,207.7a4.87,4.87,0,0,1,4.87-4.88h0a4.88,4.88,0,0,1,4.88,4.88h0a4.88,4.88,0,0,1-4.88,4.87h0a4.87,4.87,0,0,1-4.87-4.87Z"/>
      <path d="M224.82,159a4.88,4.88,0,0,1,4.87-4.88h0a4.88,4.88,0,0,1,4.87,4.88h0a4.87,4.87,0,0,1-4.87,4.87h0a4.87,4.87,0,0,1-4.87-4.87Z"/>
      <path d="M249.19,183.33a4.88,4.88,0,0,1,4.87-4.88h0a4.88,4.88,0,0,1,4.87,4.88h0a4.87,4.87,0,0,1-4.87,4.87h0a4.87,4.87,0,0,1-4.87-4.87Z"/>
      <path d="M224.82,207.7a4.87,4.87,0,0,1,4.87-4.88h0a4.87,4.87,0,0,1,4.87,4.88h0a4.87,4.87,0,0,1-4.87,4.87h0a4.87,4.87,0,0,1-4.87-4.87Z"/>
    </g>
  </g>
</svg>
