<svg id="Layer_1" data-name="Layer 1"  xmlns="http://www.w3.org/2000/svg" xmlns:xlink="http://www.w3.org/1999/xlink" viewBox="0 0 50 50">
  <defs>
    <clipPath id="clip-path">
      <rect x="12.9193" y="18.495" width="24.1613" height="13.01" style="fill: none"/>
    </clipPath>
  </defs>
  <g>
    <circle cx="25" cy="25" r="25"  fill="#F7C132"/>
    <g style="clip-path: url(#clip-path)">
      <g>
        <path d="M17.0763,24.4768c-.3412,0-.6475-.002-.9538.0006-.2656.0022-.4192.1385-.4216.367a.3664.3664,0,0,0,.4113.38q3.3066.003,6.6133-.0008a.497.497,0,0,0,.2258-.0472.3426.3426,0,0,0,.1722-.1709.338.338,0,0,0,.0149-.2411.3764.3764,0,0,0-.4238-.2888q-2.3029.0048-4.6058.0016h-.275v-.3923c0-.5776.0029-1.1554-.002-1.7331a.3813.3813,0,0,0-.3743-.4.3769.3769,0,0,0-.38.3923c-.0039.0857-.0015.1717-.0015.2575C17.0763,23.2159,17.0763,23.8311,17.0763,24.4768Z" style="fill: #fff"/>
        <path d="M14.5617,23.2526c.4087,0,.8174.0024,1.2261-.0008.2877-.0022.46-.1539.4558-.3907-.0043-.2262-.1679-.3648-.4513-.3659q-1.2261-.0045-2.4523,0c-.3378.0012-.4219.0834-.4207.3849.0012.2773.11.3709.44.3724C13.76,23.2541,14.1608,23.2527,14.5617,23.2526Z" style="fill: #fff"/>
        <path d="M30.3272,19.2723H17.8494v1.14c.5678,0,1.1251,0,1.6825,0,.1812,0,.3634-.0087.5432.0077a.3668.3668,0,0,1,.3608.3859.3777.3777,0,0,1-.3552.37,1.3687,1.3687,0,0,1-.1888.0056q-2.139,0-4.2779,0c-.0473,0-.0948.0023-.1418-.0014a.4049.4049,0,0,1-.4131-.3719.39.39,0,0,1,.4126-.3924c.441-.0106.8824-.0038,1.3236-.0042h.2811c0-.39-.0012-.7551,0-1.12a.7.7,0,0,1,.7943-.7957q6.2165-.0035,12.433,0a.7162.7162,0,0,1,.8118.81q.0023,1.1133,0,2.2266v.2754h.2773c.8036,0,1.6073.0039,2.4109-.0014a1.0174,1.0174,0,0,1,.9671.55q.9973,1.78,1.9995,3.5567a2.3344,2.3344,0,0,1,.3095,1.186c-.0063.6718,0,1.3438-.0023,2.0156a.6284.6284,0,0,1-.7029.6953c-.4107-.0258-.65.0379-.8169.4951A1.966,1.966,0,0,1,33.5734,31.5a2.0746,2.0746,0,0,1-1.1608-.4425,2.0444,2.0444,0,0,1-.6934-1.0237c-.0546-.1841-.1341-.2191-.3088-.2187q-3.1672.0084-6.3346-.0009c-.1815,0-.2686.0353-.3264.2273a2.0468,2.0468,0,0,1-.754,1.0628,2.0775,2.0775,0,0,1-2.4761-.0215,2.0556,2.0556,0,0,1-.7352-1.0624c-.0514-.1794-.1335-.2061-.2938-.2052-.9769.0056-1.9539.0034-2.9309.0025-.3562,0-.4818-.1241-.4825-.4778-.0015-.7886,0-1.5772,0-2.3939-.1027-.0046-.1936-.0121-.2844-.0122q-1.2291-.0014-2.4582-.0011c-.0864,0-.1953.0224-.2544-.02a.7747.7747,0,0,1-.2958-.3139.3074.3074,0,0,1,.2215-.387.8016.8016,0,0,1,.2766-.04q2.2691-.0035,4.5382-.0013a1.0469,1.0469,0,0,1,.1651.0062.4019.4019,0,0,1,.2455.1284.396.396,0,0,1,.1028.2557.3671.3671,0,0,1-.107.2541.3734.3734,0,0,1-.2547.11c-.2513.015-.5039.007-.756.0085-.1168.0006-.2337,0-.366,0v2.1141a1.7044,1.7044,0,0,0,.1747.0171c.8351.0012,1.67-.0019,2.5055.0035a.2082.2082,0,0,0,.2451-.1774,2.0788,2.0788,0,0,1,3.998.0027c.0334.112.0627.1747.1972.1744q2.6237-.0062,5.2473-.0042a.7036.7036,0,0,0,.11-.0206Zm5.9963,9.7809c0-.636.025-1.26-.0106-1.8808a2.25,2.25,0,0,0-.2351-.9126c-.6278-1.17-1.2939-2.3194-1.94-3.48a.3759.3759,0,0,0-.1543-.1672.38.38,0,0,0-.2233-.0483c-.8112.0065-1.6224.0025-2.4336.0035-.0612,0-.1223.009-.1937.0146V29.045c.47.066.47.066.6276-.3407a2.0838,2.0838,0,0,1,3.8591-.0478C35.7984,29.0872,35.7984,29.0872,36.3235,29.0532Zm-14.8509.378a1.2916,1.2916,0,0,0,1.303,1.3122,1.3149,1.3149,0,0,0,.9209-.3814,1.3012,1.3012,0,0,0,.002-1.8406,1.3035,1.3035,0,0,0-1.8492-.0055,1.2855,1.2855,0,0,0-.3767.9153Zm13.5294.02a1.2922,1.2922,0,0,0-.3736-.9281,1.3,1.3,0,0,0-1.8485-.0083,1.2943,1.2943,0,0,0-.3834.9131,1.2869,1.2869,0,0,0,.3735.9293,1.311,1.311,0,0,0,1.8521.008,1.2836,1.2836,0,0,0,.38-.914Z"/>
        <path d="M17.0763,24.4768c0-.6457,0-1.2609,0-1.8762,0-.0858-.0024-.1718.0015-.2575a.3769.3769,0,0,1,.38-.3923.3813.3813,0,0,1,.3743.4c.0049.5777.0019,1.1555.002,1.7331v.3923h.275q2.303,0,4.6058-.0016a.3764.3764,0,0,1,.4238.2888.338.338,0,0,1-.0149.2411.3426.3426,0,0,1-.1722.1709.497.497,0,0,1-.2258.0472q-3.3066.0036-6.6133.0008a.3664.3664,0,0,1-.4113-.38c.0024-.2285.156-.3648.4216-.367C16.4288,24.4748,16.7351,24.4768,17.0763,24.4768Z"/>
        <path d="M14.5617,23.2527c-.4009,0-.8017.0015-1.2026,0-.33-.0015-.4386-.0951-.44-.3725-.0012-.3015.0829-.3836.4207-.3848q1.2261-.0045,2.4523,0c.2834.001.447.14.4513.3659.0045.2368-.1681.3885-.4558.3907C15.3791,23.2551,14.97,23.2527,14.5617,23.2527Z"/>
      </g>
    </g>
  </g>
</svg>
