<svg xmlns="http://www.w3.org/2000/svg" viewBox="0 0 420.76 420.76">
  <defs>
    <style>
      .cls-1 {
        fill: #f0b322;
      }
    </style>
  </defs>
  <g id="Layer_2" data-name="Layer 2">
    <g id="Layer_1-2" data-name="Layer 1">
      <circle class="cls-1" cx="210.38" cy="210.38" r="210.38"/>
      <path d="M106.45,319H210.38a4.73,4.73,0,0,0,4.73-4.72V210.38a4.72,4.72,0,0,0-4.73-4.72H106.45a4.72,4.72,0,0,0-4.73,4.72V314.32A4.73,4.73,0,0,0,106.45,319Zm99.21-9.45H111.17V215.11h94.49Z"/>
      <path d="M158.42,215.11H262.35a4.72,4.72,0,0,0,4.72-4.73V106.45a4.72,4.72,0,0,0-4.72-4.73H158.42a4.73,4.73,0,0,0-4.73,4.73V210.38A4.73,4.73,0,0,0,158.42,215.11Zm99.2-9.45H163.14V111.17h94.48Z"/>
      <path d="M196.21,149h28.34a4.73,4.73,0,0,0,4.73-4.73V106.45a4.73,4.73,0,0,0-4.73-4.73H196.21a4.73,4.73,0,0,0-4.73,4.73v37.79A4.73,4.73,0,0,0,196.21,149Zm23.62-9.45h-18.9V111.17h18.9Z"/>
      <path d="M144.24,252.9h28.35a4.72,4.72,0,0,0,4.72-4.72v-37.8a4.72,4.72,0,0,0-4.72-4.72H144.24a4.72,4.72,0,0,0-4.72,4.72v37.8A4.72,4.72,0,0,0,144.24,252.9Zm23.62-9.45H149V215.11h18.9Z"/>
      <path d="M210.38,319H314.32a4.73,4.73,0,0,0,4.72-4.72V210.38a4.72,4.72,0,0,0-4.72-4.72H210.38a4.72,4.72,0,0,0-4.72,4.72V314.32A4.72,4.72,0,0,0,210.38,319Zm99.21-9.45H215.11V215.11h94.48Z"/>
      <path d="M248.18,252.9h28.34a4.73,4.73,0,0,0,4.73-4.72v-37.8a4.72,4.72,0,0,0-4.73-4.72H248.18a4.72,4.72,0,0,0-4.73,4.72v37.8A4.73,4.73,0,0,0,248.18,252.9Zm23.62-9.45H252.9V215.11h18.9Z"/>
    </g>
  </g>
</svg>
