<svg width="101" height="101" viewBox="0 0 101 101" fill="none" xmlns="http://www.w3.org/2000/svg">
<g filter="url(#filter0_d_5402_33184)">
<circle cx="50.5" cy="47.5" r="45.5" fill="#F7C132"/>
</g>
<path d="M28.0215 71.0003H50.4997C51.0637 71.0003 51.5215 70.5425 51.5215 69.9785V47.5003C51.5215 46.9363 51.0637 46.4785 50.4997 46.4785H28.0215C27.4575 46.4785 26.9997 46.9363 26.9997 47.5003V69.9785C26.9997 70.5425 27.4575 71.0003 28.0215 71.0003ZM49.478 68.9568H29.0432V48.522H49.478V68.9568Z" fill="black"/>
<path d="M39.2607 48.5217H61.739C62.303 48.5217 62.7607 48.064 62.7607 47.5V25.0217C62.7607 24.4577 62.303 24 61.739 24H39.2607C38.6967 24 38.239 24.4577 38.239 25.0217V47.5C38.239 48.064 38.6967 48.5217 39.2607 48.5217ZM60.7173 46.4783H40.2825V26.0435H60.7173V46.4783Z" fill="black"/>
<path d="M47.4347 34.2174H53.5652C54.1292 34.2174 54.5869 33.7597 54.5869 33.1957V25.0217C54.5869 24.4577 54.1292 24 53.5652 24H47.4347C46.8707 24 46.413 24.4577 46.413 25.0217V33.1957C46.413 33.7597 46.8707 34.2174 47.4347 34.2174ZM52.5434 32.1739H48.4565V26.0435H52.5434V32.1739Z" fill="black"/>
<path d="M36.1955 56.6959H42.3259C42.8899 56.6959 43.3477 56.2382 43.3477 55.6742V47.5003C43.3477 46.9363 42.8899 46.4785 42.3259 46.4785H36.1955C35.6315 46.4785 35.1737 46.9363 35.1737 47.5003V55.6742C35.1737 56.2382 35.6315 56.6959 36.1955 56.6959ZM41.3042 54.6524H37.2172V48.522H41.3042V54.6524Z" fill="black"/>
<path d="M50.5 71.0003H72.9783C73.5423 71.0003 74 70.5425 74 69.9785V47.5003C74 46.9363 73.5423 46.4785 72.9783 46.4785H50.5C49.936 46.4785 49.4783 46.9363 49.4783 47.5003V69.9785C49.4783 70.5425 49.936 71.0003 50.5 71.0003ZM71.9565 68.9568H51.5217V48.522H71.9565V68.9568Z" fill="black"/>
<path d="M58.674 56.6959H64.8044C65.3684 56.6959 65.8262 56.2382 65.8262 55.6742V47.5003C65.8262 46.9363 65.3684 46.4785 64.8044 46.4785H58.674C58.11 46.4785 57.6523 46.9363 57.6523 47.5003V55.6742C57.6523 56.2382 58.11 56.6959 58.674 56.6959ZM63.7827 54.6524H59.6957V48.522H63.7827V54.6524Z" fill="black"/>
<defs>
<filter id="filter0_d_5402_33184" x="0" y="0" width="101" height="101" filterUnits="userSpaceOnUse" color-interpolation-filters="sRGB">
<feFlood flood-opacity="0" result="BackgroundImageFix"/>
<feColorMatrix in="SourceAlpha" type="matrix" values="0 0 0 0 0 0 0 0 0 0 0 0 0 0 0 0 0 0 127 0" result="hardAlpha"/>
<feOffset dy="3"/>
<feGaussianBlur stdDeviation="2.5"/>
<feColorMatrix type="matrix" values="0 0 0 0 0 0 0 0 0 0 0 0 0 0 0 0 0 0 0.15 0"/>
<feBlend mode="normal" in2="BackgroundImageFix" result="effect1_dropShadow_5402_33184"/>
<feBlend mode="normal" in="SourceGraphic" in2="effect1_dropShadow_5402_33184" result="shape"/>
</filter>
</defs>
</svg>
