<svg id="Layer_1" data-name="Layer 1" xmlns="http://www.w3.org/2000/svg" viewBox="0 0 50 50">
  <g>
    <circle cx="24.9899" cy="25.2046" r="17.5468" style="fill: #F7C132"/>
    <path d="M16.8442,24.1676a1.22,1.22,0,1,0,.8619.357A1.2188,1.2188,0,0,0,16.8442,24.1676Zm0,1.626a.4065.4065,0,0,1-.2874-.694.4074.4074,0,0,1,.443-.088.4065.4065,0,0,1-.1556.782Z"/>
    <path d="M32.2905,24.1676a1.22,1.22,0,1,0,.8619.357A1.2188,1.2188,0,0,0,32.2905,24.1676Zm0,1.626a.4065.4065,0,0,1-.2874-.694.4074.4074,0,0,1,.443-.088.4065.4065,0,0,1-.1556.782Z"/>
    <path d="M35.1362,25.3856a2.8469,2.8469,0,0,0-2.8939-2.845,2.879,2.879,0,0,0-2.797,2.885v1.366a18.6071,18.6071,0,0,0-4.8778-.593,18.608,18.608,0,0,0-4.8779.593v-1.406a2.8451,2.8451,0,1,0-3.2519,2.817v1.655a1.6282,1.6282,0,0,0,1.6259,1.626v1.219a.4082.4082,0,0,0,.4065.407h1.22a.4039.4039,0,0,0,.2137-.061.4124.4124,0,0,0,.15-.164l.7006-1.401h7.6274l.7006,1.401a.4117.4117,0,0,0,.15.164.4038.4038,0,0,0,.2136.061h1.22a.4082.4082,0,0,0,.4065-.407v-1.219a1.6282,1.6282,0,0,0,1.626-1.626v-1.655a2.8509,2.8509,0,0,0,2.4389-2.817Zm-15.6978,6.911h-.5618v-.813h.9683Zm10.82,0h-.5617l-.4065-.813h.9682Zm2.0325-4.878a.4063.4063,0,0,0-.4065.406v2.033a.815.815,0,0,1-.813.813H18.0636a.815.815,0,0,1-.8129-.813v-2.033a.4065.4065,0,0,0-.4065-.406,2.0323,2.0323,0,0,1-.08-4.063,2.0139,2.0139,0,0,1,.8019.131,2.0314,2.0314,0,0,1,1.31,1.899v1.657a6.6647,6.6647,0,0,0-1.0122.428l.3977.709a14.0937,14.0937,0,0,1,6.3054-1.168,14.11,14.11,0,0,1,6.3045,1.167l.3986-.708a6.6749,6.6749,0,0,0-1.0123-.428v-1.617a2.0625,2.0625,0,0,1,1.9976-2.072,2.0326,2.0326,0,1,1,.0349,4.065Z"/>
    <path d="M17.25,19.6956a.8133.8133,0,0,1,.813-.813H31.0709a.8133.8133,0,0,1,.8129.813V22.77h.813v-3.074a1.6282,1.6282,0,0,0-1.6259-1.626H18.0632a1.6282,1.6282,0,0,0-1.626,1.626v3.125h.813Z"/>
    <path d="M22.1286,20.9156a.4065.4065,0,1,1,.4065.407A.4064.4064,0,0,1,22.1286,20.9156Z"/>
    <path d="M24.1609,22.9466a.4065.4065,0,1,1,.4065.407A.4064.4064,0,0,1,24.1609,22.9466Z"/>
    <path d="M20.0954,22.9466a.4065.4065,0,1,1,.4065.407A.4064.4064,0,0,1,20.0954,22.9466Z"/>
    <path d="M22.1286,24.9806a.4065.4065,0,1,1,.4065.406A.4066.4066,0,0,1,22.1286,24.9806Z"/>
    <path d="M26.1931,20.9156a.4065.4065,0,1,1,.4065.407A.4064.4064,0,0,1,26.1931,20.9156Z"/>
    <path d="M28.2253,22.9466a.4065.4065,0,1,1,.4065.407A.4064.4064,0,0,1,28.2253,22.9466Z"/>
    <path d="M26.1931,24.9806a.4065.4065,0,1,1,.4065.406A.4066.4066,0,0,1,26.1931,24.9806Z"/>
  </g>
</svg>
