<svg width="101" height="101" viewBox="0 0 101 101" fill="none" xmlns="http://www.w3.org/2000/svg">
<g filter="url(#filter0_d_5402_33170)">
<circle cx="50.5" cy="47.5" r="45.5" fill="#FDD601"/>
</g>
<path d="M29.378 44.8105C28.7526 44.8105 28.1412 44.996 27.6212 45.3435C27.1012 45.6909 26.6959 46.1848 26.4565 46.7626C26.2172 47.3404 26.1546 47.9762 26.2766 48.5896C26.3986 49.203 26.6998 49.7665 27.142 50.2087C27.5842 50.6509 28.1477 50.9521 28.7611 51.0741C29.3745 51.1961 30.0103 51.1335 30.5881 50.8942C31.1659 50.6548 31.6598 50.2495 32.0072 49.7295C32.3547 49.2095 32.5401 48.5981 32.5401 47.9727C32.5392 47.1343 32.2057 46.3306 31.6129 45.7378C31.0201 45.1449 30.2164 44.8115 29.378 44.8105ZM29.378 49.0268C29.1695 49.0268 28.9657 48.9649 28.7924 48.8491C28.619 48.7333 28.4839 48.5687 28.4042 48.3761C28.3244 48.1835 28.3035 47.9715 28.3442 47.7671C28.3849 47.5626 28.4852 47.3748 28.6327 47.2274C28.7801 47.08 28.9679 46.9796 29.1723 46.9389C29.3768 46.8982 29.5887 46.9191 29.7814 46.9989C29.974 47.0787 30.1386 47.2138 30.2544 47.3871C30.3702 47.5604 30.432 47.7642 30.432 47.9727C30.4317 48.2522 30.3206 48.5201 30.123 48.7177C29.9254 48.9153 29.6574 49.0264 29.378 49.0268Z" fill="black"/>
<path d="M69.4327 44.8105C68.8073 44.8105 68.1959 44.996 67.6759 45.3435C67.1559 45.6909 66.7506 46.1848 66.5112 46.7626C66.2719 47.3404 66.2093 47.9762 66.3313 48.5896C66.4533 49.203 66.7545 49.7665 67.1967 50.2087C67.6389 50.6509 68.2024 50.9521 68.8158 51.0741C69.4292 51.1961 70.065 51.1335 70.6428 50.8942C71.2206 50.6548 71.7144 50.2495 72.0619 49.7295C72.4094 49.2095 72.5948 48.5981 72.5948 47.9727C72.5939 47.1343 72.2604 46.3306 71.6676 45.7378C71.0748 45.1449 70.271 44.8115 69.4327 44.8105ZM69.4327 49.0268C69.2242 49.0268 69.0204 48.9649 68.8471 48.8491C68.6737 48.7333 68.5386 48.5687 68.4589 48.3761C68.3791 48.1835 68.3582 47.9715 68.3989 47.7671C68.4395 47.5626 68.5399 47.3748 68.6873 47.2274C68.8348 47.08 69.0226 46.9796 69.227 46.9389C69.4315 46.8982 69.6434 46.9191 69.836 46.9989C70.0286 47.0787 70.1933 47.2138 70.3091 47.3871C70.4249 47.5604 70.4867 47.7642 70.4867 47.9727C70.4864 48.2522 70.3753 48.5201 70.1777 48.7177C69.98 48.9153 69.7121 49.0264 69.4327 49.0268Z" fill="black"/>
<path d="M76.8108 47.9722C76.8108 46.9926 76.6157 46.0229 76.237 45.1196C75.8583 44.2162 75.3036 43.3973 74.6051 42.7106C73.9066 42.0239 73.0783 41.4831 72.1687 41.1199C71.259 40.7566 70.2861 40.5781 69.3067 40.5948C65.3076 40.6616 62.054 44.0177 62.054 48.0762V51.6172C59.1666 50.8313 54.9554 50.0803 49.4054 50.0803C43.8554 50.0803 39.6442 50.8313 36.7567 51.6172V47.9722C36.7567 46.9791 36.5563 45.9963 36.1674 45.0825C35.7784 44.1688 35.2091 43.343 34.4934 42.6545C33.7777 41.9661 32.9304 41.4292 32.0022 41.0761C31.0741 40.7229 30.0842 40.5608 29.0919 40.5993C27.2375 40.6775 25.4801 41.4491 24.1677 42.7615C22.8553 44.0739 22.0836 45.8313 22.0055 47.6857C21.9351 49.508 22.5418 51.2919 23.7085 52.6935C24.8752 54.0951 26.5195 55.0152 28.3243 55.2766V59.5668C28.3255 60.6846 28.7702 61.7563 29.5606 62.5467C30.351 63.3371 31.4227 63.7817 32.5405 63.783V66.9451C32.5405 67.2247 32.6516 67.4928 32.8492 67.6905C33.0469 67.8881 33.315 67.9992 33.5946 67.9992H36.7567C36.9525 67.9992 37.1443 67.9447 37.3108 67.8418C37.4773 67.7389 37.6119 67.5916 37.6994 67.4166L39.5162 63.783H59.2945L61.1113 67.4166C61.1988 67.5916 61.3334 67.7389 61.4999 67.8418C61.6664 67.9447 61.8583 67.9992 62.054 67.9992H65.2162C65.4957 67.9992 65.7638 67.8881 65.9615 67.6905C66.1592 67.4928 66.2702 67.2247 66.2702 66.9451V63.783C67.3881 63.7817 68.4597 63.3371 69.2502 62.5467C70.0406 61.7563 70.4852 60.6846 70.4865 59.5668V55.2754C72.2416 55.0197 73.8462 54.1412 75.0074 52.8004C76.1685 51.4596 76.8086 49.7459 76.8108 47.9722ZM36.1053 65.8911H34.6486V63.783H37.1594L36.1053 65.8911ZM64.1621 65.8911H62.7054L61.6514 63.783H64.1621V65.8911ZM69.4324 53.2424C69.1528 53.2424 68.8847 53.3535 68.6871 53.5512C68.4894 53.7488 68.3783 54.0169 68.3783 54.2965V59.5668C68.3777 60.1257 68.1554 60.6615 67.7602 61.0567C67.365 61.4519 66.8291 61.6742 66.2702 61.6749H32.5405C31.9816 61.6742 31.4458 61.4519 31.0506 61.0567C30.6554 60.6615 30.4331 60.1257 30.4324 59.5668V54.2965C30.4324 54.0169 30.3213 53.7488 30.1237 53.5512C29.926 53.3535 29.6579 53.2424 29.3783 53.2424C28.6689 53.2424 27.9667 53.0992 27.3139 52.8213C26.6611 52.5434 26.0712 52.1366 25.5794 51.6252C25.0876 51.1138 24.7042 50.5083 24.452 49.8452C24.1999 49.182 24.0842 48.4748 24.112 47.7658C24.1679 46.4419 24.7189 45.1872 25.6559 44.2502C26.5929 43.3132 27.8475 42.7622 29.1715 42.7064C29.8804 42.6785 30.5877 42.7941 31.2509 43.0462C31.9141 43.2983 32.5195 43.6816 33.031 44.1734C33.5424 44.6651 33.9493 45.255 34.2273 45.9077C34.5053 46.5605 34.6486 47.2627 34.6486 47.9722V52.2674C32.987 52.8472 32.1139 53.327 32.0238 53.3777L33.055 55.2164C33.1094 55.1861 38.6267 52.1884 49.4054 52.1884C60.184 52.1884 65.7013 55.1861 65.7535 55.2152L66.787 53.3777C66.6969 53.327 65.8237 52.8466 64.1621 52.2674V48.0762C64.1621 45.161 66.4858 42.7504 69.3419 42.7027C70.0377 42.6906 70.7291 42.8165 71.3761 43.0731C72.023 43.3297 72.6128 43.7118 73.1112 44.1976C73.6097 44.6833 74.007 45.2629 74.2802 45.903C74.5535 46.5431 74.6973 47.2309 74.7032 47.9269C74.7092 48.6228 74.5773 49.3131 74.3151 49.9578C74.0529 50.6025 73.6655 51.1888 73.1755 51.683C72.6855 52.1772 72.1024 52.5695 71.4599 52.8371C70.8175 53.1048 70.1284 53.2425 69.4324 53.2424Z" fill="black"/>
<path d="M30.4323 33.2162C30.433 32.6573 30.6553 32.1215 31.0505 31.7263C31.4457 31.3311 31.9815 31.1088 32.5404 31.1081H66.2702C66.8291 31.1088 67.3649 31.3311 67.7601 31.7263C68.1553 32.1215 68.3776 32.6573 68.3783 33.2162V41.1875H70.4864V33.2162C70.4851 32.0984 70.0405 31.0267 69.2501 30.2363C68.4597 29.4459 67.388 29.0013 66.2702 29H32.5404C31.4226 29.0013 30.3509 29.4459 29.5605 30.2363C28.7701 31.0267 28.3255 32.0984 28.3242 33.2162V41.3193H30.4323V33.2162Z" fill="black"/>
<path d="M43.0811 36.3783C43.0811 35.7961 43.553 35.3242 44.1351 35.3242C44.7172 35.3242 45.1892 35.7961 45.1892 36.3783C45.1892 36.9604 44.7172 37.4323 44.1351 37.4323C43.553 37.4323 43.0811 36.9604 43.0811 36.3783Z" fill="black"/>
<path d="M48.3516 41.6478C48.3516 41.0657 48.8235 40.5938 49.4056 40.5938C49.9878 40.5938 50.4597 41.0657 50.4597 41.6478C50.4597 42.2299 49.9878 42.7019 49.4056 42.7019C48.8235 42.7019 48.3516 42.2299 48.3516 41.6478Z" fill="black"/>
<path d="M37.8105 41.6478C37.8105 41.0657 38.2825 40.5938 38.8646 40.5938C39.4467 40.5938 39.9187 41.0657 39.9187 41.6478C39.9187 42.2299 39.4467 42.7019 38.8646 42.7019C38.2825 42.7019 37.8105 42.2299 37.8105 41.6478Z" fill="black"/>
<path d="M43.0811 46.9193C43.0811 46.3372 43.553 45.8652 44.1351 45.8652C44.7172 45.8652 45.1892 46.3372 45.1892 46.9193C45.1892 47.5014 44.7172 47.9733 44.1351 47.9733C43.553 47.9733 43.0811 47.5014 43.0811 46.9193Z" fill="black"/>
<path d="M53.6221 36.3783C53.6221 35.7961 54.094 35.3242 54.6761 35.3242C55.2583 35.3242 55.7302 35.7961 55.7302 36.3783C55.7302 36.9604 55.2583 37.4323 54.6761 37.4323C54.094 37.4323 53.6221 36.9604 53.6221 36.3783Z" fill="black"/>
<path d="M58.8916 41.6478C58.8916 41.0657 59.3635 40.5938 59.9457 40.5938C60.5278 40.5938 60.9997 41.0657 60.9997 41.6478C60.9997 42.2299 60.5278 42.7019 59.9457 42.7019C59.3635 42.7019 58.8916 42.2299 58.8916 41.6478Z" fill="black"/>
<path d="M53.6221 46.9193C53.6221 46.3372 54.094 45.8652 54.6761 45.8652C55.2583 45.8652 55.7302 46.3372 55.7302 46.9193C55.7302 47.5014 55.2583 47.9733 54.6761 47.9733C54.094 47.9733 53.6221 47.5014 53.6221 46.9193Z" fill="black"/>
<defs>
<filter id="filter0_d_5402_33170" x="0" y="0" width="101" height="101" filterUnits="userSpaceOnUse" color-interpolation-filters="sRGB">
<feFlood flood-opacity="0" result="BackgroundImageFix"/>
<feColorMatrix in="SourceAlpha" type="matrix" values="0 0 0 0 0 0 0 0 0 0 0 0 0 0 0 0 0 0 127 0" result="hardAlpha"/>
<feOffset dy="3"/>
<feGaussianBlur stdDeviation="2.5"/>
<feColorMatrix type="matrix" values="0 0 0 0 0 0 0 0 0 0 0 0 0 0 0 0 0 0 0.15 0"/>
<feBlend mode="normal" in2="BackgroundImageFix" result="effect1_dropShadow_5402_33170"/>
<feBlend mode="normal" in="SourceGraphic" in2="effect1_dropShadow_5402_33170" result="shape"/>
</filter>
</defs>
</svg>
