<svg id="Layer_1" data-name="Layer 1" xmlns="http://www.w3.org/2000/svg" viewBox="0 0 50 50">
  <g>
    <circle cx="25.9514" cy="23.5937" r="17.5468" style="fill: #f6e160"/>
    <path d="M17.2834,32.6557H25.952a.3944.3944,0,0,0,.394-.394v-8.669a.3944.3944,0,0,0-.394-.394H17.2834a.3945.3945,0,0,0-.3941.394v8.669A.3945.3945,0,0,0,17.2834,32.6557Zm8.2746-.788H17.6774v-7.881H25.558Z"/>
    <path d="M21.6174,23.9877H30.286a.3938.3938,0,0,0,.394-.394v-8.669a.3944.3944,0,0,0-.394-.394H21.6174a.3945.3945,0,0,0-.3941.394v8.669A.3939.3939,0,0,0,21.6174,23.9877Zm8.2745-.788H22.0114v-7.881h7.8805Z"/>
    <path d="M24.77,18.4717h2.3641a.3944.3944,0,0,0,.394-.394v-3.153a.3944.3944,0,0,0-.394-.394H24.77a.3945.3945,0,0,0-.3941.394v3.153A.3945.3945,0,0,0,24.77,18.4717Zm1.97-.788H25.1635v-2.365H26.74Z"/>
    <path d="M20.4355,27.14H22.8a.3945.3945,0,0,0,.3941-.394v-3.153a.3945.3945,0,0,0-.3941-.394H20.4355a.3945.3945,0,0,0-.3941.394v3.153A.3945.3945,0,0,0,20.4355,27.14Zm1.97-.788H20.83v-2.365h1.5761Z"/>
    <path d="M25.9513,32.6557H34.62a.3945.3945,0,0,0,.3941-.394v-8.669a.3945.3945,0,0,0-.3941-.394H25.9513a.3944.3944,0,0,0-.394.394v8.669A.3944.3944,0,0,0,25.9513,32.6557Zm8.2746-.788H26.3454v-7.881h7.8805Z"/>
    <path d="M29.1034,27.14h2.3642a.3944.3944,0,0,0,.394-.394v-3.153a.3944.3944,0,0,0-.394-.394H29.1034a.3944.3944,0,0,0-.394.394v3.153A.3944.3944,0,0,0,29.1034,27.14Zm1.97-.788H29.4975v-2.365h1.5761Z"/>
  </g>
</svg>
