<svg width="36" height="23" viewBox="0 0 36 23" fill="none" xmlns="http://www.w3.org/2000/svg">
<path d="M35.7803 19.4727C35.7803 21.1295 34.4371 22.4727 32.7803 22.4727L3.17213 22.4727C1.51528 22.4727 0.17213 21.1295 0.17213 19.4727L0.172129 3.34259C0.172129 1.68574 1.51528 0.342594 3.17213 0.342593L32.7803 0.342591C34.4371 0.34259 35.7803 1.68574 35.7803 3.34259L35.7803 19.4727Z" fill="#F6E15F"/>
<path d="M17.9746 14.9461C17.7922 14.9461 17.6099 14.8703 17.4709 14.7192L13.0964 9.96145C12.8181 9.6588 12.8181 9.1681 13.0964 8.86557C13.3746 8.56304 13.8256 8.56304 14.1039 8.86557L17.9746 13.0755L21.8452 8.86572C22.1235 8.56319 22.5745 8.56319 22.8526 8.86572C23.1311 9.16825 23.1311 9.65895 22.8526 9.9616L18.4782 14.7194C18.3391 14.8705 18.1568 14.9461 17.9746 14.9461Z" fill="black"/>
<path d="M35.6084 19.1309C35.6084 20.7877 34.2653 22.1309 32.6084 22.1309L3.00026 22.1309C1.3434 22.1309 0.000255477 20.7877 0.000255344 19.1309L0.000254047 3.0008C0.000253914 1.34394 1.3434 0.000796715 3.00025 0.000796557L32.6084 0.000793742C34.2653 0.000793585 35.6084 1.34394 35.6084 3.00079L35.6084 19.1309Z" fill="#F6E15F"/>
<path d="M17.8027 14.6043C17.6203 14.6043 17.438 14.5285 17.299 14.3774L12.9245 9.61966C12.6463 9.317 12.6463 8.8263 12.9245 8.52377C13.2027 8.22124 13.6538 8.22124 13.9321 8.52377L17.8027 12.7337L21.6733 8.52392C21.9516 8.22139 22.4026 8.22139 22.6808 8.52392C22.9592 8.82645 22.9592 9.31715 22.6808 9.6198L18.3063 14.3776C18.1673 14.5287 17.9849 14.6043 17.8027 14.6043Z" fill="black"/>
</svg>
