<svg width="36" height="23" viewBox="0 0 36 23" fill="none" xmlns="http://www.w3.org/2000/svg">
<path d="M35.8486 19.1992C35.8486 20.8561 34.5055 22.1992 32.8486 22.1992L3.24049 22.1992C1.58364 22.1992 0.24049 20.8561 0.24049 19.1992L0.240488 3.38988C0.240488 1.73303 1.58364 0.389881 3.24049 0.38988L32.8486 0.389878C34.5055 0.389877 35.8486 1.73302 35.8486 3.38988L35.8486 19.1992Z" fill="#E5E5E5"/>
<path d="M18.0429 14.7824C17.8606 14.7824 17.6783 14.7078 17.5393 14.5588L13.1648 9.87002C12.8865 9.57175 12.8865 9.08816 13.1648 8.79002C13.4429 8.49187 13.894 8.49187 14.1723 8.79002L18.0429 12.9389L21.9135 8.79016C22.1918 8.49201 22.6429 8.49201 22.921 8.79016C23.1994 9.08831 23.1994 9.5719 22.921 9.87016L18.5466 14.559C18.4075 14.7079 18.2252 14.7824 18.0429 14.7824Z" fill="black"/>
</svg>
