<svg id="Layer_1" data-name="Layer 1" xmlns="http://www.w3.org/2000/svg" viewBox="0 0 50 50">
  <g>
    <circle cx="23.1202" cy="24.2924" r="17" style="fill: #fDD601"/>
    <ellipse cx="22.9326" cy="34.1945" rx="3.7363" ry="1.1209"/>
    <path d="M26.453,19.9819a3.4836,3.4836,0,0,0-.5784-1.9222,3.4343,3.4343,0,0,0-6.2331,1.2481,3.4765,3.4765,0,0,0,1.4607,3.5548,3.4206,3.4206,0,0,0,1.911.585m3.44-3.4657a3.4659,3.4659,0,0,1-1.0021,2.4528,3.4144,3.4144,0,0,1-2.4377,1.0129m3.44-3.4657v.001h-.5Zm-3.44,3.4657h-.0009l.002-.5v.5ZM16.3481,20.35V20.35a6.8826,6.8826,0,0,1,6.7567-6.5785A6.8826,6.8826,0,0,1,29.8615,20.35l0,.0014a7.1461,7.1461,0,0,1-1.4382,4.71l0,0-2.2217,2.9961h0l-3.0966,4.1764-3.0666-4.1354v0l-2.25-3.0345A7.265,7.265,0,0,1,16.3481,20.35Z" style="fill: none;stroke: #000"/>
  </g>
</svg>
