<svg width="101" height="101" viewBox="0 0 101 101" fill="none" xmlns="http://www.w3.org/2000/svg">
<g filter="url(#filter0_d_5402_33198)">
<circle cx="50.5" cy="47.5" r="45.5" fill="#FDD601"/>
</g>
<ellipse cx="50" cy="74" rx="10" ry="3" fill="black"/>
<path d="M58.6179 57.4791L50.4599 68.4816L42.3822 57.5886L42.3821 57.5885L36.3613 49.4677C33.7173 45.8065 32.2427 41.4334 32.5372 36.958L32.5373 36.9561C33.1385 27.6355 40.4792 19.5 50.46 19.5C60.4407 19.5 67.7814 27.6355 68.3826 36.9561L68.3829 36.9602C68.6796 41.3723 67.2701 45.8198 64.5652 49.4587L64.5642 49.4601L58.618 57.479L58.6179 57.4791ZM59.583 35.9615C59.5825 34.0994 59.0349 32.2782 58.0081 30.7278C56.9806 29.1765 55.5188 27.9654 53.806 27.2496C52.0931 26.5338 50.2074 26.3463 48.3881 26.7114C46.5689 27.0765 44.8996 27.9773 43.5907 29.2977C42.282 30.618 41.3922 32.2986 41.0318 34.1263C40.6715 35.9539 40.8563 37.8484 41.5635 39.5707C42.2707 41.2932 43.4692 42.7676 45.0095 43.8059C46.5491 44.8436 48.3603 45.3987 50.2144 45.3993C51.4473 45.404 52.6687 45.1625 53.8081 44.6891C54.9483 44.2153 55.9833 43.5189 56.8539 42.6406C57.7245 41.7624 58.4134 40.7196 58.8815 39.5729C59.3493 38.4272 59.5876 37.1998 59.583 35.9615Z" stroke="black" stroke-width="3"/>
<defs>
<filter id="filter0_d_5402_33198" x="0" y="0" width="101" height="101" filterUnits="userSpaceOnUse" color-interpolation-filters="sRGB">
<feFlood flood-opacity="0" result="BackgroundImageFix"/>
<feColorMatrix in="SourceAlpha" type="matrix" values="0 0 0 0 0 0 0 0 0 0 0 0 0 0 0 0 0 0 127 0" result="hardAlpha"/>
<feOffset dy="3"/>
<feGaussianBlur stdDeviation="2.5"/>
<feColorMatrix type="matrix" values="0 0 0 0 0 0 0 0 0 0 0 0 0 0 0 0 0 0 0.15 0"/>
<feBlend mode="normal" in2="BackgroundImageFix" result="effect1_dropShadow_5402_33198"/>
<feBlend mode="normal" in="SourceGraphic" in2="effect1_dropShadow_5402_33198" result="shape"/>
</filter>
</defs>
</svg>
