<svg id="Layer_1" data-name="Layer 1" xmlns="http://www.w3.org/2000/svg" viewBox="0 0 50 50">
  <g>
    <circle cx="25" cy="25" r="17.5468" style="fill: #fDD601"/>
    <g>
      <path d="M21.48,16.3186h.2708c.48.2.3526.64.3783,1.0084H24.49c.0167-.3808-.1-.81.3746-1.0084h.2708c.48.2.3529.64.3783,1.0085h2.361c.0164-.3809-.0992-.8094.3745-1.0085H28.52c.4747.1989.3572.6287.3752,1.0173H29.09q1.2183,0,2.4367,0a1.5284,1.5284,0,0,1,1.63,1.6319q.0006,6.0357,0,12.0716a1.5289,1.5289,0,0,1-1.6215,1.6244c-1.0548.0009-2.11-.002-3.1643.0039a.55.55,0,0,0-.2788.0853,5.4967,5.4967,0,0,1-1.759.7623c-.295.067-.5951.1114-.8929.166h-.88a.4946.4946,0,0,0-.0944-.0283,5.6,5.6,0,0,1-2.585-.92.45.45,0,0,0-.2339-.0661c-1.066-.0042-2.1321-.0017-3.1982-.0032a1.5266,1.5266,0,0,1-1.605-1.6067q-.0012-6.0615,0-12.1229A1.5248,1.5248,0,0,1,18.44,17.3362q1.2352-.0017,2.4706,0h.1943C21.123,16.9473,21.005,16.5173,21.48,16.3186Zm-3.6214,5.0953v.1272q0,4.7728.0005,9.5459a.5134.5134,0,0,0,.5583.5591c.66.0019,1.32.0006,1.98.0006h.2749a5.6027,5.6027,0,0,1-1.2661-4.06,5.4547,5.4547,0,0,1,1.918-3.7818,5.5665,5.5665,0,0,1,7.1607-.161,5.44,5.44,0,0,1,2.011,3.2607A5.6013,5.6013,0,0,1,29.33,31.6467h2.1726c.4554,0,.6387-.1815.6387-.6323q0-4.7052,0-9.41v-.19ZM20.3973,28.05a4.6027,4.6027,0,1,0,4.6083-4.61A4.6162,4.6162,0,0,0,20.3973,28.05Zm.71-9.6969h-.1372q-1.2773,0-2.5543,0a.5132.5132,0,0,0-.5572.5594c-.0017.4463-.0007.8926,0,1.3389,0,.0429.0077.0857.0113.1236h14.271c0-.4865.0006-.9606,0-1.4347a.5209.5209,0,0,0-.5805-.5874q-1.2519-.0011-2.5036,0h-.165c0,.18.0022.3327,0,.4851a.5078.5078,0,1,1-1.0143-.0029c-.0025-.1563-.0005-.3127-.0005-.4707H25.5077c0,.1576.0011.3037,0,.45a.51.51,0,1,1-1.0149-.0063c-.001-.15,0-.3,0-.4551H22.1232c0,.1577,0,.2977,0,.4376a.5116.5116,0,1,1-1.0152.0074C21.1073,18.6577,21.1078,18.5172,21.1078,18.3533Z"/>
      <path d="M25.5073,30.3781c0,.09.0032.1747-.0006.2588a.5109.5109,0,0,1-.514.5.4855.4855,0,0,1-.4921-.4973c.0182-.2534-.0793-.349-.3011-.4461a3.5429,3.5429,0,0,1-.7635-.4865.4685.4685,0,0,1-.0834-.5912.4815.4815,0,0,1,.5282-.2486.678.678,0,0,1,.2658.1333,1.9035,1.9035,0,0,0,.8333.3908.665.665,0,0,0,.5823-.1615.2891.2891,0,0,0-.0192-.4984,1.9466,1.9466,0,0,0-.3886-.2c-.2862-.1177-.5808-.2155-.8645-.3387A1.1839,1.1839,0,0,1,23.5,27.04a1.2548,1.2548,0,0,1,.7956-1.1946.2125.2125,0,0,0,.1435-.228,1.02,1.02,0,0,1,.0567-.3626.4876.4876,0,0,1,.543-.28.4751.4751,0,0,1,.4029.4757c-.0109.2164.0693.2893.2665.3554a2.7111,2.7111,0,0,1,.65.3508.4946.4946,0,0,1,.1369.7138.5056.5056,0,0,1-.7325.1006,1.0737,1.0737,0,0,0-.9477-.2359.5411.5411,0,0,0-.23.13.2165.2165,0,0,0,.0792.3678c.3117.13.6258.2546.94.3793a1.8124,1.8124,0,0,1,.8939.6668,1.3675,1.3675,0,0,1-.7311,2.01C25.6884,30.32,25.6072,30.3437,25.5073,30.3781Z"/>
    </g>
  </g>
</svg>
