<svg xmlns="http://www.w3.org/2000/svg" viewBox="0 0 350 350">
  <g id="Layer_1" data-name="Layer 1">
    <g>
      <path d="M270.8535,187.4015H253.6689V151.8942a11.3376,11.3376,0,0,0-11.3237-11.325H148.4041a11.3374,11.3374,0,0,0-11.3236,11.325v35.5073H119.8957a11.2039,11.2039,0,0,0-11.2949,11.0851v62.9741a9.5392,9.5392,0,0,0,19.0744,0V240.4924H262.948v20.9047a9.6032,9.6032,0,0,0,19.2034,0V198.4866A11.2065,11.2065,0,0,0,270.8535,187.4015ZM113.8281,235.2656V227.493H276.924v7.7726Zm28.48-83.3714a6.1021,6.1021,0,0,1,6.0962-6.0982h93.9411a6.107,6.107,0,0,1,6.0991,6.0982v35.5073H242.219v-10.05a11.2038,11.2038,0,0,0-11.2949-11.0845H209.788a11.2039,11.2039,0,0,0-11.295,11.0845V187.4h-6.2368V177.3516a11.2038,11.2038,0,0,0-11.2949-11.0845H159.8252A11.2038,11.2038,0,0,0,148.53,177.3516V187.4h-6.2224ZM203.72,187.4015v-10.05a5.9729,5.9729,0,0,1,6.0676-5.8576h21.139a5.9693,5.9693,0,0,1,6.0646,5.8576V187.4Zm-49.96,0v-10.05a5.9729,5.9729,0,0,1,6.0676-5.8576h21.1361a5.9738,5.9738,0,0,1,6.0675,5.8576V187.4Zm-33.8619,5.2268H270.8535a5.9735,5.9735,0,0,1,6.07,5.8583v23.78H113.8281v-23.78a5.9687,5.9687,0,0,1,6.0676-5.8583Zm2.552,68.8316a4.3132,4.3132,0,0,1-8.6225,0V240.4924h8.6225Zm150.1005,4.1423a4.2982,4.2982,0,0,1-4.3757-4.2051V240.4924h8.7486v20.9047a4.2982,4.2982,0,0,1-4.3758,4.2051Z" style="fill: #3b3838"/>
      <path d="M99.0521,263.6374H93.0075V161.7569h16.9553a2.9655,2.9655,0,0,0,2.7069-4.1988l-10.5638-23.1029a2.9872,2.9872,0,0,0-2.71-1.738H81.3885a2.9784,2.9784,0,0,0-2.7069,1.7368L68.115,157.5549a2.9692,2.9692,0,0,0,2.71,4.1991h6.2138v7.7714a4.7721,4.7721,0,0,0-2.2424,4.0394,4.8548,4.8548,0,0,0,9.7092,0,4.7905,4.7905,0,0,0-2.2423-4.0394V161.754H87.78V263.6374H81.7354a2.6136,2.6136,0,1,0,0,5.2272H99.0521a2.6136,2.6136,0,1,0,0-5.2272ZM79.6508,173.9909a.4054.4054,0,0,1-.3728-.4261.602.602,0,0,1,.0259-.1436,2.74,2.74,0,0,0,.35.0258,2.5874,2.5874,0,0,0,.3441-.0258.41.41,0,0,1,.0258.1436.3978.3978,0,0,1-.0975.29.4075.4075,0,0,1-.2753.1359Zm3.18-36.05H97.9539l8.4991,18.5858H74.3345Z" style="fill: #3b3838"/>
      <path d="M143.862,79.1707a2.6136,2.6136,0,0,0-2.6122,2.6134v44.2978a2.6136,2.6136,0,0,0,2.6122,2.6134H246.8872a2.6136,2.6136,0,0,0,2.6123-2.6134V81.7841a2.6136,2.6136,0,0,0-2.6123-2.6134Zm60.6412,44.2978-.3727-.398,12.2039-10.28L227.7355,123.47Zm-39.723,0,16.8722-16.6877,15.6793,16.6854Zm79.4948,0h-8.892l-17.17-16.0814a2.6159,2.6159,0,0,0-3.4725-.0915l-14.1939,11.958-16.9239-18.0055a2.6026,2.6026,0,0,0-.843-.6,2.63,2.63,0,0,0-1.0122-.2239,2.5592,2.5592,0,0,0-1.8868.7548l-22.5354,22.2869H146.4743V84.3954H244.275Z" style="fill: #3b3838"/>
      <path d="M200.6264,108.7024c4.8948,0,8.8777-4.2538,8.8777-9.4815s-3.9829-9.482-8.8777-9.482-8.8777,4.2538-8.8777,9.482S195.7316,108.7024,200.6264,108.7024Zm0-13.7367c2.013,0,3.65,1.9087,3.65,4.2552s-1.6373,4.2546-3.65,4.2546-3.65-1.9086-3.65-4.2546S198.6135,94.9657,200.6264,94.9657Z" style="fill: #3b3838"/>
    </g>
  </g>
</svg>
