<svg xmlns="http://www.w3.org/2000/svg" viewBox="0 0 350 350">
  <g id="Layer_1" data-name="Layer 1">
    <g>
      <path d="M161.8325,218.6173a13.9906,13.9906,0,1,0,13.99,13.9906A13.9923,13.9923,0,0,0,161.8325,218.6173Zm0,21.7634a7.7725,7.7725,0,1,1,7.7716-7.7725A7.7731,7.7731,0,0,1,161.8325,240.3807Z" style="fill: #3b3838"/>
      <path d="M219.4393,218.6173a13.9906,13.9906,0,1,0,13.9924,13.9906A13.99,13.99,0,0,0,219.4393,218.6173Zm0,21.7634a7.7725,7.7725,0,1,1,7.7716-7.7725A7.7723,7.7723,0,0,1,219.4393,240.3807Z" style="fill: #3b3838"/>
      <path d="M257.3339,129.2421a4.8211,4.8211,0,0,0-3.0866-1.5427l-125.5378-1.7356-3.4682-10.6062a17.7442,17.7442,0,0,0-16.5869-11.9561H95.7357a3.8569,3.8569,0,0,0,0,7.7137h12.9187a10.0239,10.0239,0,0,1,9.2567,6.7493l24.4927,73.8572-1.93,4.4351a18.51,18.51,0,0,0,1.7357,16.7768,17.9347,17.9347,0,0,0,14.4635,8.0993h75.0137a3.8567,3.8567,0,0,0,0-7.7134H156.6734a9.8359,9.8359,0,0,1-8.1-4.6284,10.609,10.609,0,0,1-.9661-9.2563l1.5448-3.471,81.1837-8.4852a21.2124,21.2124,0,0,0,18.32-16.1983l9.2567-38.7605A3.2757,3.2757,0,0,0,257.3339,129.2421ZM241.1347,169.545a13.1078,13.1078,0,0,1-11.7618,10.2205l-80.22,8.292-17.935-54.38,118.2107,1.7353Z" style="fill: #3b3838"/>
    </g>
  </g>
</svg>
