<svg width="31" height="20" viewBox="0 0 31 20" fill="none" xmlns="http://www.w3.org/2000/svg">
<path d="M31 18C31 19.1046 30.1046 20 29 20L2 20C0.895432 20 1.83777e-06 19.1046 1.75193e-06 18L5.08584e-07 2C4.22749e-07 0.895431 0.895432 -8.53895e-07 2 -9.6253e-07L29 -3.618e-06C30.1046 -3.72663e-06 31 0.895426 31 2L31 18Z" fill="#D7D7D7"/>
<path d="M15.4728 13.544C15.3116 13.544 15.1505 13.4748 15.0276 13.3366L11.161 8.98673C10.9151 8.71002 10.9151 8.26139 11.161 7.98479C11.4069 7.70819 11.8056 7.70819 12.0516 7.98479L15.4728 11.8338L18.8939 7.98493C19.1399 7.70833 19.5386 7.70833 19.7844 7.98493C20.0305 8.26152 20.0305 8.71016 19.7844 8.98686L15.9179 13.3368C15.795 13.475 15.6339 13.544 15.4728 13.544Z" fill="black"/>
</svg>
