<svg width="39" height="25" viewBox="0 0 39 25" fill="none" xmlns="http://www.w3.org/2000/svg">
<path d="M39 22C39 23.6569 37.6569 25 36 25L3 25C1.34315 25 3.71032e-06 23.6569 3.58157e-06 22L2.1051e-06 3C1.97634e-06 1.34315 1.34315 -1.11123e-07 3 -2.74075e-07L36 -3.51965e-06C37.6569 -3.6826e-06 39 1.34314 39 3L39 22Z" fill="#F6E15F"/>
<path d="M19.2375 17C19.0139 17 18.7903 16.904 18.6199 16.7123L13.2559 10.6778C12.9147 10.2939 12.9147 9.6715 13.2559 9.28779C13.597 8.90407 14.1501 8.90407 14.4914 9.28779L19.2375 14.6275L23.9836 9.28797C24.3248 8.90426 24.8779 8.90426 25.219 9.28797C25.5603 9.67169 25.5603 10.2941 25.219 10.6779L19.8551 16.7125C19.6845 16.9042 19.461 17 19.2375 17Z" fill="black"/>
</svg>
