<svg xmlns="http://www.w3.org/2000/svg" viewBox="0 0 101 72">
  <g id="Layer_1" data-name="Layer 1">
    <g>
      <path d="M86.6359,53.6047a5.5592,5.5592,0,0,1-5.5594,5.5593H19.9235a5.5593,5.5593,0,0,1-5.5594-5.5593V18.3953a5.5593,5.5593,0,0,1,5.5594-5.5593h61.153a5.5593,5.5593,0,0,1,5.5594,5.5593Z" style="fill: #FCD766"/>
      <path d="M50.0136,44.3391a1.5274,1.5274,0,0,1-1.1445-.5332l-9.94-11.1827a1.986,1.986,0,0,1,0-2.5758,1.4952,1.4952,0,0,1,2.29,0l8.7952,9.8951,8.7951-9.8948a1.4952,1.4952,0,0,1,2.2893,0,1.9853,1.9853,0,0,1,0,2.5757l-9.94,11.1829A1.5282,1.5282,0,0,1,50.0136,44.3391Z"/>
    </g>
  </g>
</svg>